<svg width="264" height="146" viewBox="0 0 264 146" fill="none" xmlns="http://www.w3.org/2000/svg">
<g filter="url(#filter0_ddd_3781_482524)">
<path d="M24 36C24 27.1634 31.1634 20 40 20H224C232.837 20 240 27.1634 240 36V102C240 110.837 232.837 118 224 118H40C31.1634 118 24 110.837 24 102V36Z" fill="white"/>
<path d="M110.422 93.625V105H108.461L103.359 96.8516V105H101.398V93.625H103.359L108.477 101.789V93.625H110.422ZM112.211 100.867V100.688C112.211 100.078 112.299 99.513 112.477 98.9922C112.654 98.4661 112.909 98.0104 113.242 97.625C113.581 97.2344 113.992 96.9323 114.477 96.7188C114.966 96.5 115.518 96.3906 116.133 96.3906C116.753 96.3906 117.305 96.5 117.789 96.7188C118.279 96.9323 118.693 97.2344 119.031 97.625C119.37 98.0104 119.628 98.4661 119.805 98.9922C119.982 99.513 120.07 100.078 120.07 100.688V100.867C120.07 101.477 119.982 102.042 119.805 102.562C119.628 103.083 119.37 103.539 119.031 103.93C118.693 104.315 118.281 104.617 117.797 104.836C117.312 105.049 116.763 105.156 116.148 105.156C115.529 105.156 114.974 105.049 114.484 104.836C114 104.617 113.589 104.315 113.25 103.93C112.911 103.539 112.654 103.083 112.477 102.562C112.299 102.042 112.211 101.477 112.211 100.867ZM114.094 100.688V100.867C114.094 101.247 114.133 101.607 114.211 101.945C114.289 102.284 114.411 102.581 114.578 102.836C114.745 103.091 114.958 103.292 115.219 103.438C115.479 103.583 115.789 103.656 116.148 103.656C116.497 103.656 116.799 103.583 117.055 103.438C117.315 103.292 117.529 103.091 117.695 102.836C117.862 102.581 117.984 102.284 118.062 101.945C118.146 101.607 118.188 101.247 118.188 100.867V100.688C118.188 100.312 118.146 99.9583 118.062 99.625C117.984 99.2865 117.859 98.987 117.688 98.7266C117.521 98.4661 117.307 98.263 117.047 98.1172C116.792 97.9661 116.487 97.8906 116.133 97.8906C115.779 97.8906 115.471 97.9661 115.211 98.1172C114.956 98.263 114.745 98.4661 114.578 98.7266C114.411 98.987 114.289 99.2865 114.211 99.625C114.133 99.9583 114.094 100.312 114.094 100.688ZM123.531 98.2656V105H121.648V96.5469H123.422L123.531 98.2656ZM123.227 100.461L122.586 100.453C122.586 99.8698 122.659 99.3307 122.805 98.8359C122.951 98.3411 123.164 97.9115 123.445 97.5469C123.727 97.1771 124.076 96.8932 124.492 96.6953C124.914 96.4922 125.401 96.3906 125.953 96.3906C126.339 96.3906 126.69 96.4479 127.008 96.5625C127.331 96.6719 127.609 96.8464 127.844 97.0859C128.083 97.3255 128.266 97.6328 128.391 98.0078C128.521 98.3828 128.586 98.8359 128.586 99.3672V105H126.703V99.5312C126.703 99.1198 126.641 98.7969 126.516 98.5625C126.396 98.3281 126.221 98.1615 125.992 98.0625C125.768 97.9583 125.5 97.9062 125.188 97.9062C124.833 97.9062 124.531 97.974 124.281 98.1094C124.036 98.2448 123.836 98.4297 123.68 98.6641C123.523 98.8984 123.409 99.1693 123.336 99.4766C123.263 99.7839 123.227 100.112 123.227 100.461ZM128.469 99.9609L127.586 100.156C127.586 99.6458 127.656 99.1641 127.797 98.7109C127.943 98.2526 128.154 97.8516 128.43 97.5078C128.711 97.1589 129.057 96.8854 129.469 96.6875C129.88 96.4896 130.352 96.3906 130.883 96.3906C131.315 96.3906 131.701 96.4505 132.039 96.5703C132.383 96.6849 132.674 96.8672 132.914 97.1172C133.154 97.3672 133.336 97.6927 133.461 98.0938C133.586 98.4896 133.648 98.9688 133.648 99.5312V105H131.758V99.5234C131.758 99.0964 131.695 98.7656 131.57 98.5312C131.451 98.2969 131.279 98.1354 131.055 98.0469C130.831 97.9531 130.562 97.9062 130.25 97.9062C129.958 97.9062 129.701 97.9609 129.477 98.0703C129.258 98.1745 129.073 98.3229 128.922 98.5156C128.771 98.7031 128.656 98.9193 128.578 99.1641C128.505 99.4089 128.469 99.6745 128.469 99.9609ZM137.602 96.5469V105H135.711V96.5469H137.602ZM135.586 94.3281C135.586 94.0417 135.68 93.8047 135.867 93.6172C136.06 93.4245 136.326 93.3281 136.664 93.3281C136.997 93.3281 137.26 93.4245 137.453 93.6172C137.646 93.8047 137.742 94.0417 137.742 94.3281C137.742 94.6094 137.646 94.8438 137.453 95.0312C137.26 95.2188 136.997 95.3125 136.664 95.3125C136.326 95.3125 136.06 95.2188 135.867 95.0312C135.68 94.8438 135.586 94.6094 135.586 94.3281ZM141.531 98.3516V105H139.648V96.5469H141.422L141.531 98.3516ZM141.195 100.461L140.586 100.453C140.591 99.8542 140.674 99.3047 140.836 98.8047C141.003 98.3047 141.232 97.875 141.523 97.5156C141.82 97.1562 142.174 96.8802 142.586 96.6875C142.997 96.4896 143.456 96.3906 143.961 96.3906C144.367 96.3906 144.734 96.4479 145.062 96.5625C145.396 96.6719 145.68 96.8516 145.914 97.1016C146.154 97.3516 146.336 97.6771 146.461 98.0781C146.586 98.474 146.648 98.9609 146.648 99.5391V105H144.758V99.5312C144.758 99.125 144.698 98.8047 144.578 98.5703C144.464 98.3307 144.294 98.1615 144.07 98.0625C143.852 97.9583 143.578 97.9062 143.25 97.9062C142.927 97.9062 142.638 97.974 142.383 98.1094C142.128 98.2448 141.911 98.4297 141.734 98.6641C141.562 98.8984 141.43 99.1693 141.336 99.4766C141.242 99.7839 141.195 100.112 141.195 100.461ZM152.297 105.156C151.672 105.156 151.107 105.055 150.602 104.852C150.102 104.643 149.674 104.354 149.32 103.984C148.971 103.615 148.703 103.18 148.516 102.68C148.328 102.18 148.234 101.641 148.234 101.062V100.75C148.234 100.089 148.331 99.4896 148.523 98.9531C148.716 98.4167 148.984 97.9583 149.328 97.5781C149.672 97.1927 150.078 96.8984 150.547 96.6953C151.016 96.4922 151.523 96.3906 152.07 96.3906C152.674 96.3906 153.203 96.4922 153.656 96.6953C154.109 96.8984 154.484 97.1849 154.781 97.5547C155.083 97.9193 155.307 98.3542 155.453 98.8594C155.604 99.3646 155.68 99.9219 155.68 100.531V101.336H149.148V99.9844H153.82V99.8359C153.81 99.4974 153.742 99.1797 153.617 98.8828C153.497 98.5859 153.312 98.3464 153.062 98.1641C152.812 97.9818 152.479 97.8906 152.062 97.8906C151.75 97.8906 151.471 97.9583 151.227 98.0938C150.987 98.224 150.786 98.4141 150.625 98.6641C150.464 98.9141 150.339 99.2161 150.25 99.5703C150.167 99.9193 150.125 100.312 150.125 100.75V101.062C150.125 101.432 150.174 101.776 150.273 102.094C150.378 102.406 150.529 102.68 150.727 102.914C150.924 103.148 151.164 103.333 151.445 103.469C151.727 103.599 152.047 103.664 152.406 103.664C152.859 103.664 153.263 103.573 153.617 103.391C153.971 103.208 154.279 102.951 154.539 102.617L155.531 103.578C155.349 103.844 155.112 104.099 154.82 104.344C154.529 104.583 154.172 104.779 153.75 104.93C153.333 105.081 152.849 105.156 152.297 105.156ZM160.875 105.156C160.25 105.156 159.685 105.055 159.18 104.852C158.68 104.643 158.253 104.354 157.898 103.984C157.549 103.615 157.281 103.18 157.094 102.68C156.906 102.18 156.812 101.641 156.812 101.062V100.75C156.812 100.089 156.909 99.4896 157.102 98.9531C157.294 98.4167 157.562 97.9583 157.906 97.5781C158.25 97.1927 158.656 96.8984 159.125 96.6953C159.594 96.4922 160.102 96.3906 160.648 96.3906C161.253 96.3906 161.781 96.4922 162.234 96.6953C162.688 96.8984 163.062 97.1849 163.359 97.5547C163.661 97.9193 163.885 98.3542 164.031 98.8594C164.182 99.3646 164.258 99.9219 164.258 100.531V101.336H157.727V99.9844H162.398V99.8359C162.388 99.4974 162.32 99.1797 162.195 98.8828C162.076 98.5859 161.891 98.3464 161.641 98.1641C161.391 97.9818 161.057 97.8906 160.641 97.8906C160.328 97.8906 160.049 97.9583 159.805 98.0938C159.565 98.224 159.365 98.4141 159.203 98.6641C159.042 98.9141 158.917 99.2161 158.828 99.5703C158.745 99.9193 158.703 100.312 158.703 100.75V101.062C158.703 101.432 158.753 101.776 158.852 102.094C158.956 102.406 159.107 102.68 159.305 102.914C159.503 103.148 159.742 103.333 160.023 103.469C160.305 103.599 160.625 103.664 160.984 103.664C161.438 103.664 161.841 103.573 162.195 103.391C162.549 103.208 162.857 102.951 163.117 102.617L164.109 103.578C163.927 103.844 163.69 104.099 163.398 104.344C163.107 104.583 162.75 104.779 162.328 104.93C161.911 105.081 161.427 105.156 160.875 105.156Z" fill="#383839"/>
<path d="M155.952 69.7567C155.855 62.8501 154.885 60.8639 147.467 59.5999C147.467 59.5999 146.4 60.8187 143.976 60.8187C141.552 60.8187 140.485 59.5999 140.485 59.5999C133.164 60.8187 132.097 62.7598 132 69.4858C132 70.0275 132 70.0727 132 69.9824C132 70.1178 132 70.3435 132 70.7046C132 70.7046 133.745 73.9999 143.976 73.9999C154.206 73.9999 156 70.7046 156 70.7046C156 70.4789 156 70.2984 156 70.1629C156 70.2532 155.952 70.1629 155.952 69.7567Z" fill="url(#paint0_linear_3781_482524)"/>
<path d="M144 58.3999C147.298 58.3999 150 54.9169 150 50.5999C150 46.2829 149.13 42.7999 144 42.7999C138.87 42.7999 138 46.2829 138 50.5999C138 54.9169 140.702 58.3999 144 58.3999Z" fill="url(#paint1_linear_3781_482524)"/>
<path d="M132 69.7249C131.855 62.8399 130.885 60.8599 123.467 59.5999C123.467 59.5999 122.4 60.8149 119.976 60.8149C117.552 60.8149 116.485 59.5999 116.485 59.5999C109.164 60.8599 108.145 62.7949 108 69.4999C108 70.0399 108 70.0849 108 69.9949C108 70.1299 108 70.3549 108 70.7149C108 70.7149 109.745 73.9999 119.976 73.9999C130.206 73.9999 132 70.7149 132 70.7149C132 70.4899 132 70.3099 132 70.1749C132 70.2199 132 70.1299 132 69.7249Z" fill="url(#paint2_linear_3781_482524)"/>
<path d="M120 58.3999C123.298 58.3999 126 54.9169 126 50.5999C126 46.2829 125.13 42.7999 120 42.7999C114.871 42.7999 114.001 46.2829 114.001 50.5999C113.955 54.9169 116.657 58.3999 120 58.3999Z" fill="url(#paint3_linear_3781_482524)"/>
<g filter="url(#filter1_b_3781_482524)">
<path d="M147.497 73.16C147.373 64.4812 146.555 60.7555 141.329 58.5943C138.486 57.4185 135.025 59.1292 131.949 59.1292C128.87 59.1292 125.412 57.4098 122.563 58.5759C117.403 60.6875 116.524 64.3417 116.4 72.8092C116.4 73.6861 116.4 73.7446 116.4 73.6276C116.4 74.3988 116.56 75.171 117.08 75.7397C118.453 77.2393 122.298 80 132 80C144.089 80 147.085 75.714 147.535 74.9219C147.581 74.8407 147.6 74.6929 147.6 74.5994C147.6 74.2257 147.536 73.6949 147.509 73.3221C147.505 73.2719 147.501 73.2179 147.497 73.16Z" fill="#FFBF94" fill-opacity="0.5"/>
<path d="M132 57.2C135.985 57.2 139.2 53.1534 139.2 48.1767C139.2 43.2465 138.159 39.2 132 39.2C125.842 39.2 124.8 43.2465 124.8 48.1767C124.8 53.1534 128.015 57.2 132 57.2Z" fill="#FFBF94" fill-opacity="0.5"/>
</g>
</g>
<defs>
<filter id="filter0_ddd_3781_482524" x="0" y="0" width="264" height="146" filterUnits="userSpaceOnUse" color-interpolation-filters="sRGB">
<feFlood flood-opacity="0" result="BackgroundImageFix"/>
<feColorMatrix in="SourceAlpha" type="matrix" values="0 0 0 0 0 0 0 0 0 0 0 0 0 0 0 0 0 0 127 0" result="hardAlpha"/>
<feOffset dy="0.266004"/>
<feGaussianBlur stdDeviation="0.798012"/>
<feColorMatrix type="matrix" values="0 0 0 0 0.678431 0 0 0 0 0.666667 0 0 0 0 0.666667 0 0 0 0.0646228 0"/>
<feBlend mode="normal" in2="BackgroundImageFix" result="effect1_dropShadow_3781_482524"/>
<feColorMatrix in="SourceAlpha" type="matrix" values="0 0 0 0 0 0 0 0 0 0 0 0 0 0 0 0 0 0 127 0" result="hardAlpha"/>
<feOffset dy="0.893452"/>
<feGaussianBlur stdDeviation="2.68036"/>
<feColorMatrix type="matrix" values="0 0 0 0 0.678431 0 0 0 0 0.666667 0 0 0 0 0.666667 0 0 0 0.0953772 0"/>
<feBlend mode="normal" in2="effect1_dropShadow_3781_482524" result="effect2_dropShadow_3781_482524"/>
<feColorMatrix in="SourceAlpha" type="matrix" values="0 0 0 0 0 0 0 0 0 0 0 0 0 0 0 0 0 0 127 0" result="hardAlpha"/>
<feOffset dy="4"/>
<feGaussianBlur stdDeviation="12"/>
<feColorMatrix type="matrix" values="0 0 0 0 0.678431 0 0 0 0 0.666667 0 0 0 0 0.666667 0 0 0 0.16 0"/>
<feBlend mode="normal" in2="effect2_dropShadow_3781_482524" result="effect3_dropShadow_3781_482524"/>
<feBlend mode="normal" in="SourceGraphic" in2="effect3_dropShadow_3781_482524" result="shape"/>
</filter>
<filter id="filter1_b_3781_482524" x="112.4" y="35.2" width="39.1992" height="48.8" filterUnits="userSpaceOnUse" color-interpolation-filters="sRGB">
<feFlood flood-opacity="0" result="BackgroundImageFix"/>
<feGaussianBlur in="BackgroundImage" stdDeviation="2"/>
<feComposite in2="SourceAlpha" operator="in" result="effect1_backgroundBlur_3781_482524"/>
<feBlend mode="normal" in="SourceGraphic" in2="effect1_backgroundBlur_3781_482524" result="shape"/>
</filter>
<linearGradient id="paint0_linear_3781_482524" x1="156" y1="42.7999" x2="125.844" y2="65.997" gradientUnits="userSpaceOnUse">
<stop stop-color="#FF6A00"/>
<stop offset="1" stop-color="#EE0979"/>
</linearGradient>
<linearGradient id="paint1_linear_3781_482524" x1="156" y1="42.7999" x2="125.844" y2="65.997" gradientUnits="userSpaceOnUse">
<stop stop-color="#FF6A00"/>
<stop offset="1" stop-color="#EE0979"/>
</linearGradient>
<linearGradient id="paint2_linear_3781_482524" x1="132" y1="42.7999" x2="101.844" y2="65.997" gradientUnits="userSpaceOnUse">
<stop stop-color="#FF6A00"/>
<stop offset="1" stop-color="#EE0979"/>
</linearGradient>
<linearGradient id="paint3_linear_3781_482524" x1="132" y1="42.7999" x2="101.844" y2="65.997" gradientUnits="userSpaceOnUse">
<stop stop-color="#FF6A00"/>
<stop offset="1" stop-color="#EE0979"/>
</linearGradient>
</defs>
</svg>
