<svg xmlns="http://www.w3.org/2000/svg" width="41" height="40" fill="none" xmlns:v="https://vecta.io/nano"><g clip-path="url(#D)"><path d="M31.606 40H8.894A8.65 8.65 0 0 1 .25 31.358V8.642C.24 3.871 4.112 0 8.894 0h22.711a8.65 8.65 0 0 1 8.644 8.642v22.706A8.65 8.65 0 0 1 31.606 40z" fill="url(#B)"/><path d="M6.404 12.683L30 7.039c.814-.193 1.638.343 1.839 1.21l2.367 10.151c.201.867-.296 1.724-1.109 1.917L9.5 25.961c-.814.193-1.638-.343-1.839-1.21L5.295 14.599c-.201-.867.296-1.724 1.11-1.917z" fill="#fff"/><g filter="url(#A)"><path d="M7.915 15h26.671c.922 0 1.664.844 1.664 1.883v12.23c0 1.039-.742 1.883-1.664 1.883H7.915c-.922 0-1.664-.844-1.664-1.883v-12.23C6.242 15.844 6.992 15 7.915 15z" fill="#8dfca1" fill-opacity=".3" shape-rendering="crispEdges"/></g><path d="M21.125 29.121a6.28 6.28 0 0 0 6.279-6.279 6.28 6.28 0 0 0-6.279-6.279 6.28 6.28 0 0 0-6.279 6.279 6.28 6.28 0 0 0 6.279 6.279z" fill="#fff"/><path d="M21.869 22.152c-.61-.141-1.025-.282-1.22-.389-.094-.047-.154-.107-.194-.174s-.06-.154-.06-.275c0-.168.067-.288.201-.375.141-.094.355-.148.663-.148.509 0 .771.141.844.355a.39.39 0 0 0 .161.208c.074.047.154.06.241.06h.007l.563-.027c.161 0 .288-.101.362-.221.074-.127.094-.288.04-.449a1.51 1.51 0 0 0-.543-.791c-.241-.181-.556-.302-.925-.369v-.677c0-.261-.168-.496-.429-.496h-.469c-.261 0-.429.235-.429.496v.65c-.422.067-.791.241-1.045.496-.395.355-.596.811-.596 1.347 0 .476.148.898.449 1.226.302.335.791.563 1.434.737h.007a6.69 6.69 0 0 1 .771.208c.201.067.335.134.402.194a.62.62 0 0 1 .168.208c.034.08.06.181.06.308 0 .275-.08.462-.228.583-.154.121-.395.194-.751.194-.302 0-.543-.06-.724-.174s-.315-.275-.402-.496c-.08-.235-.288-.382-.529-.348l-.516.054h-.007c-.255.04-.402.302-.315.556.134.469.355.838.663 1.112.295.255.663.422 1.112.503v.563c0 .261.168.496.429.496h.469c.261 0 .429-.235.429-.496v-.57a2.97 2.97 0 0 0 1.012-.449c.496-.362.744-.871.744-1.521a1.8 1.8 0 0 0-.422-1.34c-.322-.362-.818-.596-1.427-.771z" fill="url(#C)"/></g><defs><filter id="A" x="2.25" y="11" width="38" height="23.996" filterUnits="userSpaceOnUse" color-interpolation-filters="sRGB"><feFlood flood-opacity="0"/><feGaussianBlur in="BackgroundImage" stdDeviation="2"/><feComposite in2="SourceAlpha" operator="in" result="B"/><feColorMatrix in="SourceAlpha" values="0 0 0 0 0 0 0 0 0 0 0 0 0 0 0 0 0 0 127 0" result="C"/><feOffset dy="1"/><feGaussianBlur stdDeviation="1.5"/><feComposite in2="C" operator="out"/><feColorMatrix values="0 0 0 0 0.0862745 0 0 0 0 0.52549 0 0 0 0 0.0117647 0 0 0 0.5 0"/><feBlend in2="B"/><feBlend in="SourceGraphic" result="E"/><feColorMatrix in="SourceAlpha" values="0 0 0 0 0 0 0 0 0 0 0 0 0 0 0 0 0 0 127 0" result="C"/><feOffset dy="2"/><feGaussianBlur stdDeviation="1"/><feComposite in2="C" operator="arithmetic" k2="-1" k3="1"/><feColorMatrix values="0 0 0 0 1 0 0 0 0 1 0 0 0 0 1 0 0 0 0.35 0"/><feBlend in2="E"/></filter><linearGradient id="B" x1=".242" y1="19.999" x2="40.254" y2="19.999" gradientUnits="userSpaceOnUse"><stop stop-color="#47bf33"/><stop offset="1" stop-color="#9cffac"/></linearGradient><linearGradient id="C" x1="17.583" y1="28.757" x2="25.81" y2="27.83" gradientUnits="userSpaceOnUse"><stop stop-color="#47bf33"/><stop offset="1" stop-color="#9cffac"/></linearGradient><clipPath id="D"><path fill="#fff" transform="translate(.25)" d="M0 0h40v40H0z"/></clipPath></defs></svg>