<svg width="33" height="32" viewBox="0 0 33 32" fill="none" xmlns="http://www.w3.org/2000/svg">
<rect x="0.5" y="0.5" width="32" height="31" rx="3.5" fill="white" stroke="#DDDDDD"/>
<path d="M5.63477 4.80005V27.2H27.8758V17.0041V4.80005H5.63477Z" fill="#006FCF"/>
<mask id="mask0_5488_5857" style="mask-type:alpha" maskUnits="userSpaceOnUse" x="5" y="11" width="23" height="10">
<path d="M5.63477 11.7483V20.919H27.8828V11.7483H5.63477Z" fill="white"/>
</mask>
<g mask="url(#mask0_5488_5857)">
<path d="M25.1518 15.6584H26.8227V11.7483H25.0395V12.3776L24.6463 11.7483H23.0948V12.5402L22.7438 11.7483H20.1743C20.0479 11.7483 19.9285 11.7554 19.8162 11.7766C19.7179 11.7907 19.6196 11.8119 19.5284 11.8473C19.4582 11.8685 19.3809 11.8968 19.3177 11.9321C19.2405 11.9675 19.1633 12.0099 19.0861 12.0594V11.918V11.7483H10.6966L10.4649 12.4341L10.2332 11.7483H8.28852V12.5473L7.93749 11.7483H6.34384L5.63477 13.417V15.3119V15.6584H6.76507L6.97568 15.0998H7.37585L7.58647 15.6584H16.2568V15.0857L16.6921 15.6584H19.0861V15.5311V15.3685C19.1493 15.4109 19.2124 15.4463 19.2756 15.4746C19.3388 15.5028 19.409 15.5311 19.4792 15.5523C19.5635 15.5806 19.6477 15.6018 19.732 15.616C19.8724 15.6443 20.0058 15.6513 20.1391 15.6513H21.5713L21.7819 15.0927H22.1821L22.3927 15.6513H24.7937V15.0715L25.1518 15.6584ZM27.8758 20.6786V17.0089H27.6792H14.0804L13.7294 17.5109L13.3784 17.0089H9.4118V20.919H13.3644L13.7084 20.4099L14.0664 20.919H16.5376V20.0776H16.5166C16.8255 20.0776 17.1063 20.021 17.352 19.9291V20.919H19.0791V20.3533L19.5143 20.919H26.9982C27.2158 20.919 27.4124 20.8836 27.5949 20.8129C27.6932 20.7776 27.7915 20.7352 27.8758 20.6786Z" fill="white"/>
<mask id="mask1_5488_5857" style="mask-type:alpha" maskUnits="userSpaceOnUse" x="10" y="17" width="18" height="4">
<path d="M27.8977 20.2843V17.647H10.0234V20.2843H27.8977Z" fill="white"/>
</mask>
<g mask="url(#mask1_5488_5857)">
<path d="M27.0131 19.7548H25.6651V20.2851H26.992C27.5607 20.2851 27.8977 19.9386 27.8977 19.4437C27.8977 18.9699 27.5958 18.6942 27.0833 18.6942H26.4795C26.3321 18.6942 26.2268 18.5952 26.2268 18.4396C26.2268 18.2841 26.3321 18.178 26.4795 18.178H27.6168L27.8485 17.6406H26.4936C25.9249 17.6406 25.5879 17.9871 25.5879 18.4608C25.5879 18.9487 25.9038 19.2245 26.4023 19.2245H27.0061C27.1535 19.2245 27.2658 19.3235 27.2658 19.479C27.2728 19.6487 27.1605 19.7548 27.0131 19.7548ZM24.5208 19.7548H23.1799V20.2851H24.5068C25.0754 20.2851 25.4124 19.9386 25.4124 19.4437C25.4124 18.9699 25.1105 18.6942 24.598 18.6942H23.9802C23.8328 18.6942 23.7275 18.5952 23.7275 18.4396C23.7275 18.2841 23.8328 18.178 23.9802 18.178H25.1175L25.3492 17.6406H23.9943C23.4256 17.6406 23.0886 17.9871 23.0886 18.4608C23.0886 18.9487 23.4045 19.2245 23.903 19.2245H24.5068C24.6542 19.2245 24.7665 19.3235 24.7665 19.479C24.7735 19.6487 24.6682 19.7548 24.5208 19.7548ZM22.7938 18.178V17.6406H20.6946V20.278H22.7938V19.7477H21.3265V19.2174H22.7586V18.6871H21.3265V18.1709H22.7938V18.178ZM19.2835 18.1851C19.5082 18.1851 19.6275 18.3336 19.6275 18.5103C19.6275 18.6942 19.5082 18.8356 19.2835 18.8356H18.5463V18.1851H19.2835ZM18.5463 19.3305H18.8412L19.6205 20.278H20.3998L19.5292 19.3022C19.9715 19.2174 20.2383 18.8921 20.2383 18.475C20.2383 17.98 19.8873 17.6406 19.3326 17.6406H17.9075V20.278H18.5393V19.3305H18.5463ZM16.9386 18.5315C16.9386 18.7083 16.8263 18.8568 16.6087 18.8568H15.8575V18.2063H16.6087C16.8263 18.2063 16.9386 18.3477 16.9386 18.5315ZM15.2256 17.6477V20.2851H15.8575V19.4154H16.6508C17.2265 19.4154 17.5775 19.0406 17.5775 18.5315C17.5775 18.0083 17.2265 17.6477 16.6719 17.6477H15.2256ZM14.2989 20.2851H15.0852L14.0322 18.9558L15.0782 17.6477H14.313L13.6671 18.482L13.0282 17.6477H12.2489L13.295 18.9699L12.2489 20.2921H13.0142L13.6601 19.4437L14.2989 20.2851ZM12.1226 18.178V17.6406H10.0234V20.278H12.1226V19.7477H10.6553V19.2174H12.0875V18.6871H10.6553V18.1709H12.1226V18.178Z" fill="#006FCF"/>
</g>
<path d="M24.2828 13.4454L24.2758 13.2262L24.4092 13.4454L25.4131 15.0221H26.1503V12.3848H25.5395V13.912L25.5465 14.11L25.4272 13.912L24.4443 12.3848H23.672V15.0221H24.2828V13.4454ZM21.7765 13.3676L21.9661 12.8726L22.1556 13.3676L22.3873 13.9545H21.5448L21.7765 13.3676ZM22.8155 15.0221H23.5246L22.4084 12.3848H21.5799L20.4567 15.0221H21.1236L21.3412 14.4565H22.5909L22.8155 15.0221ZM20.0705 15.0221H20.1056L20.3654 14.4636H20.1758C19.7476 14.4636 19.4878 14.1949 19.4878 13.7211V13.6858C19.4878 13.2686 19.7195 12.9575 20.1688 12.9575H20.8498V12.3848H20.1126C19.3053 12.3848 18.863 12.9292 18.863 13.6787V13.7211C18.863 14.513 19.3123 15.0221 20.0705 15.0221ZM17.838 15.0221H18.4698V13.8625V12.3848H17.838V13.8484V15.0221ZM16.5181 12.9221C16.7428 12.9221 16.8622 13.0706 16.8622 13.2474C16.8622 13.4312 16.7428 13.5726 16.5181 13.5726H15.781V12.9221H16.5181ZM15.781 14.0747H16.0759L16.8551 15.0221H17.6414L16.7709 14.0464C17.2132 13.9615 17.48 13.6363 17.48 13.2191C17.48 12.7242 17.1289 12.3848 16.5743 12.3848H15.1491V15.0221H15.781V14.0747ZM14.6858 12.9221V12.3848H12.5937V15.0221H14.6928V14.4848H13.2185V13.9615H14.6507V13.4312H13.2185V12.9151H14.6858V12.9221ZM9.47657 13.2191L9.46253 12.505L10.1856 15.0221H10.7543L11.4774 12.5191L11.4634 13.212V15.0151H12.0742V12.3848H10.9649L10.4665 14.2514L9.96801 12.3848H8.86579V15.0221H9.47657V13.2191ZM6.97025 13.3676L7.1598 12.8726L7.34935 13.3676L7.58103 13.9545H6.73857L6.97025 13.3676ZM8.00928 15.0221H8.71836L7.59507 12.3848H6.77367L5.65039 15.0221H6.31734L6.53498 14.4565H7.78463L8.00928 15.0221Z" fill="#006FCF"/>
</g>
</svg>
