<svg xmlns="http://www.w3.org/2000/svg" width="40" height="26" fill="none" xmlns:v="https://vecta.io/nano"><path d="M.5 4A3.5 3.5 0 0 1 4 .5h32A3.5 3.5 0 0 1 39.5 4v18a3.5 3.5 0 0 1-3.5 3.5H4A3.5 3.5 0 0 1 .5 22V4z" fill="#016fd0" stroke="#e1e1e1"/><path d="M7.785 20v-6.06h6.439l.691.897.714-.897H39v5.642s-.611.412-1.318.418H24.74l-.779-.955V20h-2.552v-1.63s-.349.228-1.102.228h-.869V20h-3.864l-.69-.917-.7.917H7.785zM1 9.373L2.421 6h2.457l.806 1.889V6h3.055l.48 1.366L9.685 6h13.712v.687S24.118 6 25.303 6l4.449.016.793 1.865V6h2.556l.704 1.071V6h2.58v6.06h-2.58l-.674-1.075v1.075h-3.756l-.378-.955h-1.01l-.371.955h-2.547c-1.019 0-1.671-.672-1.671-.672v.672h-3.84l-.762-.955v.955H4.514l-.377-.955H3.13l-.375.955H1V9.373z" fill="#fff"/><g fill="#016fd0"><path d="M2.924 6.747l-1.917 4.537h1.248l.354-.909h2.056l.352.909h1.275L4.377 6.747H2.924zm.709 1.056L4.26 9.39H3.005l.628-1.588zm2.791 3.481V6.746l1.773.007 1.031 2.925 1.007-2.932h1.759v4.537H10.88V7.94l-1.181 3.343h-.977L7.538 7.94v3.343H6.424zm6.332 0V6.746h3.635v1.015h-2.509v.776h2.451v.955h-2.451v.806h2.509v.985h-3.635zm4.279-4.537v4.537h1.114V9.672h.469l1.336 1.612h1.361L19.85 9.612c.602-.052 1.222-.577 1.222-1.394 0-.955-.736-1.472-1.557-1.472h-2.479zm1.114 1.015h1.273c.306 0 .528.243.528.478 0 .301-.288.478-.511.478h-1.29v-.955zm4.516 3.521h-1.137V6.746h1.137v4.537zm2.697 0h-.245c-1.188 0-1.909-.953-1.909-2.25 0-1.329.713-2.287 2.213-2.287h1.231v1.075h-1.276c-.609 0-1.04.484-1.04 1.224 0 .879.492 1.248 1.202 1.248h.293l-.469.991zm2.424-4.536l-1.917 4.537h1.248l.354-.909h2.056l.352.909h1.275l-1.915-4.537h-1.453zm.709 1.056l.627 1.588h-1.255l.628-1.588zm2.788 3.481V6.746H32.7l1.809 2.851V6.746h1.114v4.537h-1.371l-1.854-2.925v2.925h-1.114zm-22.162 7.94v-4.537h3.635v1.015h-2.509v.776h2.451v.955h-2.451v.806h2.509v.985H9.121zm17.813 0v-4.537h3.635v1.015H28.06v.776h2.439v.955H28.06v.806h2.509v.985h-3.635zm-14.036 0l1.77-2.241-1.812-2.297h1.404l1.079 1.42 1.083-1.42h1.349l-1.788 2.269 1.773 2.269h-1.403l-1.048-1.397-1.022 1.397H12.9zm4.989-4.537v4.537h1.143v-1.433h1.173c.992 0 1.744-.536 1.744-1.578 0-.864-.59-1.526-1.6-1.526h-2.461zm1.143 1.026h1.235c.32 0 .55.2.55.522 0 .303-.228.522-.553.522H19.03v-1.045zm3.4-1.026v4.537h1.114v-1.612h.469l1.336 1.612h1.361l-1.466-1.672c.602-.052 1.222-.578 1.222-1.394 0-.955-.736-1.472-1.557-1.472H22.43zm1.114 1.015h1.273c.305 0 .528.243.528.478 0 .302-.288.478-.511.478h-1.29v-.955z"/><path d="M31.085 19.224v-.985h2.23c.33 0 .473-.181.473-.381 0-.191-.142-.384-.473-.384h-1.008c-.876 0-1.363-.543-1.363-1.359 0-.728.447-1.429 1.748-1.429h2.169l-.469 1.021h-1.876c-.359 0-.469.192-.469.375a.39.39 0 0 0 .41.396h1.055c.976 0 1.4.564 1.4 1.302 0 .794-.472 1.444-1.453 1.444h-2.374z"/><path d="M35.173 19.224v-.985h2.23c.33 0 .473-.181.473-.381 0-.191-.142-.384-.473-.384h-1.008c-.876 0-1.364-.543-1.364-1.359 0-.728.447-1.429 1.748-1.429h2.169l-.469 1.021h-1.876c-.359 0-.469.192-.469.375a.39.39 0 0 0 .41.396H37.6c.976 0 1.4.564 1.4 1.302 0 .794-.472 1.444-1.453 1.444h-2.374z"/></g></svg>