<svg xmlns="http://www.w3.org/2000/svg" width="33" height="32" fill="none" xmlns:v="https://vecta.io/nano"><rect x=".5" y=".5" width="32" height="31" rx="3.5" fill="#fff" stroke="#ddd"/><path d="M5.635 4.8v22.4h22.241V17.004 4.8H5.635z" fill="#006fcf"/><mask id="A" maskUnits="userSpaceOnUse" x="5" y="11" width="23" height="10" mask-type="alpha"><path d="M5.635 11.748v9.171h22.248v-9.171H5.635z" fill="#fff"/></mask><g mask="url(#A)"><path d="M25.152 15.658h1.671v-3.91H25.04v.629l-.393-.629h-1.552v.792l-.351-.792h-2.57c-.126 0-.246.007-.358.028-.098.014-.197.035-.288.071a1.1 1.1 0 0 0-.211.085c-.077.035-.154.078-.232.127v-.141-.17h-8.389l-.232.686-.232-.686H8.289v.799l-.351-.799H6.344l-.709 1.669v1.895.347h1.13l.211-.559h.4l.211.559h8.67v-.573l.435.573h2.394v-.127-.163a1.28 1.28 0 0 0 .19.106c.063.028.133.056.204.078a1.66 1.66 0 0 0 .253.064c.14.028.274.035.407.035h1.432l.211-.559h.4l.211.559h2.401v-.58l.358.587zm2.724 5.02v-3.67h-.197H14.08l-.351.502-.351-.502H9.412v3.91h3.953l.344-.509.358.509h2.471v-.841h-.021a2.38 2.38 0 0 0 .835-.149v.99h1.727v-.566l.435.566h7.484a1.63 1.63 0 0 0 .597-.106c.098-.035.197-.078.281-.134z" fill="#fff"/><mask id="B" maskUnits="userSpaceOnUse" x="10" y="17" width="18" height="4" mask-type="alpha"><path d="M27.898 20.284v-2.637H10.023v2.637h17.874z" fill="#fff"/></mask><g mask="url(#B)"><path d="M27.013 19.755h-1.348v.53h1.327c.569 0 .906-.346.906-.841 0-.474-.302-.75-.814-.75h-.604a.24.24 0 0 1-.253-.255c0-.155.105-.262.253-.262h1.137l.232-.537h-1.355c-.569 0-.906.347-.906.82 0 .488.316.764.814.764h.604c.147 0 .26.099.26.255.007.17-.105.276-.253.276zm-2.492 0H23.18v.53h1.327c.569 0 .906-.346.906-.841 0-.474-.302-.75-.814-.75h-.618a.24.24 0 0 1-.253-.255c0-.155.105-.262.253-.262h1.137l.232-.537h-1.355c-.569 0-.906.347-.906.82 0 .488.316.764.814.764h.604c.147 0 .26.099.26.255.007.17-.098.276-.246.276zm-1.727-1.577v-.537h-2.099v2.637h2.099v-.53h-1.467v-.53h1.432v-.53h-1.432v-.516h1.467v.007zm-3.51.007c.225 0 .344.149.344.325 0 .184-.119.325-.344.325h-.737v-.651h.737zm-.737 1.145h.295l.779.947h.779l-.871-.976c.442-.085.709-.41.709-.827 0-.495-.351-.834-.906-.834h-1.425v2.637h.632v-.947h.007zm-1.608-.799c0 .177-.112.325-.33.325h-.751v-.651h.751c.218 0 .33.141.33.325zm-1.713-.884v2.637h.632v-.87h.793c.576 0 .927-.375.927-.884 0-.523-.351-.884-.906-.884h-1.446zm-.927 2.637h.786l-1.053-1.329 1.046-1.308h-.765l-.646.834-.639-.834h-.779l1.046 1.322-1.046 1.322h.765l.646-.848.639.841zm-2.176-2.107v-.537h-2.099v2.637h2.099v-.53h-1.467v-.53h1.432v-.53h-1.432v-.516h1.467v.007z" fill="#006fcf"/></g><path d="M24.283 13.445l-.007-.219.133.219 1.004 1.577h.737v-2.637h-.611v1.527l.007.198-.119-.198-.983-1.527h-.772v2.637h.611v-1.577zm-2.506-.078l.19-.495.189.495.232.587h-.843l.232-.587zm1.039 1.655h.709l-1.116-2.637h-.829l-1.123 2.637h.667l.218-.566h1.25l.225.566zm-2.745 0h.035l.26-.559h-.19c-.428 0-.688-.269-.688-.742v-.035c0-.417.232-.728.681-.728h.681v-.573h-.737c-.807 0-1.25.544-1.25 1.294v.042c0 .792.449 1.301 1.207 1.301zm-2.232 0h.632v-1.16-1.478h-.632v1.464 1.174zm-1.32-2.1c.225 0 .344.149.344.325 0 .184-.119.325-.344.325h-.737v-.65h.737zm-.737 1.153h.295l.779.947h.786l-.87-.976c.442-.085.709-.41.709-.827 0-.495-.351-.834-.906-.834h-1.425v2.637h.632v-.947zm-1.095-1.153v-.537h-2.092v2.637h2.099v-.537h-1.474v-.523h1.432v-.53h-1.432v-.516h1.467v.007zm-5.209.297l-.014-.714.723 2.517h.569l.723-2.503-.014.693v1.803h.611v-2.63h-1.109l-.498 1.867-.498-1.867H8.866v2.637h.611v-1.803zm-2.506.149l.19-.495.19.495.232.587h-.842l.232-.587zm1.039 1.655h.709l-1.123-2.637h-.821L5.65 15.022h.667l.218-.566h1.25l.225.566z" fill="#006fcf"/></g></svg>