<svg xmlns="http://www.w3.org/2000/svg" width="41" height="40" fill="none" xmlns:v="https://vecta.io/nano"><g clip-path="url(#D)"><path d="M32.106 40H9.394A8.65 8.65 0 0 1 .75 31.358V8.642A8.65 8.65 0 0 1 9.394 0h22.711a8.65 8.65 0 0 1 8.644 8.642v22.706C40.76 36.129 36.888 40 32.106 40z" fill="url(#C)"/><g fill="#fff"><path d="M34.09 14.85l-8.81-2.35c-1.26-.35-2.48.66-2.48 2.01v18.38h10.8c1.09 0 1.99-.93 1.99-2.08V16.86c-.01-.94-.64-1.77-1.5-2.01z"/><path fill-rule="evenodd" d="M20.87 7.75c-.43-.34-.97-.46-1.49-.43L7.82 9.11c-.89.19-1.52.96-1.65 1.89v19.65c0 1.23 1 2.23 2.23 2.23h.81 1.28 6.74 3.17 1.1v-1.11-7.98V9.21a1.95 1.95 0 0 0-.63-1.46zm-3.4 9.34h-1.69c-.42 0-.84-.33-.84-.78 0-.42.39-.78.84-.78h1.69c.49 0 .84.36.84.78s-.38.78-.84.78zm.85 2.33c0 .42-.39.78-.84.78h-1.69c-.42 0-.84-.39-.84-.78 0-.42.39-.78.84-.78h1.69c.45 0 .84.36.84.78zm-2.53-6.99h1.69c.45 0 .84.36.84.78s-.39.78-.84.78h-1.69c-.42 0-.84-.36-.84-.78s.38-.78.84-.78zm-5.58 0h1.69c.45 0 .84.36.84.78s-.39.78-.84.78h-1.69c-.45 0-.84-.36-.84-.78s.39-.78.84-.78zm0 3.1h1.69c.45 0 .84.36.84.78s-.39.78-.84.78h-1.69c-.45 0-.84-.33-.84-.78 0-.42.39-.78.84-.78zm0 3.11h1.69c.45 0 .84.36.84.78s-.39.78-.84.78h-1.69c-.45 0-.84-.39-.84-.78 0-.42.39-.78.84-.78z"/><path d="M25.83 25.66c.03-.24.02-.48 0-.7l.86-.65c.17-.12.21-.35.1-.54l-.89-1.56c-.1-.18-.33-.27-.51-.19l-1.01.38c-.18-.13-.38-.25-.61-.36l-.16-1.09a.44.44 0 0 0-.42-.36l-1.79-.04c-.21-.01-.39.14-.42.34l-.15 1.07c-.12.05-.22.1-.31.15l-.3.18-1.01-.43c-.19-.08-.41-.01-.51.17l-.89 1.52c-.1.16-.08.39.1.54l.86.69c-.02.24-.03.47 0 .7l-.86.65c-.16.12-.21.35-.1.54l.9 1.57c.1.18.33.27.51.19l1-.37a3.27 3.27 0 0 0 .61.36l.16 1.09c.01.05.03.1.05.15.08.13.22.21.36.21l1.79.04c.21-.01.38-.15.41-.36l.15-1.05.31-.15.3-.18 1.01.43c.19.08.41.01.52-.17l.89-1.52c.1-.16.07-.39-.1-.54l-.85-.71zm-2.33 1.68c-1.15.64-2.62.21-3.29-.95-.67-1.17-.27-2.62.88-3.26s2.62-.21 3.29.95c.66 1.16.27 2.62-.88 3.26z"/></g><g filter="url(#A)"><path d="M22.75 34a7 7 0 1 0 0-14 7 7 0 1 0 0 14z" fill="#ffbf94" fill-opacity=".4"/></g><g filter="url(#B)"><path d="M26.336 27.605a3.22 3.22 0 0 0 0-.71l.874-.657c.172-.127.217-.359.105-.545l-.911-1.591a.43.43 0 0 0-.523-.194l-1.023.389c-.187-.134-.389-.254-.62-.366l-.157-1.106c-.03-.202-.224-.366-.426-.366l-1.815-.045c-.209-.008-.396.142-.426.351l-.149 1.091a2.45 2.45 0 0 0-.314.157l-.299.187-1.031-.433c-.194-.075-.411-.008-.523.179l-.911 1.547c-.105.164-.082.403.097.553l.874.702a3.22 3.22 0 0 0 0 .71l-.874.657c-.164.12-.217.359-.105.545l.911 1.591a.43.43 0 0 0 .523.194l1.016-.381a3.57 3.57 0 0 0 .62.366l.157 1.106a.51.51 0 0 0 .052.149.44.44 0 0 0 .366.217l1.823.045c.209-.008.389-.157.418-.366l.149-1.091c.097-.045.209-.09.314-.157.112-.06.209-.127.299-.187l1.031.433a.44.44 0 0 0 .53-.172l.911-1.547c.105-.164.075-.403-.097-.553l-.867-.702zm-2.361 1.711c-1.173.65-2.667.217-3.339-.964-.672-1.188-.276-2.667.889-3.317 1.173-.65 2.667-.217 3.339.964s.276 2.667-.889 3.317z" fill="#fff"/></g></g><defs><filter id="A" x="11.75" y="16" width="22" height="22" filterUnits="userSpaceOnUse" color-interpolation-filters="sRGB"><feFlood flood-opacity="0"/><feGaussianBlur in="BackgroundImage" stdDeviation="2"/><feComposite in2="SourceAlpha" operator="in"/><feBlend in="SourceGraphic" result="C"/><feColorMatrix in="SourceAlpha" values="0 0 0 0 0 0 0 0 0 0 0 0 0 0 0 0 0 0 127 0" result="D"/><feOffset dy="2"/><feGaussianBlur stdDeviation="1.5"/><feComposite in2="D" operator="arithmetic" k2="-1" k3="1"/><feColorMatrix values="0 0 0 0 1 0 0 0 0 1 0 0 0 0 1 0 0 0 0.45 0"/><feBlend in2="C"/></filter><filter id="B" x="16.118" y="22.413" width="13.258" height="13.533" filterUnits="userSpaceOnUse" color-interpolation-filters="sRGB"><feFlood flood-opacity="0" result="A"/><feColorMatrix in="SourceAlpha" values="0 0 0 0 0 0 0 0 0 0 0 0 0 0 0 0 0 0 127 0" result="B"/><feOffset dy="2"/><feGaussianBlur stdDeviation="1"/><feComposite in2="B" operator="out"/><feColorMatrix values="0 0 0 0 1 0 0 0 0 0.4 0 0 0 0 0 0 0 0 0.2 0"/><feBlend in2="A"/><feBlend in="SourceGraphic"/></filter><linearGradient id="C" x1="40.75" y1="0" x2=".75" y2="40" gradientUnits="userSpaceOnUse"><stop stop-color="#ff6a00"/><stop offset="1" stop-color="#ee0979"/></linearGradient><clipPath id="D"><path fill="#fff" transform="translate(.75)" d="M0 0h40v40H0z"/></clipPath></defs></svg>