<svg xmlns="http://www.w3.org/2000/svg" width="41" height="40" fill="none" xmlns:v="https://vecta.io/nano"><path d="M36.861 36H14.665c-2.001 0-3.639-1.575-3.639-3.501V3.501C11.026 1.575 12.664 0 14.665 0h22.196C38.863 0 40.5 1.575 40.5 3.501v28.998c0 1.984-1.638 3.501-3.639 3.501z" fill="url(#C)"/><g filter="url(#A)"><path d="M34.317 10.265L32.2 17.47l-7.199.115-3.327 7.723-5.384.692" stroke="#fff" stroke-width="2" stroke-linecap="round" stroke-linejoin="round"/><path d="M35.587 6c-1.331 1.729-3.327 3.746-5.203 4.899l3.811-.288 3.146 2.017c-.968-1.844-1.573-4.553-1.754-6.628z" fill="#fff"/></g><g filter="url(#B)"><path d="M4.306 20h26.072c2.093 0 3.806 1.552 3.806 3.448v13.103c0 1.897-1.713 3.448-3.806 3.448H4.306C2.213 40 .5 38.448.5 36.552V23.448C.5 21.552 2.213 20 4.306 20z" fill="#88dbf5" fill-opacity=".3"/></g><defs><filter id="A" x="12.289" y="5" width="28.053" height="27" filterUnits="userSpaceOnUse" color-interpolation-filters="sRGB"><feFlood flood-opacity="0" result="A"/><feColorMatrix in="SourceAlpha" values="0 0 0 0 0 0 0 0 0 0 0 0 0 0 0 0 0 0 127 0"/><feOffset dy="2"/><feGaussianBlur stdDeviation="1.5"/><feColorMatrix values="0 0 0 0 0 0 0 0 0 0.160784 0 0 0 0 0.52549 0 0 0 0.45 0"/><feBlend in2="A"/><feBlend in="SourceGraphic"/></filter><filter id="B" x="-1.5" y="18" width="37.685" height="24" filterUnits="userSpaceOnUse" color-interpolation-filters="sRGB"><feFlood flood-opacity="0"/><feGaussianBlur in="BackgroundImage" stdDeviation="1"/><feComposite in2="SourceAlpha" operator="in"/><feBlend in="SourceGraphic" result="C"/><feColorMatrix in="SourceAlpha" values="0 0 0 0 0 0 0 0 0 0 0 0 0 0 0 0 0 0 127 0" result="D"/><feOffset dy="2"/><feGaussianBlur stdDeviation="1"/><feComposite in2="D" operator="arithmetic" k2="-1" k3="1"/><feColorMatrix values="0 0 0 0 1 0 0 0 0 1 0 0 0 0 1 0 0 0 0.45 0"/><feBlend in2="C"/></filter><linearGradient id="C" x1="32.462" y1="2.5" x2="3.208" y2="35.587" gradientUnits="userSpaceOnUse"><stop stop-color="#00c6ff"/><stop offset="1" stop-color="#0072ff"/></linearGradient></defs></svg>