<svg xmlns="http://www.w3.org/2000/svg" xmlns:xlink="http://www.w3.org/1999/xlink" width="40" height="26" fill="none" xmlns:v="https://vecta.io/nano"><rect width="40" height="26" rx="3" fill="#f8f8f8"/><mask id="A" maskUnits="userSpaceOnUse" x="0" y="0" width="40" height="26" mask-type="alpha"><rect width="40" height="26" rx="3" fill="#f9f9f9"/></mask><g mask="url(#A)"><path d="M11.563 26h27.125c.719 0 1.313-.603 1.313-1.333v-9.331C37.406 17.018 27.594 22.794 11.563 26z" fill="#f58220"/></g><path d="M6.178 10.54H4.801v4.886h1.37c.729 0 1.255-.175 1.716-.564.549-.461.873-1.156.873-1.876 0-1.442-1.061-2.446-2.582-2.446zm1.096 3.67c-.295.27-.678.388-1.284.388h-.252v-3.231h.252c.606 0 .974.11 1.284.395.325.293.52.748.52 1.216s-.195.938-.52 1.231zm2.856-3.67h-.938v4.886h.938V10.54zm2.295 1.874c-.563-.212-.728-.351-.728-.615 0-.308.295-.541.699-.541.281 0 .512.117.757.396l.491-.653c-.403-.358-.886-.542-1.413-.542-.851 0-1.5.6-1.5 1.4 0 .673.302 1.018 1.184 1.34.367.132.554.219.649.278.188.124.281.3.281.505 0 .396-.31.689-.729.689-.447 0-.808-.227-1.024-.652l-.606.593c.432.645.951.93 1.665.93.975 0 1.659-.659 1.659-1.604 0-.776-.316-1.128-1.384-1.524zm1.681.572c0 1.436 1.11 2.55 2.539 2.55.404 0 .75-.081 1.177-.285v-1.122c-.375.381-.707.535-1.133.535-.945 0-1.616-.696-1.616-1.685 0-.938.692-1.678 1.572-1.678.448 0 .786.162 1.177.55V10.73c-.412-.212-.751-.3-1.154-.3a2.55 2.55 0 0 0-2.561 2.557zm11.155.836l-1.283-3.282h-1.025l2.042 5.011h.505l2.078-5.011h-1.017l-1.3 3.282zM28 15.426h2.661v-.827h-1.724V13.28h1.66v-.828h-1.66v-1.084h1.724v-.828H28v4.886zm6.379-3.444c0-.915-.62-1.442-1.703-1.442h-1.391v4.886h.937v-1.963h.122l1.299 1.963h1.154l-1.514-2.058c.707-.146 1.096-.637 1.096-1.385zm-1.882.807h-.274v-1.48h.289c.584 0 .902.249.902.724 0 .491-.318.756-.917.756z" fill="#231f20"/><use xlink:href="#D" fill="url(#B)"/><use xlink:href="#D" opacity=".65" fill="url(#C)"/><g fill="#231f20"><path d="M34.976 10.724c0-.086-.058-.132-.16-.132h-.136v.429h.101v-.167l.118.167h.123l-.139-.177c.06-.016.093-.06.093-.12zm-.178.059h-.017v-.112h.018c.05 0 .076.018.076.055s-.026.057-.077.057z"/><path d="M34.837 10.43a.37.37 0 0 0-.368.374.37.37 0 0 0 .368.374.37.37 0 0 0 .364-.374c0-.205-.164-.374-.364-.374zm-.002.682c-.162 0-.294-.137-.294-.307s.13-.308.294-.308.292.14.292.308-.131.307-.292.307z"/></g><defs><linearGradient id="B" x1="21.996" y1="15.083" x2="20.185" y2="12.291" gradientUnits="userSpaceOnUse"><stop stop-color="#f89f21"/><stop offset=".25" stop-color="#f79a23"/><stop offset=".533" stop-color="#f78e22"/><stop offset=".62" stop-color="#f68721"/><stop offset=".723" stop-color="#f48220"/><stop offset="1" stop-color="#f27623"/></linearGradient><linearGradient id="C" x1="21.716" y1="15.045" x2="19.062" y2="9.937" gradientUnits="userSpaceOnUse"><stop stop-color="#f68721" stop-opacity="0"/><stop offset=".359" stop-color="#e27027" stop-opacity=".27"/><stop offset=".703" stop-color="#d4612c" stop-opacity=".53"/><stop offset=".982" stop-color="#d15d2d" stop-opacity=".74"/></linearGradient><path id="D" d="M20.686 15.599c1.413 0 2.559-1.164 2.559-2.599s-1.146-2.599-2.559-2.599-2.559 1.164-2.559 2.599 1.146 2.599 2.559 2.599z"/></defs></svg>