<svg xmlns="http://www.w3.org/2000/svg" width="19" height="20" fill="#383839" xmlns:v="https://vecta.io/nano"><path d="M14.692 7.64v.291l-.004 10.809c-.001.19-.028.394-.103.566-.228.514-.843.686-1.343.389l-2.21-1.34a.53.53 0 0 0-.659-.002l-2.41 1.453a1.06 1.06 0 0 1-1.227-.004l-2.481-1.496a.41.41 0 0 0-.494.005l-2.305 1.384c-.585.343-1.267.07-1.425-.563a1.28 1.28 0 0 1-.028-.31V2.63A2.59 2.59 0 0 1 2.638.002h13.105c1.479.001 2.622 1.137 2.629 2.612v3.381a1.58 1.58 0 0 1-1.645 1.644l-2.036.001zm-1.335 10.554v-.291l-.003-15.125c-.001-.485.032-.957.246-1.402.003-.007-.01-.022-.019-.041h-.205-10.64c-.891 0-1.398.505-1.399 1.392v15.229.251l1.761-1.064a1.6 1.6 0 0 1 1.806-.006l2.299 1.393c.11.067.186.069.297.002l2.284-1.377c.621-.382 1.229-.372 1.844.007l1.518.914.21.117zm1.335-11.89l2.072-.001c.175-.001.271-.097.271-.274l-.009-3.543c-.012-.656-.628-1.175-1.296-1.149-.559.022-1.06.498-1.046 1.195l.007 3.543v.228zM6.865 5.045l2.587.001c.451.001.743.263.745.662s-.298.672-.74.673c-1.738.002-3.477.002-5.215-.001-.387-.001-.664-.238-.713-.595a.66.66 0 0 1 .462-.707c.091-.027.191-.031.288-.031l2.587-.002zM6.85 9.948c-.876 0-1.752.004-2.628-.002-.478-.004-.79-.399-.671-.835a.62.62 0 0 1 .501-.475 1.44 1.44 0 0 1 .29-.023l5.048.001c.124 0 .254.007.37.043.297.093.473.402.432.726a.64.64 0 0 1-.588.555l-.771.008H6.85zm.001 3.658c-.876 0-1.752.004-2.628-.002-.542-.004-.87-.541-.612-.993.122-.215.313-.338.562-.339l5.382.001c.365.001.641.298.642.659.002.378-.281.669-.676.672l-2.524.002h-.146z"/></svg>