<svg width="70" height="80" viewBox="0 0 70 80" fill="none" xmlns="http://www.w3.org/2000/svg">
<g filter="url(#filter0_d_3776_482508)">
<path d="M10 16C10 11.5817 13.5817 8 18 8H70V68H18C13.5817 68 10 64.4183 10 60V16Z" fill="url(#paint0_linear_3776_482508)"/>
</g>
<path d="M50.3019 26.0001H29.6964C28.0289 26.0001 26.7188 27.3102 26.7188 28.9777V44.2234C26.7188 45.8909 28.0289 47.201 29.6964 47.201H41.7262L42.7982 49.4641C43.1555 50.1787 44.1083 50.1787 44.4656 49.4641L45.5376 47.201H50.3019C51.9694 47.201 53.2795 45.8909 53.2795 44.2234V28.9777C53.2795 27.3102 51.9694 26.0001 50.3019 26.0001Z" fill="white"/>
<path d="M45.5379 37.6473C42.5313 41.3396 37.4675 41.3396 34.4609 37.6473" stroke="url(#paint1_linear_3776_482508)" stroke-width="2" stroke-linecap="round" stroke-linejoin="round"/>
<defs>
<filter id="filter0_d_3776_482508" x="0" y="0" width="80" height="80" filterUnits="userSpaceOnUse" color-interpolation-filters="sRGB">
<feFlood flood-opacity="0" result="BackgroundImageFix"/>
<feColorMatrix in="SourceAlpha" type="matrix" values="0 0 0 0 0 0 0 0 0 0 0 0 0 0 0 0 0 0 127 0" result="hardAlpha"/>
<feOffset dy="2"/>
<feGaussianBlur stdDeviation="5"/>
<feColorMatrix type="matrix" values="0 0 0 0 0 0 0 0 0 0 0 0 0 0 0 0 0 0 0.15 0"/>
<feBlend mode="normal" in2="BackgroundImageFix" result="effect1_dropShadow_3776_482508"/>
<feBlend mode="normal" in="SourceGraphic" in2="effect1_dropShadow_3776_482508" result="shape"/>
</filter>
<linearGradient id="paint0_linear_3776_482508" x1="70" y1="8" x2="10" y2="68" gradientUnits="userSpaceOnUse">
<stop stop-color="#FF6A00"/>
<stop offset="1" stop-color="#EE0979"/>
</linearGradient>
<linearGradient id="paint1_linear_3776_482508" x1="45.5379" y1="37.6473" x2="44.2347" y2="42.86" gradientUnits="userSpaceOnUse">
<stop stop-color="#FF6A00"/>
<stop offset="1" stop-color="#EE0979"/>
</linearGradient>
</defs>
</svg>
