<svg xmlns="http://www.w3.org/2000/svg" width="118" height="32" fill="none" opacity=".6" xmlns:v="https://vecta.io/nano"><path d="M47.665 0H15.914v31.962h31.751V0z" fill="#fff"/><g fill="#db0011"><path d="M63.539 16.019L47.664 0v32l15.875-15.981z"/><path d="M31.789 16.019L47.665 0H15.914l15.875 16.019z"/><path d="M0 16.019L15.913 32V0L0 16.019z"/><path d="M31.789 16.019L15.914 32h31.751L31.789 16.019z"/></g><g fill="#000"><path d="M77.471 16.959h-5.752v5.716h-2.876V9.288h2.876v5.49h5.752v-5.49h2.876v13.387h-2.876v-5.716zm9.823 5.978c-2.876 0-5.23-1.166-5.267-4.362h2.876c.037 1.429.859 2.294 2.428 2.294 1.158 0 2.503-.602 2.503-1.918 0-1.053-.896-1.354-2.391-1.805l-.971-.263c-2.092-.602-4.184-1.429-4.184-3.836 0-2.971 2.764-3.986 5.267-3.986 2.577 0 4.819.902 4.856 3.873h-2.876c-.112-1.203-.822-1.918-2.166-1.918-1.083 0-2.129.564-2.129 1.767 0 .978.897 1.278 2.764 1.88l1.121.338c2.279.715 3.735 1.504 3.735 3.76-.037 3.008-2.951 4.174-5.566 4.174zm7.173-13.612h4.632a12.21 12.21 0 0 1 2.614.15c1.607.376 2.839 1.429 2.839 3.234 0 1.73-1.083 2.595-2.652 3.008 1.793.338 3.138 1.241 3.138 3.234 0 3.046-2.988 3.723-5.304 3.723h-5.23l-.037-13.349zm4.632 5.565c1.27 0 2.577-.263 2.577-1.805 0-1.391-1.195-1.767-2.391-1.767h-2.017v3.572h1.83zm.261 5.791c1.345 0 2.652-.301 2.652-1.955s-1.12-1.955-2.502-1.955h-2.279v3.911h2.129zm13.149 2.257c-4.295 0-6.2-2.745-6.2-6.844s2.129-7.069 6.35-7.069c2.652 0 5.229 1.203 5.304 4.212h-2.988c-.15-1.354-1.046-2.031-2.316-2.031-2.615 0-3.399 2.82-3.399 4.964s.784 4.625 3.287 4.625c1.307 0 2.278-.715 2.465-2.068H118c-.299 3.084-2.727 4.212-5.491 4.212z"/></g></svg>