<svg width="26" height="15" viewBox="0 0 26 15" fill="none" xmlns="http://www.w3.org/2000/svg">
<path d="M16.5146 13.3971H9.48242V1.60425H16.5146V13.3971Z" fill="#FF5F00"/>
<path d="M9.93377 7.5C9.93377 5.10776 11.1341 2.97683 13.0033 1.60357C11.6364 0.59937 9.91128 4.00123e-07 8.03644 4.00123e-07C3.59792 4.00123e-07 0 3.35781 0 7.5C0 11.6422 3.59792 15 8.03644 15C9.91128 15 11.6364 14.4006 13.0033 13.3964C11.1341 12.0232 9.93377 9.89224 9.93377 7.5Z" fill="#EB001B"/>
<path d="M25.9999 7.5C25.9999 11.6422 22.402 15 17.9635 15C16.0886 15 14.3635 14.4006 12.9961 13.3964C14.8658 12.0232 16.0662 9.89224 16.0662 7.5C16.0662 5.10776 14.8658 2.97683 12.9961 1.60357C14.3635 0.59937 16.0886 4.00123e-07 17.9635 4.00123e-07C22.402 4.00123e-07 25.9999 3.35781 25.9999 7.5Z" fill="#F79E1B"/>
</svg>
