<svg xmlns="http://www.w3.org/2000/svg" width="58" height="32" fill="none" xmlns:v="https://vecta.io/nano"><rect x=".5" y=".5" width="57" height="31" rx="3.5" fill="#fff" stroke="#ddd"/><path d="M20.663 26.285v-1.377c.023-.459-.293-.849-.743-.872h-.113c-.293-.023-.585.138-.765.39-.157-.252-.428-.413-.72-.39-.248-.023-.495.115-.63.321v-.276h-.45v2.204h.473v-1.217a.5.5 0 0 1 .428-.574h.09c.315 0 .473.207.473.574v1.217h.473v-1.217a.5.5 0 0 1 .428-.574h.09c.315 0 .473.207.473.574v1.217h.495zm7-2.181h-.765v-.666h-.473v.666h-.428v.436h.428v1.01c0 .505.203.803.743.803.203 0 .405-.069.585-.161l-.135-.413c-.135.069-.27.115-.405.115-.225 0-.315-.138-.315-.367v-1.01h.765v-.413zm3.984-.069a.64.64 0 0 0-.563.321v-.276h-.473v2.204h.473v-1.24c0-.367.157-.574.45-.574a1.29 1.29 0 0 1 .293.046l.135-.459c-.09 0-.203-.023-.315-.023zm-6.032.23c-.27-.161-.563-.23-.878-.23-.54 0-.9.276-.9.712 0 .367.27.574.743.643l.225.023c.248.046.383.115.383.229 0 .161-.18.276-.495.276-.248 0-.518-.069-.72-.23l-.225.367c.27.184.608.298.923.275.63 0 .99-.298.99-.712s-.293-.597-.743-.666l-.225-.023c-.203-.023-.36-.069-.36-.207s.158-.252.405-.252.473.069.675.184l.203-.39zm12.536-.23a.64.64 0 0 0-.563.321v-.276h-.473v2.204h.473v-1.24c0-.367.158-.574.45-.574a1.29 1.29 0 0 1 .293.046l.135-.459c-.09 0-.203-.023-.315-.023zm-6.032 1.148c-.023.62.45 1.125 1.035 1.148h.113c.27.023.563-.069.765-.252l-.225-.39c-.158.115-.36.184-.563.207-.383-.023-.653-.367-.63-.758.023-.344.293-.62.63-.643.203 0 .405.069.563.207l.225-.39c-.225-.184-.495-.276-.765-.253-.608-.046-1.103.436-1.148 1.033v.092zm4.389 0v-1.102h-.473v.276c-.157-.207-.405-.321-.675-.321-.63 0-1.125.505-1.125 1.148s.495 1.148 1.125 1.148c.27 0 .518-.115.675-.321v.276h.473v-1.102zm-1.756 0a.66.66 0 0 1 .698-.62c.36.023.63.344.608.712a.65.65 0 0 1-.653.62.64.64 0 0 1-.653-.643v-.069zm-5.649-1.148c-.63 0-1.125.528-1.103 1.171s.518 1.148 1.148 1.125a1.3 1.3 0 0 0 .9-.298l-.225-.344c-.18.138-.405.23-.63.23a.62.62 0 0 1-.653-.528h1.598v-.184c0-.712-.428-1.171-1.035-1.171zm0 .436c.293 0 .54.229.54.528h-1.125c.023-.299.293-.551.585-.528zm11.726.712v-1.974h-.45v1.148c-.157-.207-.405-.321-.675-.321-.63 0-1.125.505-1.125 1.148s.495 1.148 1.125 1.148c.27 0 .518-.115.675-.321v.276h.45v-1.102zm.788.781c.023 0 .068 0 .09.023.023 0 .045.023.067.046s.045.046.045.069a.2.2 0 0 1 0 .161c-.023.023-.023.046-.045.069s-.045.046-.067.046c-.023.023-.045.023-.09.023-.09 0-.158-.046-.203-.138a.2.2 0 0 1 0-.161c.023-.023.023-.046.045-.069s.045-.046.067-.046c.045-.023.068-.023.09-.023zm0 .39c.023 0 .045 0 .068-.023.023 0 .045-.023.045-.046.067-.069.067-.161 0-.23l-.045-.046c-.023 0-.045-.023-.068-.023s-.045 0-.068.023c-.023 0-.045.023-.045.046-.067.069-.067.161 0 .23.023.023.045.023.045.046.023.023.045.023.068.023zm.023-.275c.023 0 .045 0 .068.023s.023.023.023.046 0 .023-.023.046-.023.023-.045.023l.068.069h-.045l-.068-.069h-.023v.069h-.045v-.207h.09zm-.045.046v.046h.045.023v-.023-.023h-.023-.045zm-2.476-.941a.66.66 0 0 1 .698-.62c.36.023.63.344.608.712a.65.65 0 0 1-.653.62.64.64 0 0 1-.653-.643c-.023-.023 0-.046 0-.069zm-15.822 0v-1.102h-.473v.276c-.157-.207-.405-.321-.675-.321-.63 0-1.125.505-1.125 1.148s.495 1.148 1.125 1.148c.27 0 .518-.115.675-.321v.276h.473v-1.102zm-1.733 0a.66.66 0 0 1 .698-.62c.36.023.63.344.608.712a.65.65 0 0 1-.653.62.64.64 0 0 1-.653-.643v-.069z" fill="#231f20"/><path d="M32.547 7.37h-7.09v12.993h7.09V7.37z" fill="#ff5f00"/><path d="M25.908 13.866c0-2.525 1.148-4.935 3.106-6.496-3.533-2.824-8.62-2.204-11.388 1.4s-2.161 8.769 1.373 11.593c2.948 2.364 7.067 2.364 10.015 0-1.958-1.561-3.106-3.948-3.106-6.496z" fill="#eb001b"/><path d="M42.114 13.866c0 4.568-3.624 8.264-8.102 8.264a7.92 7.92 0 0 1-4.996-1.768c3.511-2.823 4.119-8.011 1.35-11.593a7.98 7.98 0 0 0-1.373-1.4c3.511-2.824 8.62-2.204 11.388 1.4 1.125 1.446 1.733 3.237 1.733 5.096zm-.765 5.119v-.276h.113v-.046h-.27v.046h.112v.276h.045zm.518 0v-.321h-.09l-.09.23-.09-.23h-.067v.321h.067v-.23l.09.207h.068l.09-.207v.252l.023-.023z" fill="#f79e1b"/></svg>