<svg xmlns="http://www.w3.org/2000/svg" width="26" height="15" fill="none" xmlns:v="https://vecta.io/nano"><path d="M16.515 13.397H9.482V1.604h7.032v11.793z" fill="#ff5f00"/><path d="M9.934 7.5c0-2.392 1.2-4.523 3.07-5.896C11.636.599 9.911 0 8.036 0 3.598 0 0 3.358 0 7.5S3.598 15 8.036 15c1.875 0 3.6-.599 4.967-1.604-1.869-1.373-3.07-3.504-3.07-5.896z" fill="#eb001b"/><path d="M26 7.5c0 4.142-3.598 7.5-8.036 7.5-1.875 0-3.6-.599-4.967-1.604 1.87-1.373 3.07-3.504 3.07-5.896s-1.2-4.523-3.07-5.896C14.364.599 16.089 0 17.964 0 22.402 0 26 3.358 26 7.5z" fill="#f79e1b"/></svg>