<svg xmlns="http://www.w3.org/2000/svg" width="44" height="38" fill="none" xmlns:v="https://vecta.io/nano"><path d="M42 29.502H2c.121-.311.303-14.557.486-14.743h.061L21.059.327a1.43 1.43 0 0 1 1.821 0l18.513 14.37.061.062.061.062.061.062.121.124.061.062c.061.062-1.335 14.868-1.335 14.93s1.517-14.619 1.517-14.619C42 15.443 42 29.502 42 29.502z" fill="#ff996c"/><path d="M40 38H16.92C9.77 38 4 32.301 4 25.239V5.726C4 4.177 5.254 3 6.76 3H37.24C38.808 3 40 4.239 40 5.726V38c-.063 0 0 0 0 0z" fill="#ffbf94" fill-opacity=".2"/><path d="M21.783 26.577c-.06.061-.12.121-.239.182L3.554 38h-.06C2.68 38 2 37.284 2 36.481V15.458C2 14.385 2.809 14 3.793 14l1.554.972 14.583 9.175.538.365 1.016.668c.06.061.119.061.239.182.359.304.359.851.06 1.215z" fill="url(#C)"/><path d="M42 15.519v21.023c0 .079-.171.5-.298.775-.038.083-.049.121-.107.121 0 0-.043.056-.103.116-.014 0-.302-.127-.492-.054-.243.092-.144.5-.398.5h-.211L22.507 26.82c-.06-.061-.119-.061-.238-.182a.89.89 0 0 1 0-1.276c.06-.061.119-.121.238-.182l1.013-.668.537-.365 14.546-9.114L40.152 14c.692 0 1.848.734 1.848 1.519z" fill="url(#C)"/><g filter="url(#A)"><path d="M42 36.254v.241c0 .843-.666 1.505-1.513 1.505H3.513C2.666 38 2 37.338 2 36.495v-.241l19.062-11.983c.545-.361 1.331-.361 1.936 0L42 36.254z" fill="url(#D)"/></g><g filter="url(#B)"><path d="M23.867 8.61c-.593-.427-1.304-.61-2.015-.61C19.719 8 18 9.77 18 11.906c0 2.197 3.852 8.789 3.852 8.789.119.244.178.305.178.305S26 14.347 26 12.15c-.119-1.465-.948-2.869-2.133-3.54zm-2.074 5.127c-.415 0-.77-.183-1.067-.427-.237-.305-.415-.732-.415-1.16 0-.976.77-1.77 1.778-1.77.415 0 .77.183 1.067.427.237.305.415.732.415 1.16-.059.977-.83 1.77-1.778 1.77z" fill="#fff"/></g><defs><filter id="A" x="0" y="20" width="44" height="18" filterUnits="userSpaceOnUse" color-interpolation-filters="sRGB"><feFlood flood-opacity="0" result="A"/><feColorMatrix in="SourceAlpha" values="0 0 0 0 0 0 0 0 0 0 0 0 0 0 0 0 0 0 127 0"/><feOffset dy="-2"/><feGaussianBlur stdDeviation="1"/><feColorMatrix values="0 0 0 0 0 0 0 0 0 0 0 0 0 0 0 0 0 0 0.15 0"/><feBlend in2="A"/><feBlend in="SourceGraphic"/></filter><filter id="B" x="15" y="6" width="14" height="19" filterUnits="userSpaceOnUse" color-interpolation-filters="sRGB"><feFlood flood-opacity="0" result="A"/><feColorMatrix in="SourceAlpha" values="0 0 0 0 0 0 0 0 0 0 0 0 0 0 0 0 0 0 127 0"/><feOffset dy="1"/><feGaussianBlur stdDeviation="1.5"/><feColorMatrix values="0 0 0 0 0.975 0 0 0 0 0.298837 0 0 0 0 0.0853125 0 0 0 0.3 0"/><feBlend in2="A"/><feBlend in="SourceGraphic"/></filter><linearGradient id="C" x1="42" y1="14" x2="20.824" y2="49.294" gradientUnits="userSpaceOnUse"><stop stop-color="#ff6a00"/><stop offset="1" stop-color="#ee0979"/></linearGradient><linearGradient id="D" x1="42" y1="24" x2="33.27" y2="48.944" gradientUnits="userSpaceOnUse"><stop stop-color="#ff6a00"/><stop offset="1" stop-color="#ee0979"/></linearGradient></defs></svg>