<svg xmlns="http://www.w3.org/2000/svg" width="40" height="26" fill="none" xmlns:v="https://vecta.io/nano"><path d="M.5 4A3.5 3.5 0 0 1 4 .5h32A3.5 3.5 0 0 1 39.5 4v18a3.5 3.5 0 0 1-3.5 3.5H4A3.5 3.5 0 0 1 .5 22V4z" stroke="#e1e1e1"/><g fill-rule="evenodd"><path d="M16.546 21.873l.327-2.037-.729-.017h-3.48l2.419-15.028c.008-.045.032-.088.068-.118a.2.2 0 0 1 .129-.047h5.868c1.948 0 3.292.397 3.994 1.181.329.368.539.752.64 1.175.106.444.108.974.004 1.621l-.008.047v.414l.329.183c.277.144.497.309.666.498.282.315.463.714.541 1.188.079.487.053 1.067-.077 1.724-.15.755-.393 1.413-.721 1.951-.302.496-.686.907-1.142 1.226-.435.303-.953.533-1.538.68-.567.145-1.213.218-1.922.218h-.457a1.4 1.4 0 0 0-.893.322c-.25.211-.415.499-.465.814l-.034.183-.578 3.59-.026.132c-.007.042-.019.063-.036.077s-.038.021-.06.021h-2.82z" fill="#253b80"/><path d="M26.418 8.7l-.06.337c-.774 3.894-3.421 5.239-6.803 5.239h-1.722a.83.83 0 0 0-.826.694l-.881 5.478-.25 1.553c-.042.262.165.499.435.499h3.053a.73.73 0 0 0 .726-.607l.03-.152.575-3.575.037-.196a.73.73 0 0 1 .726-.608h.457c2.958 0 5.274-1.177 5.951-4.583.283-1.423.136-2.611-.612-3.447-.227-.252-.507-.461-.836-.631z" fill="#179bd7"/><path d="M25.609 8.384l-.365-.092-.387-.072c-.464-.074-.973-.109-1.518-.109h-4.599a.74.74 0 0 0-.317.071.72.72 0 0 0-.408.538l-.978 6.073-.028.177a.83.83 0 0 1 .826-.694h1.722c3.381 0 6.029-1.346 6.803-5.239l.06-.337a4.17 4.17 0 0 0-.636-.263l-.173-.053z" fill="#222d65"/><path d="M18.422 8.183c.097-.045.204-.07.317-.07h4.599c.545 0 1.053.035 1.518.109l.387.072.365.092.174.053c.228.074.44.162.636.263.23-1.439-.002-2.418-.796-3.306C24.748 4.418 23.169 4 21.147 4h-5.868c-.413 0-.765.294-.829.695l-2.444 15.182c-.048.3.188.571.497.571h3.623l.91-5.655.978-6.073a.72.72 0 0 1 .408-.537z" fill="#253b80"/></g></svg>