<svg xmlns="http://www.w3.org/2000/svg" width="26" height="32" fill="none" xmlns:v="https://vecta.io/nano"><path d="M23.593 8.191c.421-2.512 0-4.15-1.263-5.679C20.856.873 18.33.109 14.962.109H5.384C4.753 0 4.121.546 4.016 1.201l-4 26.321c-.105.546.316.983.842.983h5.894l-.421 2.621c0 .546.316.874.737.874h4.947c.631 0 1.053-.437 1.158-1.092v-.218l.947-6.225.105-.328c.105-.655.632-1.092 1.158-1.092h.737c4.842 0 8.631-2.075 9.683-7.973.421-2.512.21-4.478-1.053-6.007-.105-.218-.631-.655-1.158-.874z" fill="#139ad6"/><path d="M23.593 8.191c.421-2.512 0-4.15-1.263-5.679C20.856.873 18.33.109 14.962.109H5.384C4.753 0 4.121.546 4.016 1.201l-4 26.321c-.105.546.316.983.842.983h5.894l1.474-9.829v.328c.105-.655.632-1.201 1.368-1.201h2.842c5.578 0 9.894-2.293 11.157-9.065-.105-.218 0-.437 0-.546z" fill="#232c65"/><path d="M9.805 8.191c.105-.437.421-.765.737-.983.105-.109.316-.109.526-.109h7.473c.842 0 1.684.109 2.526.218.21 0 .421.109.631.109s.421.109.631.109c0 .109.105.109.21.109.421.109.737.328 1.053.437.421-2.512 0-4.15-1.263-5.679C20.856.765 18.33 0 14.962 0H5.384c-.632 0-1.263.546-1.368 1.201l-4 26.321c-.105.546.316.983.842.983h5.894l1.474-9.829L9.805 8.191z" fill="#263b80"/></svg>