<svg width="264" height="146" viewBox="0 0 264 146" fill="none" xmlns="http://www.w3.org/2000/svg">
<g filter="url(#filter0_ddd_3781_482522)">
<path d="M24 36C24 27.1634 31.1634 20 40 20H224C232.837 20 240 27.1634 240 36V102C240 110.837 232.837 118 224 118H40C31.1634 118 24 110.837 24 102V36Z" fill="white"/>
<path d="M91.7031 99V99.625C91.7031 100.484 91.5911 101.255 91.3672 101.938C91.1432 102.62 90.8229 103.201 90.4062 103.68C89.9948 104.159 89.5 104.526 88.9219 104.781C88.3438 105.031 87.7031 105.156 87 105.156C86.3021 105.156 85.6641 105.031 85.0859 104.781C84.513 104.526 84.0156 104.159 83.5938 103.68C83.1719 103.201 82.8438 102.62 82.6094 101.938C82.3802 101.255 82.2656 100.484 82.2656 99.625V99C82.2656 98.1406 82.3802 97.3724 82.6094 96.6953C82.8385 96.013 83.1615 95.4323 83.5781 94.9531C84 94.4688 84.4974 94.1016 85.0703 93.8516C85.6484 93.5964 86.2865 93.4688 86.9844 93.4688C87.6875 93.4688 88.3281 93.5964 88.9062 93.8516C89.4844 94.1016 89.9818 94.4688 90.3984 94.9531C90.8151 95.4323 91.1354 96.013 91.3594 96.6953C91.5885 97.3724 91.7031 98.1406 91.7031 99ZM89.7422 99.625V98.9844C89.7422 98.349 89.6797 97.7891 89.5547 97.3047C89.4349 96.8151 89.2552 96.4062 89.0156 96.0781C88.7812 95.7448 88.4922 95.4948 88.1484 95.3281C87.8047 95.1562 87.4167 95.0703 86.9844 95.0703C86.5521 95.0703 86.1667 95.1562 85.8281 95.3281C85.4896 95.4948 85.2005 95.7448 84.9609 96.0781C84.7266 96.4062 84.5469 96.8151 84.4219 97.3047C84.2969 97.7891 84.2344 98.349 84.2344 98.9844V99.625C84.2344 100.26 84.2969 100.823 84.4219 101.312C84.5469 101.802 84.7292 102.216 84.9688 102.555C85.2135 102.888 85.5052 103.141 85.8438 103.312C86.1823 103.479 86.5677 103.562 87 103.562C87.4375 103.562 87.8255 103.479 88.1641 103.312C88.5026 103.141 88.7891 102.888 89.0234 102.555C89.2578 102.216 89.4349 101.802 89.5547 101.312C89.6797 100.823 89.7422 100.26 89.7422 99.625ZM95.3672 98.1719V108.25H93.4844V96.5469H95.2188L95.3672 98.1719ZM100.875 100.695V100.859C100.875 101.474 100.802 102.044 100.656 102.57C100.516 103.091 100.305 103.547 100.023 103.938C99.7474 104.323 99.4062 104.622 99 104.836C98.5938 105.049 98.125 105.156 97.5938 105.156C97.0677 105.156 96.6068 105.06 96.2109 104.867C95.8203 104.669 95.4896 104.391 95.2188 104.031C94.9479 103.672 94.7292 103.25 94.5625 102.766C94.401 102.276 94.2865 101.74 94.2188 101.156V100.523C94.2865 99.9036 94.401 99.3411 94.5625 98.8359C94.7292 98.3307 94.9479 97.8958 95.2188 97.5312C95.4896 97.1667 95.8203 96.8854 96.2109 96.6875C96.6016 96.4896 97.0573 96.3906 97.5781 96.3906C98.1094 96.3906 98.5807 96.4948 98.9922 96.7031C99.4036 96.9062 99.75 97.1979 100.031 97.5781C100.312 97.9531 100.523 98.4062 100.664 98.9375C100.805 99.4635 100.875 100.049 100.875 100.695ZM98.9922 100.859V100.695C98.9922 100.305 98.9557 99.9427 98.8828 99.6094C98.8099 99.2708 98.6953 98.974 98.5391 98.7188C98.3828 98.4635 98.1823 98.2656 97.9375 98.125C97.6979 97.9792 97.4089 97.9062 97.0703 97.9062C96.737 97.9062 96.4505 97.9635 96.2109 98.0781C95.9714 98.1875 95.7708 98.3411 95.6094 98.5391C95.4479 98.737 95.3229 98.9688 95.2344 99.2344C95.1458 99.4948 95.0833 99.7786 95.0469 100.086V101.602C95.1094 101.977 95.2161 102.32 95.3672 102.633C95.5182 102.945 95.7318 103.195 96.0078 103.383C96.2891 103.565 96.6484 103.656 97.0859 103.656C97.4245 103.656 97.7135 103.583 97.9531 103.438C98.1927 103.292 98.388 103.091 98.5391 102.836C98.6953 102.576 98.8099 102.276 98.8828 101.938C98.9557 101.599 98.9922 101.24 98.9922 100.859ZM106.203 105.156C105.578 105.156 105.013 105.055 104.508 104.852C104.008 104.643 103.581 104.354 103.227 103.984C102.878 103.615 102.609 103.18 102.422 102.68C102.234 102.18 102.141 101.641 102.141 101.062V100.75C102.141 100.089 102.237 99.4896 102.43 98.9531C102.622 98.4167 102.891 97.9583 103.234 97.5781C103.578 97.1927 103.984 96.8984 104.453 96.6953C104.922 96.4922 105.43 96.3906 105.977 96.3906C106.581 96.3906 107.109 96.4922 107.562 96.6953C108.016 96.8984 108.391 97.1849 108.688 97.5547C108.99 97.9193 109.214 98.3542 109.359 98.8594C109.51 99.3646 109.586 99.9219 109.586 100.531V101.336H103.055V99.9844H107.727V99.8359C107.716 99.4974 107.648 99.1797 107.523 98.8828C107.404 98.5859 107.219 98.3464 106.969 98.1641C106.719 97.9818 106.385 97.8906 105.969 97.8906C105.656 97.8906 105.378 97.9583 105.133 98.0938C104.893 98.224 104.693 98.4141 104.531 98.6641C104.37 98.9141 104.245 99.2161 104.156 99.5703C104.073 99.9193 104.031 100.312 104.031 100.75V101.062C104.031 101.432 104.081 101.776 104.18 102.094C104.284 102.406 104.435 102.68 104.633 102.914C104.831 103.148 105.07 103.333 105.352 103.469C105.633 103.599 105.953 103.664 106.312 103.664C106.766 103.664 107.169 103.573 107.523 103.391C107.878 103.208 108.185 102.951 108.445 102.617L109.438 103.578C109.255 103.844 109.018 104.099 108.727 104.344C108.435 104.583 108.078 104.779 107.656 104.93C107.24 105.081 106.755 105.156 106.203 105.156ZM112.922 98.3516V105H111.039V96.5469H112.812L112.922 98.3516ZM112.586 100.461L111.977 100.453C111.982 99.8542 112.065 99.3047 112.227 98.8047C112.393 98.3047 112.622 97.875 112.914 97.5156C113.211 97.1562 113.565 96.8802 113.977 96.6875C114.388 96.4896 114.846 96.3906 115.352 96.3906C115.758 96.3906 116.125 96.4479 116.453 96.5625C116.786 96.6719 117.07 96.8516 117.305 97.1016C117.544 97.3516 117.727 97.6771 117.852 98.0781C117.977 98.474 118.039 98.9609 118.039 99.5391V105H116.148V99.5312C116.148 99.125 116.089 98.8047 115.969 98.5703C115.854 98.3307 115.685 98.1615 115.461 98.0625C115.242 97.9583 114.969 97.9062 114.641 97.9062C114.318 97.9062 114.029 97.974 113.773 98.1094C113.518 98.2448 113.302 98.4297 113.125 98.6641C112.953 98.8984 112.82 99.1693 112.727 99.4766C112.633 99.7839 112.586 100.112 112.586 100.461ZM128.562 95.1406L125.164 105H123.109L127.391 93.625H128.703L128.562 95.1406ZM131.406 105L128 95.1406L127.852 93.625H129.172L133.469 105H131.406ZM131.242 100.781V102.336H125.055V100.781H131.242ZM138.008 103.656C138.315 103.656 138.591 103.596 138.836 103.477C139.086 103.352 139.286 103.18 139.438 102.961C139.594 102.742 139.68 102.49 139.695 102.203H141.469C141.458 102.75 141.297 103.247 140.984 103.695C140.672 104.143 140.258 104.5 139.742 104.766C139.227 105.026 138.656 105.156 138.031 105.156C137.385 105.156 136.823 105.047 136.344 104.828C135.865 104.604 135.466 104.297 135.148 103.906C134.831 103.516 134.591 103.065 134.43 102.555C134.273 102.044 134.195 101.497 134.195 100.914V100.641C134.195 100.057 134.273 99.5104 134.43 99C134.591 98.4844 134.831 98.0312 135.148 97.6406C135.466 97.25 135.865 96.9453 136.344 96.7266C136.823 96.5026 137.383 96.3906 138.023 96.3906C138.701 96.3906 139.294 96.526 139.805 96.7969C140.315 97.0625 140.716 97.4349 141.008 97.9141C141.305 98.388 141.458 98.9401 141.469 99.5703H139.695C139.68 99.2578 139.602 98.9766 139.461 98.7266C139.326 98.4714 139.133 98.2682 138.883 98.1172C138.638 97.9661 138.344 97.8906 138 97.8906C137.62 97.8906 137.305 97.9688 137.055 98.125C136.805 98.276 136.609 98.4844 136.469 98.75C136.328 99.0104 136.227 99.3047 136.164 99.6328C136.107 99.9557 136.078 100.292 136.078 100.641V100.914C136.078 101.263 136.107 101.602 136.164 101.93C136.221 102.258 136.32 102.552 136.461 102.812C136.607 103.068 136.805 103.273 137.055 103.43C137.305 103.581 137.622 103.656 138.008 103.656ZM146.367 103.656C146.674 103.656 146.951 103.596 147.195 103.477C147.445 103.352 147.646 103.18 147.797 102.961C147.953 102.742 148.039 102.49 148.055 102.203H149.828C149.818 102.75 149.656 103.247 149.344 103.695C149.031 104.143 148.617 104.5 148.102 104.766C147.586 105.026 147.016 105.156 146.391 105.156C145.745 105.156 145.182 105.047 144.703 104.828C144.224 104.604 143.826 104.297 143.508 103.906C143.19 103.516 142.951 103.065 142.789 102.555C142.633 102.044 142.555 101.497 142.555 100.914V100.641C142.555 100.057 142.633 99.5104 142.789 99C142.951 98.4844 143.19 98.0312 143.508 97.6406C143.826 97.25 144.224 96.9453 144.703 96.7266C145.182 96.5026 145.742 96.3906 146.383 96.3906C147.06 96.3906 147.654 96.526 148.164 96.7969C148.674 97.0625 149.076 97.4349 149.367 97.9141C149.664 98.388 149.818 98.9401 149.828 99.5703H148.055C148.039 99.2578 147.961 98.9766 147.82 98.7266C147.685 98.4714 147.492 98.2682 147.242 98.1172C146.997 97.9661 146.703 97.8906 146.359 97.8906C145.979 97.8906 145.664 97.9688 145.414 98.125C145.164 98.276 144.969 98.4844 144.828 98.75C144.688 99.0104 144.586 99.3047 144.523 99.6328C144.466 99.9557 144.438 100.292 144.438 100.641V100.914C144.438 101.263 144.466 101.602 144.523 101.93C144.581 102.258 144.68 102.552 144.82 102.812C144.966 103.068 145.164 103.273 145.414 103.43C145.664 103.581 145.982 103.656 146.367 103.656ZM150.914 100.867V100.688C150.914 100.078 151.003 99.513 151.18 98.9922C151.357 98.4661 151.612 98.0104 151.945 97.625C152.284 97.2344 152.695 96.9323 153.18 96.7188C153.669 96.5 154.221 96.3906 154.836 96.3906C155.456 96.3906 156.008 96.5 156.492 96.7188C156.982 96.9323 157.396 97.2344 157.734 97.625C158.073 98.0104 158.331 98.4661 158.508 98.9922C158.685 99.513 158.773 100.078 158.773 100.688V100.867C158.773 101.477 158.685 102.042 158.508 102.562C158.331 103.083 158.073 103.539 157.734 103.93C157.396 104.315 156.984 104.617 156.5 104.836C156.016 105.049 155.466 105.156 154.852 105.156C154.232 105.156 153.677 105.049 153.188 104.836C152.703 104.617 152.292 104.315 151.953 103.93C151.615 103.539 151.357 103.083 151.18 102.562C151.003 102.042 150.914 101.477 150.914 100.867ZM152.797 100.688V100.867C152.797 101.247 152.836 101.607 152.914 101.945C152.992 102.284 153.115 102.581 153.281 102.836C153.448 103.091 153.661 103.292 153.922 103.438C154.182 103.583 154.492 103.656 154.852 103.656C155.201 103.656 155.503 103.583 155.758 103.438C156.018 103.292 156.232 103.091 156.398 102.836C156.565 102.581 156.688 102.284 156.766 101.945C156.849 101.607 156.891 101.247 156.891 100.867V100.688C156.891 100.312 156.849 99.9583 156.766 99.625C156.688 99.2865 156.562 98.987 156.391 98.7266C156.224 98.4661 156.01 98.263 155.75 98.1172C155.495 97.9661 155.19 97.8906 154.836 97.8906C154.482 97.8906 154.174 97.9661 153.914 98.1172C153.659 98.263 153.448 98.4661 153.281 98.7266C153.115 98.987 152.992 99.2865 152.914 99.625C152.836 99.9583 152.797 100.312 152.797 100.688ZM165.438 103.008V96.5469H167.328V105H165.547L165.438 103.008ZM165.703 101.25L166.336 101.234C166.336 101.802 166.273 102.326 166.148 102.805C166.023 103.279 165.831 103.693 165.57 104.047C165.31 104.396 164.977 104.669 164.57 104.867C164.164 105.06 163.677 105.156 163.109 105.156C162.698 105.156 162.32 105.096 161.977 104.977C161.633 104.857 161.336 104.672 161.086 104.422C160.841 104.172 160.651 103.846 160.516 103.445C160.38 103.044 160.312 102.565 160.312 102.008V96.5469H162.195V102.023C162.195 102.331 162.232 102.589 162.305 102.797C162.378 103 162.477 103.164 162.602 103.289C162.727 103.414 162.872 103.503 163.039 103.555C163.206 103.607 163.383 103.633 163.57 103.633C164.107 103.633 164.529 103.529 164.836 103.32C165.148 103.107 165.37 102.82 165.5 102.461C165.635 102.102 165.703 101.698 165.703 101.25ZM171.125 98.3516V105H169.242V96.5469H171.016L171.125 98.3516ZM170.789 100.461L170.18 100.453C170.185 99.8542 170.268 99.3047 170.43 98.8047C170.596 98.3047 170.826 97.875 171.117 97.5156C171.414 97.1562 171.768 96.8802 172.18 96.6875C172.591 96.4896 173.049 96.3906 173.555 96.3906C173.961 96.3906 174.328 96.4479 174.656 96.5625C174.99 96.6719 175.273 96.8516 175.508 97.1016C175.747 97.3516 175.93 97.6771 176.055 98.0781C176.18 98.474 176.242 98.9609 176.242 99.5391V105H174.352V99.5312C174.352 99.125 174.292 98.8047 174.172 98.5703C174.057 98.3307 173.888 98.1615 173.664 98.0625C173.445 97.9583 173.172 97.9062 172.844 97.9062C172.521 97.9062 172.232 97.974 171.977 98.1094C171.721 98.2448 171.505 98.4297 171.328 98.6641C171.156 98.8984 171.023 99.1693 170.93 99.4766C170.836 99.7839 170.789 100.112 170.789 100.461ZM182.039 96.5469V97.9219H177.273V96.5469H182.039ZM178.648 94.4766H180.531V102.664C180.531 102.924 180.568 103.125 180.641 103.266C180.719 103.401 180.826 103.492 180.961 103.539C181.096 103.586 181.255 103.609 181.438 103.609C181.568 103.609 181.693 103.602 181.812 103.586C181.932 103.57 182.029 103.555 182.102 103.539L182.109 104.977C181.953 105.023 181.771 105.065 181.562 105.102C181.359 105.138 181.125 105.156 180.859 105.156C180.427 105.156 180.044 105.081 179.711 104.93C179.378 104.773 179.117 104.521 178.93 104.172C178.742 103.823 178.648 103.359 178.648 102.781V94.4766Z" fill="#383839"/>
<path fill-rule="evenodd" clip-rule="evenodd" d="M140.399 47.6H109.199L121.908 37.7557C122.939 36.9508 125 36.084 127.347 37.7557L140.399 47.6ZM125.393 41.1091C126.016 41.2494 126.496 41.4364 126.783 41.7169C127.071 41.9975 127.239 42.3481 127.191 42.7689C127.191 43.2832 126.951 43.6806 126.472 43.9611C126.136 44.1481 125.776 44.265 125.393 44.3351V44.8728C125.393 45.0598 125.249 45.2 125.057 45.2H124.578C124.386 45.2 124.242 45.0598 124.242 44.8728V44.3351C123.283 44.2182 122.684 43.7975 122.42 43.0494C122.348 42.8858 122.468 42.7221 122.66 42.6988L123.187 42.652C123.379 42.6286 123.547 42.7221 123.619 42.8858C123.811 43.2832 124.218 43.4936 124.865 43.4936C125.609 43.4936 125.968 43.2598 125.968 42.7689C125.968 42.5351 125.872 42.3949 125.705 42.278C125.537 42.1611 125.105 42.0442 124.458 41.9273C123.811 41.7871 123.331 41.6 123.043 41.3429C122.756 41.0858 122.612 40.7585 122.612 40.3845C122.612 39.9637 122.804 39.613 123.187 39.3325C123.451 39.1221 123.835 38.9819 124.29 38.9351V38.3273C124.29 38.1403 124.434 38 124.626 38H125.105C125.297 38 125.441 38.1403 125.441 38.3273V38.9585C126.256 39.052 126.759 39.3559 126.951 39.8702C127.047 40.0806 126.879 40.3143 126.64 40.3143L126.064 40.3377C125.92 40.3377 125.8 40.291 125.753 40.1741C125.657 39.9403 125.321 39.8234 124.794 39.8234C124.146 39.8234 123.811 40.0104 123.811 40.3377C123.811 40.5481 123.907 40.6884 124.122 40.7819C124.338 40.8754 124.77 40.9923 125.393 41.1091Z" fill="url(#paint0_linear_3781_482522)"/>
<path d="M118.877 66.8329V50H112.877V69.2H116.586L118.877 66.8329Z" fill="url(#paint1_linear_3781_482522)"/>
<path d="M122.09 50H128.09V69.2H122.09V50Z" fill="url(#paint2_linear_3781_482522)"/>
<path d="M132.615 69.2L130.761 66.8329V50H136.761V69.2H132.615Z" fill="url(#paint3_linear_3781_482522)"/>
<path d="M140.486 47H109.114C108.528 47 108 47.4131 108 47.8852V49.7148C108 50.1869 108.528 50.6 109.114 50.6H140.486C141.072 50.6 141.6 50.1869 141.6 49.7148V47.8852C141.6 47.4131 141.072 47 140.486 47Z" fill="url(#paint4_linear_3781_482522)"/>
<path d="M140.486 66.8H109.114C108.528 66.8 108 67.4667 108 68.3152V71.2848C108 72.0727 108.528 72.8 109.114 72.8H140.486C141.072 72.8 141.6 72.1333 141.6 71.2848V68.3152C141.6 67.4667 141.072 66.8 140.486 66.8Z" fill="url(#paint5_linear_3781_482522)"/>
<path d="M140.486 47H109.114C108.528 47 108 47.4131 108 47.8852V49.7148C108 50.1869 108.528 50.6 109.114 50.6H140.486C141.072 50.6 141.6 50.1869 141.6 49.7148V47.8852C141.6 47.4131 141.072 47 140.486 47Z" stroke="white" stroke-width="0.5" stroke-miterlimit="10"/>
<path d="M140.486 66.8H109.114C108.528 66.8 108 67.4667 108 68.3152V71.2848C108 72.0727 108.528 72.8 109.114 72.8H140.486C141.072 72.8 141.6 72.1333 141.6 71.2848V68.3152C141.6 67.4667 141.072 66.8 140.486 66.8Z" stroke="white" stroke-width="0.5" stroke-miterlimit="10"/>
<g filter="url(#filter1_bi_3781_482522)">
<circle cx="142.8" cy="66.8001" r="13.2" fill="#8DFCA1" fill-opacity="0.3"/>
</g>
<g filter="url(#filter2_d_3781_482522)">
<path d="M144.291 73.3728L144.303 59.2066C144.304 58.5373 143.802 58.0358 143.188 58.0921L142.408 58.0928C141.738 58.0934 141.236 58.5958 141.291 59.2092L141.279 73.3755C141.278 74.0447 141.78 74.5462 142.393 74.4899L143.174 74.4892C143.843 74.4887 144.346 73.9863 144.291 73.3728Z" fill="white"/>
<path d="M149.931 64.8347L135.709 64.7914C135.04 64.7919 134.537 65.2943 134.593 65.9078L134.592 66.6886C134.591 67.3579 135.093 67.8594 135.706 67.8031L149.873 67.7907C150.542 67.7901 151.044 67.2877 150.989 66.6742L151.046 65.9491C151.046 65.2799 150.545 64.7784 149.931 64.8347Z" fill="white"/>
</g>
</g>
<defs>
<filter id="filter0_ddd_3781_482522" x="0" y="0" width="264" height="146" filterUnits="userSpaceOnUse" color-interpolation-filters="sRGB">
<feFlood flood-opacity="0" result="BackgroundImageFix"/>
<feColorMatrix in="SourceAlpha" type="matrix" values="0 0 0 0 0 0 0 0 0 0 0 0 0 0 0 0 0 0 127 0" result="hardAlpha"/>
<feOffset dy="0.266004"/>
<feGaussianBlur stdDeviation="0.798012"/>
<feColorMatrix type="matrix" values="0 0 0 0 0.678431 0 0 0 0 0.666667 0 0 0 0 0.666667 0 0 0 0.0646228 0"/>
<feBlend mode="normal" in2="BackgroundImageFix" result="effect1_dropShadow_3781_482522"/>
<feColorMatrix in="SourceAlpha" type="matrix" values="0 0 0 0 0 0 0 0 0 0 0 0 0 0 0 0 0 0 127 0" result="hardAlpha"/>
<feOffset dy="0.893452"/>
<feGaussianBlur stdDeviation="2.68036"/>
<feColorMatrix type="matrix" values="0 0 0 0 0.678431 0 0 0 0 0.666667 0 0 0 0 0.666667 0 0 0 0.0953772 0"/>
<feBlend mode="normal" in2="effect1_dropShadow_3781_482522" result="effect2_dropShadow_3781_482522"/>
<feColorMatrix in="SourceAlpha" type="matrix" values="0 0 0 0 0 0 0 0 0 0 0 0 0 0 0 0 0 0 127 0" result="hardAlpha"/>
<feOffset dy="4"/>
<feGaussianBlur stdDeviation="12"/>
<feColorMatrix type="matrix" values="0 0 0 0 0.678431 0 0 0 0 0.666667 0 0 0 0 0.666667 0 0 0 0.16 0"/>
<feBlend mode="normal" in2="effect2_dropShadow_3781_482522" result="effect3_dropShadow_3781_482522"/>
<feBlend mode="normal" in="SourceGraphic" in2="effect3_dropShadow_3781_482522" result="shape"/>
</filter>
<filter id="filter1_bi_3781_482522" x="125.6" y="49.6001" width="34.4004" height="34.4" filterUnits="userSpaceOnUse" color-interpolation-filters="sRGB">
<feFlood flood-opacity="0" result="BackgroundImageFix"/>
<feGaussianBlur in="BackgroundImage" stdDeviation="2"/>
<feComposite in2="SourceAlpha" operator="in" result="effect1_backgroundBlur_3781_482522"/>
<feBlend mode="normal" in="SourceGraphic" in2="effect1_backgroundBlur_3781_482522" result="shape"/>
<feColorMatrix in="SourceAlpha" type="matrix" values="0 0 0 0 0 0 0 0 0 0 0 0 0 0 0 0 0 0 127 0" result="hardAlpha"/>
<feOffset dy="2"/>
<feGaussianBlur stdDeviation="1"/>
<feComposite in2="hardAlpha" operator="arithmetic" k2="-1" k3="1"/>
<feColorMatrix type="matrix" values="0 0 0 0 1 0 0 0 0 1 0 0 0 0 1 0 0 0 0.35 0"/>
<feBlend mode="normal" in2="shape" result="effect2_innerShadow_3781_482522"/>
</filter>
<filter id="filter2_d_3781_482522" x="131.588" y="56.0878" width="22.457" height="22.4065" filterUnits="userSpaceOnUse" color-interpolation-filters="sRGB">
<feFlood flood-opacity="0" result="BackgroundImageFix"/>
<feColorMatrix in="SourceAlpha" type="matrix" values="0 0 0 0 0 0 0 0 0 0 0 0 0 0 0 0 0 0 127 0" result="hardAlpha"/>
<feOffset dy="1"/>
<feGaussianBlur stdDeviation="1.5"/>
<feColorMatrix type="matrix" values="0 0 0 0 0.0847875 0 0 0 0 0.525 0 0 0 0 0.013125 0 0 0 0.5 0"/>
<feBlend mode="normal" in2="BackgroundImageFix" result="effect1_dropShadow_3781_482522"/>
<feBlend mode="normal" in="SourceGraphic" in2="effect1_dropShadow_3781_482522" result="shape"/>
</filter>
<linearGradient id="paint0_linear_3781_482522" x1="101.215" y1="74.5021" x2="152.36" y2="64.3877" gradientUnits="userSpaceOnUse">
<stop stop-color="#47BF33"/>
<stop offset="1" stop-color="#9CFFAC"/>
</linearGradient>
<linearGradient id="paint1_linear_3781_482522" x1="101.215" y1="74.5021" x2="152.36" y2="64.3877" gradientUnits="userSpaceOnUse">
<stop stop-color="#47BF33"/>
<stop offset="1" stop-color="#9CFFAC"/>
</linearGradient>
<linearGradient id="paint2_linear_3781_482522" x1="101.215" y1="74.5021" x2="152.36" y2="64.3877" gradientUnits="userSpaceOnUse">
<stop stop-color="#47BF33"/>
<stop offset="1" stop-color="#9CFFAC"/>
</linearGradient>
<linearGradient id="paint3_linear_3781_482522" x1="101.215" y1="74.5021" x2="152.36" y2="64.3877" gradientUnits="userSpaceOnUse">
<stop stop-color="#47BF33"/>
<stop offset="1" stop-color="#9CFFAC"/>
</linearGradient>
<linearGradient id="paint4_linear_3781_482522" x1="99.4012" y1="77.022" x2="152.814" y2="62.7367" gradientUnits="userSpaceOnUse">
<stop stop-color="#47BF33"/>
<stop offset="1" stop-color="#9CFFAC"/>
</linearGradient>
<linearGradient id="paint5_linear_3781_482522" x1="99.4012" y1="77.022" x2="152.814" y2="62.7367" gradientUnits="userSpaceOnUse">
<stop stop-color="#47BF33"/>
<stop offset="1" stop-color="#9CFFAC"/>
</linearGradient>
</defs>
</svg>
