<svg xmlns="http://www.w3.org/2000/svg" width="88" height="48" fill="none" xmlns:v="https://vecta.io/nano"><rect x=".5" y=".5" width="87" height="47" rx="3.5" fill="#fff" stroke="#ddd"/><path d="M35.883 13.534l-8.626 20.98h-5.626l-4.266-16.736c-.234-1.049-.469-1.383-1.266-1.86-1.266-.715-3.376-1.383-5.251-1.764l.141-.62h9.048c1.172 0 2.204.763 2.438 2.146l2.25 12.111 5.532-14.257h5.626zm22.082 14.114c.047-5.531-7.501-5.817-7.454-8.297 0-.763.703-1.573 2.25-1.764.75-.095 2.86-.191 5.251.954l.938-4.434a14.07 14.07 0 0 0-4.969-.906c-5.251 0-8.955 2.861-9.001 6.914-.047 3.004 2.625 4.72 4.641 5.722 2.063 1.049 2.766 1.669 2.766 2.622 0 1.383-1.641 2.05-3.188 2.05-2.672.048-4.219-.715-5.485-1.335l-.985 4.53c1.266.572 3.563 1.097 5.907 1.097 5.626 0 9.283-2.813 9.33-7.152zm13.924 6.866h4.923l-4.313-20.98h-4.548c-1.031 0-1.875.62-2.25 1.526l-8.017 19.407h5.579l1.125-3.147h6.845l.656 3.195zm-5.954-7.438l2.813-7.867 1.594 7.868h-4.407zM43.478 13.534l-4.407 20.98h-5.298l4.407-20.98h5.298z" fill="url(#A)"/><defs><linearGradient id="A" x1="10.848" y1="34.8" x2="78.113" y2="34.8" gradientUnits="userSpaceOnUse"><stop stop-color="#1a1e5a"/><stop offset="1" stop-color="#00329e"/></linearGradient></defs></svg>