<svg xmlns="http://www.w3.org/2000/svg" width="58" height="32" fill="none" xmlns:v="https://vecta.io/nano"><rect x=".5" y=".5" width="57" height="31" rx="3.5" fill="#fff" stroke="#ddd"/><path d="M23.651 9.023l-5.686 13.987h-3.708l-2.812-11.158c-.154-.699-.309-.922-.834-1.24-.834-.477-2.225-.922-3.461-1.176l.093-.413h5.964c.773 0 1.452.509 1.607 1.43l1.483 8.074 3.646-9.505h3.708zm14.554 9.409c.031-3.687-4.944-3.878-4.913-5.531 0-.509.464-1.049 1.483-1.176.494-.064 1.885-.127 3.461.636l.618-2.956c-.834-.318-1.947-.604-3.275-.604-3.461 0-5.902 1.907-5.933 4.609-.031 2.003 1.73 3.147 3.059 3.815 1.36.699 1.823 1.113 1.823 1.748 0 .922-1.082 1.367-2.101 1.367-1.761.032-2.781-.477-3.615-.89l-.649 3.02c.834.381 2.348.731 3.893.731 3.708 0 6.118-1.875 6.149-4.768zm9.177 4.578h3.245L47.784 9.023h-2.997a1.59 1.59 0 0 0-1.483 1.017l-5.284 12.938h3.677l.742-2.098h4.511l.433 2.13zm-3.924-4.959l1.854-5.245 1.051 5.245h-2.905zM28.657 9.023l-2.905 13.987H22.26l2.905-13.987h3.492z" fill="url(#A)"/><defs><linearGradient id="A" x1="7.15" y1="23.2" x2="51.485" y2="23.2" gradientUnits="userSpaceOnUse"><stop stop-color="#1a1e5a"/><stop offset="1" stop-color="#00329e"/></linearGradient></defs></svg>