<svg width="23" height="40" viewBox="0 0 23 40" fill="none" xmlns="http://www.w3.org/2000/svg">
<path d="M17.119 31.2881H5.87902C5.31902 31.2881 4.86902 30.8281 4.86902 30.2681C4.86902 29.7081 5.31902 29.2481 5.87902 29.2481H17.129C17.689 29.2481 18.139 29.7081 18.139 30.2681C18.129 30.8281 17.679 31.2881 17.119 31.2881Z" fill="url(#paint0_linear_4740_50199)"/>
<path d="M17.119 34.5181H5.87902C5.31902 34.5181 4.86902 34.0581 4.86902 33.4981C4.86902 32.9381 5.31902 32.4781 5.87902 32.4781H17.129C17.689 32.4781 18.139 32.9381 18.139 33.4981C18.129 34.0581 17.679 34.5181 17.119 34.5181Z" fill="url(#paint1_linear_4740_50199)"/>
<path d="M11.479 39.9981C9.37902 39.9981 8.71902 39.6981 8.60902 39.6381C8.56902 39.6181 8.52902 39.5881 8.49902 39.5581L5.79902 36.8881C5.64902 36.7381 5.60902 36.5181 5.68902 36.3281C5.76902 36.1381 5.94902 36.0081 6.15902 36.0081H16.849C17.049 36.0081 17.239 36.1281 17.319 36.3281C17.399 36.5181 17.349 36.7381 17.209 36.8881L14.559 39.5481C14.519 39.5881 14.469 39.6281 14.419 39.6481C14.329 39.6881 13.609 39.9981 11.479 39.9981Z" fill="url(#paint2_linear_4740_50199)"/>
<path d="M12.029 8.76809H10.949C9.99902 8.76809 9.22902 9.54809 9.22902 10.5081V11.9981H13.739V10.4981C13.749 9.53808 12.979 8.76809 12.029 8.76809Z" fill="url(#paint3_linear_4740_50199)"/>
<path d="M11.499 14.2381C10.829 14.2381 10.289 14.7881 10.289 15.4581C10.289 15.8181 10.439 16.1481 10.699 16.3781L10.519 17.6281C10.509 17.6981 10.529 17.7681 10.579 17.8181C10.629 17.8681 10.689 17.8981 10.759 17.8981H12.209C12.279 17.8981 12.349 17.8681 12.389 17.8181C12.439 17.7681 12.459 17.6981 12.449 17.6281L12.289 16.3781C12.549 16.1481 12.699 15.8081 12.699 15.4581C12.709 14.7881 12.169 14.2381 11.499 14.2381Z" fill="url(#paint4_linear_4740_50199)"/>
<path d="M9.18902 0.228085C4.63902 1.12809 0.999019 4.87809 0.189019 9.49809C-0.460981 13.1781 0.609019 16.6181 2.72902 19.1381C4.37902 21.0981 5.18902 23.6381 5.18902 26.2181V27.7381H17.809V26.5881C17.809 23.8781 18.589 21.1681 20.309 19.0981C21.989 17.0781 22.999 14.4781 22.999 11.6281C22.999 4.43809 16.549 -1.22191 9.18902 0.228085ZM3.62902 9.79809C3.55902 10.0081 3.35902 10.1481 3.14902 10.1481C3.09902 10.1481 3.03902 10.1381 2.98902 10.1181C2.72902 10.0281 2.57902 9.73809 2.66902 9.46809C2.68902 9.39809 4.95902 2.75809 11.439 2.65809C11.699 2.65809 11.949 2.87809 11.949 3.15809C11.949 3.43809 11.729 3.66809 11.449 3.67809C5.67902 3.76809 3.64902 9.73808 3.62902 9.79809ZM16.609 19.1681C16.609 19.7081 16.159 20.1581 15.599 20.1581H7.39902C6.83902 20.1581 6.38902 19.7181 6.38902 19.1681V12.9881C6.38902 12.4381 6.83902 11.9981 7.39902 11.9981H7.79902V10.3181C7.79902 8.67808 9.11902 7.33809 10.739 7.33809H12.219C13.849 7.33809 15.159 8.66809 15.159 10.3181V11.9981H15.599C16.159 11.9981 16.609 12.4381 16.609 12.9881V19.1681Z" fill="url(#paint5_linear_4740_50199)"/>
<defs>
<linearGradient id="paint0_linear_4740_50199" x1="22.999" y1="-1.19204e-06" x2="-11.5696" y2="19.8771" gradientUnits="userSpaceOnUse">
<stop stop-color="#FF6A00"/>
<stop offset="1" stop-color="#EE0979"/>
</linearGradient>
<linearGradient id="paint1_linear_4740_50199" x1="22.999" y1="-1.19204e-06" x2="-11.5696" y2="19.8771" gradientUnits="userSpaceOnUse">
<stop stop-color="#FF6A00"/>
<stop offset="1" stop-color="#EE0979"/>
</linearGradient>
<linearGradient id="paint2_linear_4740_50199" x1="22.999" y1="-1.19204e-06" x2="-11.5696" y2="19.8771" gradientUnits="userSpaceOnUse">
<stop stop-color="#FF6A00"/>
<stop offset="1" stop-color="#EE0979"/>
</linearGradient>
<linearGradient id="paint3_linear_4740_50199" x1="22.999" y1="-1.19204e-06" x2="-11.5696" y2="19.8771" gradientUnits="userSpaceOnUse">
<stop stop-color="#FF6A00"/>
<stop offset="1" stop-color="#EE0979"/>
</linearGradient>
<linearGradient id="paint4_linear_4740_50199" x1="22.999" y1="-1.19204e-06" x2="-11.5696" y2="19.8771" gradientUnits="userSpaceOnUse">
<stop stop-color="#FF6A00"/>
<stop offset="1" stop-color="#EE0979"/>
</linearGradient>
<linearGradient id="paint5_linear_4740_50199" x1="22.999" y1="-1.19204e-06" x2="-11.5696" y2="19.8771" gradientUnits="userSpaceOnUse">
<stop stop-color="#FF6A00"/>
<stop offset="1" stop-color="#EE0979"/>
</linearGradient>
</defs>
</svg>
