<svg width="56" height="56" viewBox="0 0 56 56" fill="none" xmlns="http://www.w3.org/2000/svg">
<path d="M51.7958 36.0857C51.3609 36.0857 50.926 36.2354 50.491 36.3851L40.7779 40.4279C40.7779 40.5777 40.7779 40.7274 40.7779 40.8771C40.7779 43.1231 38.8932 45.0696 36.7187 45.0696H21.6415C21.0616 45.0696 20.6267 44.6204 20.6267 44.0215C20.6267 43.4226 21.0616 42.9734 21.6415 42.9734H36.7187C37.7335 42.9734 38.7483 42.075 38.7483 40.8771C38.7483 40.7274 38.7483 40.4279 38.7483 40.2782C38.4583 39.3798 37.7335 38.7809 36.8636 38.7809H27.8753C27.7304 38.7809 27.5854 38.7809 27.5854 38.7809L18.7421 35.6365C16.8574 35.0375 14.6828 34.8878 12.9432 35.4867L0.330538 39.0803H0.185568C0.185568 41.1766 -0.104381 54.5028 0.040592 54.3531L8.59398 51.3584C9.31884 51.0589 9.89873 50.9092 10.9135 50.9092C11.6384 50.9092 12.0733 51.0589 12.6532 51.2087L27.1505 55.7006C27.7304 55.8504 28.1653 56.0001 28.8901 56.0001C30.1949 56.0001 31.2097 55.7006 32.2245 54.952L56 40.2782C55.1302 38.1819 54.4053 36.0857 51.7958 36.0857Z" fill="url(#paint0_linear_4771_99693)"/>
<path d="M29.3253 0C20.6269 0 13.6682 7.3369 13.6682 16.1711C13.6682 25.0053 20.7719 32.3422 29.3253 32.3422C37.8786 32.3422 44.9823 25.0053 44.9823 16.1711C44.9823 7.3369 37.8786 0 29.3253 0ZM38.0236 24.1069C37.7337 24.4064 37.2987 24.7059 36.8638 24.7059C36.5739 24.7059 36.139 24.5561 35.994 24.4064L28.3104 17.8182C28.0205 17.5187 27.7305 17.0695 27.7305 16.6203V6.28877C27.7305 5.39037 28.3104 4.79144 29.1803 4.79144C30.0501 4.79144 30.63 5.39037 30.63 6.28877V15.7219L37.7337 21.861C38.4585 22.4599 38.6035 23.508 38.0236 24.1069Z" fill="url(#paint1_linear_4771_99693)"/>
<defs>
<linearGradient id="paint0_linear_4771_99693" x1="56" y1="35.1055" x2="42.3131" y2="71.7879" gradientUnits="userSpaceOnUse">
<stop stop-color="#FF6A00"/>
<stop offset="1" stop-color="#EE0979"/>
</linearGradient>
<linearGradient id="paint1_linear_4771_99693" x1="44.9823" y1="-9.63874e-07" x2="12.6569" y2="31.2977" gradientUnits="userSpaceOnUse">
<stop stop-color="#FF6A00"/>
<stop offset="1" stop-color="#EE0979"/>
</linearGradient>
</defs>
</svg>
