<svg width="43" height="72" viewBox="0 0 43 72" fill="none" xmlns="http://www.w3.org/2000/svg">
<path d="M31.7141 56.3186H11.4821C10.4741 56.3186 9.66414 55.4906 9.66414 54.4826C9.66414 53.4746 10.4741 52.6466 11.4821 52.6466H31.7321C32.7401 52.6466 33.5501 53.4746 33.5501 54.4826C33.5321 55.4906 32.7221 56.3186 31.7141 56.3186Z" fill="url(#paint0_linear_4709_7743)"/>
<path d="M31.7141 62.1326H11.4821C10.4741 62.1326 9.66414 61.3046 9.66414 60.2966C9.66414 59.2886 10.4741 58.4606 11.4821 58.4606H31.7321C32.7401 58.4606 33.5501 59.2886 33.5501 60.2966C33.5321 61.3046 32.7221 62.1326 31.7141 62.1326Z" fill="url(#paint1_linear_4709_7743)"/>
<path d="M21.5621 71.9966C17.7821 71.9966 16.5941 71.4566 16.3961 71.3485C16.3241 71.3126 16.2521 71.2586 16.1981 71.2046L11.3381 66.3986C11.0681 66.1285 10.9961 65.7326 11.1401 65.3906C11.2841 65.0486 11.6081 64.8145 11.9861 64.8145H31.2281C31.5881 64.8145 31.9301 65.0306 32.0741 65.3906C32.2181 65.7326 32.1281 66.1285 31.8761 66.3986L27.1061 71.1865C27.0341 71.2586 26.9441 71.3306 26.8541 71.3666C26.6921 71.4386 25.3961 71.9966 21.5621 71.9966Z" fill="url(#paint2_linear_4709_7743)"/>
<path d="M22.5521 15.7826H20.6081C18.8981 15.7826 17.5121 17.1866 17.5121 18.9146V21.5966H25.6301V18.8966C25.6481 17.1686 24.2621 15.7826 22.5521 15.7826Z" fill="url(#paint3_linear_4709_7743)"/>
<path d="M21.5981 25.6286C20.3921 25.6286 19.4201 26.6186 19.4201 27.8246C19.4201 28.4726 19.6901 29.0666 20.1581 29.4806L19.8341 31.7306C19.8161 31.8566 19.8521 31.9826 19.9421 32.0726C20.0321 32.1626 20.1401 32.2166 20.2661 32.2166H22.8761C23.0021 32.2166 23.1281 32.1626 23.2001 32.0726C23.2901 31.9826 23.3261 31.8566 23.3081 31.7306L23.0201 29.4806C23.4881 29.0666 23.7581 28.4546 23.7581 27.8246C23.7761 26.6186 22.8041 25.6286 21.5981 25.6286Z" fill="url(#paint4_linear_4709_7743)"/>
<path d="M17.4401 0.410554C9.25014 2.03055 2.69814 8.78055 1.24014 17.0966C0.0701371 23.7206 1.99614 29.9126 5.81214 34.4486C8.78214 37.9766 10.2401 42.5485 10.2401 47.1926V49.9286H32.9561V47.8586C32.9561 42.9806 34.3601 38.1026 37.4561 34.3766C40.4801 30.7406 42.2981 26.0606 42.2981 20.9306C42.2981 7.98855 30.6881 -2.19945 17.4401 0.410554ZM7.43214 17.6366C7.30614 18.0146 6.94614 18.2666 6.56814 18.2666C6.47814 18.2666 6.37014 18.2486 6.28014 18.2126C5.81214 18.0506 5.54214 17.5286 5.70414 17.0426C5.74014 16.9166 9.82614 4.96455 21.4901 4.78455C21.9581 4.78455 22.4081 5.18055 22.4081 5.68455C22.4081 6.18855 22.0121 6.60255 21.5081 6.62055C11.1221 6.78255 7.46814 17.5286 7.43214 17.6366ZM30.7961 34.5026C30.7961 35.4746 29.9861 36.2846 28.9781 36.2846H14.2181C13.2101 36.2846 12.4001 35.4926 12.4001 34.5026V23.3786C12.4001 22.3886 13.2101 21.5966 14.2181 21.5966H14.9381V18.5726C14.9381 15.6206 17.3141 13.2086 20.2301 13.2086H22.8941C25.8281 13.2086 28.1861 15.6026 28.1861 18.5726V21.5966H28.9781C29.9861 21.5966 30.7961 22.3886 30.7961 23.3786V34.5026Z" fill="url(#paint5_linear_4709_7743)"/>
<defs>
<linearGradient id="paint0_linear_4709_7743" x1="42.2981" y1="-2.14566e-06" x2="-19.9254" y2="35.7787" gradientUnits="userSpaceOnUse">
<stop stop-color="#FF6A00"/>
<stop offset="1" stop-color="#EE0979"/>
</linearGradient>
<linearGradient id="paint1_linear_4709_7743" x1="42.2981" y1="-2.14566e-06" x2="-19.9254" y2="35.7787" gradientUnits="userSpaceOnUse">
<stop stop-color="#FF6A00"/>
<stop offset="1" stop-color="#EE0979"/>
</linearGradient>
<linearGradient id="paint2_linear_4709_7743" x1="42.2981" y1="-2.14566e-06" x2="-19.9254" y2="35.7787" gradientUnits="userSpaceOnUse">
<stop stop-color="#FF6A00"/>
<stop offset="1" stop-color="#EE0979"/>
</linearGradient>
<linearGradient id="paint3_linear_4709_7743" x1="42.2981" y1="-2.14566e-06" x2="-19.9254" y2="35.7787" gradientUnits="userSpaceOnUse">
<stop stop-color="#FF6A00"/>
<stop offset="1" stop-color="#EE0979"/>
</linearGradient>
<linearGradient id="paint4_linear_4709_7743" x1="42.2981" y1="-2.14566e-06" x2="-19.9254" y2="35.7787" gradientUnits="userSpaceOnUse">
<stop stop-color="#FF6A00"/>
<stop offset="1" stop-color="#EE0979"/>
</linearGradient>
<linearGradient id="paint5_linear_4709_7743" x1="42.2981" y1="-2.14566e-06" x2="-19.9254" y2="35.7787" gradientUnits="userSpaceOnUse">
<stop stop-color="#FF6A00"/>
<stop offset="1" stop-color="#EE0979"/>
</linearGradient>
</defs>
</svg>
