<svg width="40" height="40" viewBox="0 0 40 40" fill="none" xmlns="http://www.w3.org/2000/svg">
<path d="M19.45 30.27C19.65 29.76 20.22 29.51 20.73 29.7L22.74 30.45L20.21 21.29L11.94 26.54C12.53 26.8 13.25 27.1 14.07 27.41C14.58 27.6 14.84 28.16 14.66 28.68C12.61 34.53 8.98002 36.81 5.94002 37.65C8.36002 38.15 10.6 38.01 12.61 37.21C17.41 35.32 19.43 30.32 19.45 30.27Z" fill="url(#paint0_linear_4740_50203)"/>
<path d="M20 0C8.97 0 0 8.97 0 20C0 26.06 2.72 31.48 6.99 35.15C7.56 34.88 8.13 34.53 8.69 34.09C7.81 33.39 7 32.6 6.27 31.75C7.27 31.26 8.38 30.83 9.6 30.47C9.85 31.14 10.13 31.77 10.42 32.38C10.85 31.85 11.26 31.25 11.64 30.56C11.56 30.37 11.48 30.19 11.4 29.99C11.59 29.95 11.8 29.92 11.99 29.87C12.14 29.56 12.29 29.24 12.43 28.9C10.65 28.18 9.47 27.56 9.41 27.53C9.09 27.36 8.89 27.04 8.88 26.69C8.87 26.33 9.04 26 9.34 25.81L10.15 25.3C9.85 23.62 9.67 21.85 9.67 20C9.67 17.11 10.07 14.39 10.76 11.97C12.32 12.34 13.98 12.61 15.72 12.79C15.46 16.24 15.45 19.24 15.45 20.01C15.45 20.32 15.45 21.01 15.47 21.94L17.36 20.74C17.36 20.49 17.35 20.26 17.35 20.01C17.35 17.39 17.45 15.03 17.61 12.94C18.39 12.97 19.19 13 20 13C20.81 13 21.61 12.98 22.4 12.94C22.56 15.03 22.66 17.39 22.66 20.01C22.66 20.88 22.65 21.71 22.63 22.53L23.54 25.84L24.51 29.34C25.94 29.5 27.31 29.72 28.61 30.02C27.19 33.76 24.99 36.51 22.43 37.59C22.95 36.34 23.34 34.7 23.64 32.92L21.8 32.24C21.24 35.64 20.53 37.65 20 38.07C19.64 37.78 19.2 36.76 18.78 35.07C18.57 35.32 18.35 35.56 18.12 35.8C18.06 35.86 18 35.92 17.94 35.98C17.72 36.2 17.49 36.43 17.25 36.65C17.36 36.98 17.47 37.29 17.59 37.58C17.28 37.45 16.98 37.29 16.68 37.11C16.32 37.4 15.94 37.67 15.53 37.93C15.43 37.99 15.34 38.06 15.24 38.12C15.02 38.25 14.8 38.38 14.56 38.5C14.26 38.66 13.95 38.81 13.63 38.94C15.63 39.62 17.77 40 20 40C31.03 40 40 31.03 40 20C40 8.97 31.03 0 20 0ZM7.76 20C7.76 23.11 8.21 26.04 8.99 28.67C7.55 29.1 6.24 29.62 5.08 30.22C3.08 27.31 1.9 23.79 1.9 20C1.9 16.26 3.04 12.78 4.99 9.9C6.16 10.51 7.48 11.05 8.94 11.49C8.19 14.07 7.76 16.95 7.76 20ZM9.54 9.67C8.3 9.3 7.17 8.86 6.17 8.36C8.1 6.07 10.59 4.27 13.43 3.16C11.84 4.81 10.52 7.04 9.54 9.67ZM15.87 10.88C14.29 10.72 12.77 10.47 11.34 10.14C12.76 6.33 14.98 3.52 17.58 2.42C16.7 4.55 16.18 7.76 15.87 10.88ZM20 11.09C19.25 11.09 18.51 11.07 17.77 11.03C18.33 5.64 19.32 2.48 20 1.94C20.68 2.48 21.67 5.64 22.23 11.03C21.49 11.07 20.75 11.09 20 11.09ZM33.84 8.36C32.84 8.86 31.71 9.3 30.46 9.67C29.49 7.04 28.16 4.81 26.58 3.16C29.41 4.27 31.9 6.07 33.84 8.36ZM22.42 2.43C25.02 3.53 27.24 6.34 28.66 10.15C27.24 10.48 25.72 10.73 24.13 10.89C23.82 7.76 23.3 4.55 22.42 2.43ZM24.28 27.38C24.55 23.86 24.57 20.78 24.57 20C24.57 19.23 24.55 16.23 24.3 12.78C26.04 12.61 27.7 12.34 29.26 11.97C29.95 14.39 30.35 17.11 30.35 20C30.35 22.95 29.94 25.72 29.22 28.18C27.66 27.82 26.01 27.55 24.28 27.38ZM26.58 36.84C28.13 35.22 29.44 33.04 30.41 30.48C31.63 30.84 32.75 31.27 33.74 31.75C31.82 33.99 29.36 35.75 26.58 36.84ZM31.01 28.66C31.79 26.03 32.23 23.1 32.23 20C32.23 16.95 31.8 14.08 31.05 11.49C32.51 11.05 33.82 10.51 35 9.9C36.95 12.79 38.09 16.26 38.09 20C38.09 23.79 36.91 27.31 34.91 30.22C33.76 29.62 32.45 29.09 31.01 28.66Z" fill="url(#paint1_linear_4740_50203)"/>
<defs>
<linearGradient id="paint0_linear_4740_50203" x1="40" y1="-1.19209e-06" x2="1.19209e-06" y2="40" gradientUnits="userSpaceOnUse">
<stop stop-color="#FF6A00"/>
<stop offset="1" stop-color="#EE0979"/>
</linearGradient>
<linearGradient id="paint1_linear_4740_50203" x1="40" y1="-1.19209e-06" x2="1.19209e-06" y2="40" gradientUnits="userSpaceOnUse">
<stop stop-color="#FF6A00"/>
<stop offset="1" stop-color="#EE0979"/>
</linearGradient>
</defs>
</svg>
