<svg width="54" height="56" viewBox="0 0 54 56" fill="none" xmlns="http://www.w3.org/2000/svg">
<path d="M47.1641 40.8806C48.7655 40.8806 50.0758 39.6207 50.0758 38.0807V22.6814C50.0758 21.5614 49.4935 20.7214 48.7655 20.3015L35.5169 13.8617C34.061 13.1617 32.4595 14.4217 32.4595 16.2416V39.6207C32.4595 40.3206 33.0419 40.8806 33.7698 40.8806H47.1641ZM44.1067 25.2013H46.5817C47.3096 25.2013 47.7464 25.7612 47.7464 26.4612C47.7464 27.1612 47.1641 27.7211 46.5817 27.7211H44.1067C43.3787 27.7211 42.942 27.1612 42.942 26.4612C42.942 25.7612 43.3787 25.2013 44.1067 25.2013ZM44.1067 31.081H46.5817C47.3096 31.081 47.7464 31.641 47.7464 32.341C47.7464 33.0409 47.3096 33.6009 46.5817 33.6009H44.1067C43.3787 33.6009 42.942 33.0409 42.942 32.341C42.942 31.641 43.3787 31.081 44.1067 31.081ZM35.8081 25.2013H38.2831C39.0111 25.2013 39.4478 25.7612 39.4478 26.4612C39.4478 27.1612 38.8655 27.7211 38.2831 27.7211H35.8081C35.0801 27.7211 34.6434 27.1612 34.6434 26.4612C34.6434 25.7612 35.0801 25.2013 35.8081 25.2013ZM35.8081 31.081H38.2831C39.0111 31.081 39.4478 31.641 39.4478 32.341C39.4478 33.0409 39.0111 33.6009 38.2831 33.6009H35.8081C35.0801 33.6009 34.6434 33.0409 34.6434 32.341C34.6434 31.641 35.0801 31.081 35.8081 31.081Z" fill="url(#paint0_linear_4771_99700)"/>
<path d="M22.9963 0.282319L2.90495 9.24195C1.74024 9.80193 0.866699 11.0619 0.866699 12.6018V48.3003C0.866699 50.2603 2.32259 51.9402 4.21526 51.9402H11.2036C10.9124 51.2402 10.6212 50.5402 10.4756 49.7003C10.4756 49.7003 10.4756 49.7003 10.4756 49.5603C10.33 49.2803 10.33 48.8603 10.33 48.5803V48.4403C10.33 48.0203 10.33 47.6004 10.33 47.1804C10.33 40.7407 15.7168 35.5609 22.4139 35.5609C22.8507 35.5609 23.4331 35.5609 23.8698 35.7009C24.161 35.7009 24.5978 35.8409 24.889 35.8409C25.0345 35.8409 25.1801 35.8409 25.3257 35.8409C25.7625 35.9808 26.1993 36.1208 26.636 36.2608C27.0728 36.4008 27.5096 36.5408 27.9463 36.8208V3.64218C27.5096 0.982291 25.1801 -0.69764 22.9963 0.282319ZM10.4756 35.5609H7.27263C6.3991 35.5609 5.67115 34.8609 5.67115 34.0209C5.67115 33.181 6.3991 32.481 7.27263 32.481H10.33C11.2036 32.481 11.9315 33.181 11.9315 34.0209C11.9315 34.8609 11.2036 35.5609 10.4756 35.5609ZM10.4756 27.4412H7.27263C6.3991 27.4412 5.67115 26.7412 5.67115 25.9013C5.67115 25.0613 6.3991 24.3613 7.27263 24.3613H10.33C11.2036 24.3613 11.9315 25.0613 11.9315 25.9013C11.9315 26.8812 11.2036 27.4412 10.4756 27.4412ZM10.4756 19.8815H7.27263C6.3991 19.8815 5.67115 19.1815 5.67115 18.3416C5.67115 17.5016 6.3991 16.8016 7.27263 16.8016H10.33C11.2036 16.8016 11.9315 17.5016 11.9315 18.3416C11.9315 19.1815 11.2036 19.8815 10.4756 19.8815ZM20.6669 27.4412H17.6095C16.7359 27.4412 16.008 26.7412 16.008 25.9013C16.008 25.0613 16.7359 24.3613 17.6095 24.3613H20.6669C21.5404 24.3613 22.2683 25.0613 22.2683 25.9013C22.2683 26.8812 21.5404 27.4412 20.6669 27.4412ZM20.6669 19.8815H17.6095C16.7359 19.8815 16.008 19.1815 16.008 18.3416C16.008 17.5016 16.7359 16.8016 17.6095 16.8016H20.6669C21.5404 16.8016 22.2683 17.5016 22.2683 18.3416C22.2683 19.1815 21.5404 19.8815 20.6669 19.8815Z" fill="url(#paint1_linear_4771_99700)"/>
<path fill-rule="evenodd" clip-rule="evenodd" d="M38.5744 48.3003L39.8847 49.4203L41.0494 50.5402H41.195L42.3597 49.4203L43.67 48.3003L44.9803 49.4203L46.145 50.5402H50.6583L53.1333 47.3203L50.5127 43.9605H30.5669C28.9655 40.1806 24.7434 37.8007 20.0845 38.6407C16.7359 39.3407 13.9697 42.0006 13.2418 45.3604C12.0771 51.1002 16.4448 56 22.1228 56C25.9081 56 29.2566 53.7601 30.5669 50.5402H35.9538L38.5744 48.3003ZM18.0463 49.5603C16.7359 49.5603 15.5712 48.4403 15.5712 47.1804C15.5712 45.9204 16.7359 44.8004 18.0463 44.8004C19.3566 44.8004 20.5213 45.9204 20.5213 47.1804C20.5213 48.5803 19.3566 49.5603 18.0463 49.5603Z" fill="url(#paint2_linear_4771_99700)"/>
<defs>
<linearGradient id="paint0_linear_4771_99700" x1="53.1333" y1="-1.66893e-06" x2="-2.73366" y2="52.1425" gradientUnits="userSpaceOnUse">
<stop stop-color="#FF6A00"/>
<stop offset="1" stop-color="#EE0979"/>
</linearGradient>
<linearGradient id="paint1_linear_4771_99700" x1="53.1333" y1="-1.66893e-06" x2="-2.73366" y2="52.1425" gradientUnits="userSpaceOnUse">
<stop stop-color="#FF6A00"/>
<stop offset="1" stop-color="#EE0979"/>
</linearGradient>
<linearGradient id="paint2_linear_4771_99700" x1="53.1333" y1="-1.66893e-06" x2="-2.73366" y2="52.1425" gradientUnits="userSpaceOnUse">
<stop stop-color="#FF6A00"/>
<stop offset="1" stop-color="#EE0979"/>
</linearGradient>
</defs>
</svg>
