<svg width="73" height="72" viewBox="0 0 73 72" fill="none" xmlns="http://www.w3.org/2000/svg">
<path d="M35.51 54.486C35.87 53.568 36.896 53.118 37.814 53.46L41.432 54.81L36.878 38.322L21.992 47.772C23.054 48.24 24.35 48.78 25.826 49.338C26.744 49.68 27.212 50.688 26.888 51.624C23.198 62.154 16.664 66.258 11.192 67.77C15.548 68.67 19.58 68.418 23.198 66.978C31.838 63.576 35.474 54.576 35.51 54.486Z" fill="url(#paint0_linear_4709_7750)"/>
<path d="M36.5 0C16.646 0 0.5 16.146 0.5 36C0.5 46.908 5.396 56.664 13.082 63.27C14.108 62.784 15.134 62.154 16.142 61.362C14.558 60.102 13.1 58.68 11.786 57.15C13.586 56.268 15.584 55.494 17.78 54.846C18.23 56.052 18.734 57.186 19.256 58.284C20.03 57.33 20.768 56.25 21.452 55.008C21.308 54.666 21.164 54.342 21.02 53.982C21.362 53.91 21.74 53.856 22.082 53.766C22.352 53.208 22.622 52.632 22.874 52.02C19.67 50.724 17.546 49.608 17.438 49.554C16.862 49.248 16.502 48.672 16.484 48.042C16.466 47.394 16.772 46.8 17.312 46.458L18.77 45.54C18.23 42.516 17.906 39.33 17.906 36C17.906 30.798 18.626 25.902 19.868 21.546C22.676 22.212 25.664 22.698 28.796 23.022C28.328 29.232 28.31 34.632 28.31 36.018C28.31 36.576 28.31 37.818 28.346 39.492L31.748 37.332C31.748 36.882 31.73 36.468 31.73 36.018C31.73 31.302 31.91 27.054 32.198 23.292C33.602 23.346 35.042 23.4 36.5 23.4C37.958 23.4 39.398 23.364 40.82 23.292C41.108 27.054 41.288 31.302 41.288 36.018C41.288 37.584 41.27 39.078 41.234 40.554L42.872 46.512L44.618 52.812C47.192 53.1 49.658 53.496 51.998 54.036C49.442 60.768 45.482 65.718 40.874 67.662C41.81 65.412 42.512 62.46 43.052 59.256L39.74 58.032C38.732 64.152 37.454 67.77 36.5 68.526C35.852 68.004 35.06 66.168 34.304 63.126C33.926 63.576 33.53 64.008 33.116 64.44C33.008 64.548 32.9 64.656 32.792 64.764C32.396 65.16 31.982 65.574 31.55 65.97C31.748 66.564 31.946 67.122 32.162 67.644C31.604 67.41 31.064 67.122 30.524 66.798C29.876 67.32 29.192 67.806 28.454 68.274C28.274 68.382 28.112 68.508 27.932 68.616C27.536 68.85 27.14 69.084 26.708 69.3C26.168 69.588 25.61 69.858 25.034 70.092C28.634 71.316 32.486 72 36.5 72C56.354 72 72.5 55.854 72.5 36C72.5 16.146 56.354 0 36.5 0ZM14.468 36C14.468 41.598 15.278 46.872 16.682 51.606C14.09 52.38 11.732 53.316 9.644 54.396C6.044 49.158 3.92 42.822 3.92 36C3.92 29.268 5.972 23.004 9.482 17.82C11.588 18.918 13.964 19.89 16.592 20.682C15.242 25.326 14.468 30.51 14.468 36ZM17.672 17.406C15.44 16.74 13.406 15.948 11.606 15.048C15.08 10.926 19.562 7.686 24.674 5.688C21.812 8.658 19.436 12.672 17.672 17.406ZM29.066 19.584C26.222 19.296 23.486 18.846 20.912 18.252C23.468 11.394 27.464 6.336 32.144 4.356C30.56 8.19 29.624 13.968 29.066 19.584ZM36.5 19.962C35.15 19.962 33.818 19.926 32.486 19.854C33.494 10.152 35.276 4.464 36.5 3.492C37.724 4.464 39.506 10.152 40.514 19.854C39.182 19.926 37.85 19.962 36.5 19.962ZM61.412 15.048C59.612 15.948 57.578 16.74 55.328 17.406C53.582 12.672 51.188 8.658 48.344 5.688C53.438 7.686 57.92 10.926 61.412 15.048ZM40.856 4.374C45.536 6.354 49.532 11.412 52.088 18.27C49.532 18.864 46.796 19.314 43.934 19.602C43.376 13.968 42.44 8.19 40.856 4.374ZM44.204 49.284C44.69 42.948 44.726 37.404 44.726 36C44.726 34.614 44.69 29.214 44.24 23.004C47.372 22.698 50.36 22.212 53.168 21.546C54.41 25.902 55.13 30.798 55.13 36C55.13 41.31 54.392 46.296 53.096 50.724C50.288 50.076 47.318 49.59 44.204 49.284ZM48.344 66.312C51.134 63.396 53.492 59.472 55.238 54.864C57.434 55.512 59.45 56.286 61.232 57.15C57.776 61.182 53.348 64.35 48.344 66.312ZM56.318 51.588C57.722 46.854 58.514 41.58 58.514 36C58.514 30.51 57.74 25.344 56.39 20.682C59.018 19.89 61.376 18.918 63.5 17.82C67.01 23.022 69.062 29.268 69.062 36C69.062 42.822 66.938 49.158 63.338 54.396C61.268 53.316 58.91 52.362 56.318 51.588Z" fill="url(#paint1_linear_4709_7750)"/>
<defs>
<linearGradient id="paint0_linear_4709_7750" x1="72.5" y1="-2.14577e-06" x2="0.500002" y2="72" gradientUnits="userSpaceOnUse">
<stop stop-color="#FF6A00"/>
<stop offset="1" stop-color="#EE0979"/>
</linearGradient>
<linearGradient id="paint1_linear_4709_7750" x1="72.5" y1="-2.14577e-06" x2="0.500002" y2="72" gradientUnits="userSpaceOnUse">
<stop stop-color="#FF6A00"/>
<stop offset="1" stop-color="#EE0979"/>
</linearGradient>
</defs>
</svg>
