<svg width="40" height="40" viewBox="0 0 40 40" fill="none" xmlns="http://www.w3.org/2000/svg">
<path d="M15.9574 0.2151L1.48936 6.93482C0.638298 7.36147 0 8.42809 0 9.49471V36.4803C0 37.9735 1.06383 39.2535 2.44681 39.2535H18.4043C18.9362 39.2535 19.2553 38.8268 19.2553 38.1868V2.77499C19.3617 0.748412 17.5532 -0.531535 15.9574 0.2151ZM6.91489 33.1737H4.68085C4.04255 33.1737 3.51064 32.6404 3.51064 32.0004C3.51064 31.3605 4.04255 30.8272 4.68085 30.8272H6.91489C7.55319 30.8272 8.0851 31.3605 8.0851 32.0004C7.97872 32.6404 7.55319 33.1737 6.91489 33.1737ZM6.91489 26.8807H4.68085C4.04255 26.8807 3.51064 26.3473 3.51064 25.7074C3.51064 25.0674 4.04255 24.5341 4.68085 24.5341H6.91489C7.55319 24.5341 8.0851 25.0674 8.0851 25.7074C7.97872 26.3473 7.55319 26.8807 6.91489 26.8807ZM6.91489 20.8009H4.68085C4.04255 20.8009 3.51064 20.2676 3.51064 19.6276C3.51064 18.9876 4.04255 18.4543 4.68085 18.4543H6.91489C7.55319 18.4543 8.0851 18.9876 8.0851 19.6276C7.97872 20.2676 7.55319 20.8009 6.91489 20.8009ZM6.91489 15.0411H4.68085C4.04255 15.0411 3.51064 14.5078 3.51064 13.8679C3.51064 13.2279 4.04255 12.6946 4.68085 12.6946H6.91489C7.55319 12.6946 8.0851 13.2279 8.0851 13.8679C7.97872 14.5078 7.55319 15.0411 6.91489 15.0411ZM14.3617 33.1737H12.1277C11.4894 33.1737 10.9574 32.6404 10.9574 32.0004C10.9574 31.3605 11.4894 30.8272 12.1277 30.8272H14.3617C15 30.8272 15.5319 31.3605 15.5319 32.0004C15.5319 32.6404 15 33.1737 14.3617 33.1737ZM14.3617 26.8807H12.1277C11.4894 26.8807 10.9574 26.3473 10.9574 25.7074C10.9574 25.0674 11.4894 24.5341 12.1277 24.5341H14.3617C15 24.5341 15.5319 25.0674 15.5319 25.7074C15.5319 26.3473 15 26.8807 14.3617 26.8807ZM14.3617 20.8009H12.1277C11.4894 20.8009 10.9574 20.2676 10.9574 19.6276C10.9574 18.9876 11.4894 18.4543 12.1277 18.4543H14.3617C15 18.4543 15.5319 18.9876 15.5319 19.6276C15.5319 20.2676 15 20.8009 14.3617 20.8009ZM14.3617 15.0411H12.1277C11.4894 15.0411 10.9574 14.5078 10.9574 13.8679C10.9574 13.2279 11.4894 12.6946 12.1277 12.6946H14.3617C15 12.6946 15.5319 13.2279 15.5319 13.8679C15.5319 14.5078 15 15.0411 14.3617 15.0411Z" fill="url(#paint0_linear_4740_50215)"/>
<path d="M36.0637 19.2008L23.936 14.1877C22.5531 13.6544 21.1701 14.6144 21.1701 16.1076V38.6134C21.1701 39.04 21.4892 39.36 21.9148 39.36H27.9786C26.8084 37.9734 26.0637 36.1601 26.0637 34.1336C26.0637 29.6537 29.6807 26.0272 34.1488 26.0272C35.319 26.0272 36.3829 26.2406 37.3403 26.6672V21.0141C37.3403 20.2675 36.8084 19.5208 36.0637 19.2008ZM26.1701 26.8805H23.936C23.2977 26.8805 22.7658 26.3472 22.7658 25.7072C22.7658 25.0673 23.2977 24.534 23.936 24.534H26.1701C26.8084 24.534 27.3403 25.0673 27.3403 25.7072C27.2339 26.3472 26.8084 26.8805 26.1701 26.8805ZM26.1701 20.8008H23.936C23.2977 20.8008 22.7658 20.2675 22.7658 19.6275C22.7658 18.9875 23.2977 18.4542 23.936 18.4542H26.1701C26.8084 18.4542 27.3403 18.9875 27.3403 19.6275C27.2339 20.2675 26.8084 20.8008 26.1701 20.8008Z" fill="url(#paint1_linear_4740_50215)"/>
<path d="M34.1489 28.2672C30.9574 28.2672 28.2979 30.9338 28.2979 34.1336C28.2979 37.3335 30.9574 40 34.1489 40C37.3404 40 40 37.3335 40 34.1336C40 30.9338 37.3404 28.2672 34.1489 28.2672ZM36.2766 37.3335C35.851 37.5468 35.4255 37.7601 34.8936 37.8668V38.6134C34.8936 38.8268 34.6808 39.0401 34.4681 39.0401H33.8298C33.617 39.0401 33.4042 38.8268 33.4042 38.6134V37.8668C32.234 37.6535 31.383 37.1202 31.0638 36.1602C30.9574 35.9469 31.1702 35.7336 31.383 35.7336H32.0213C32.234 35.7336 32.4468 35.8402 32.5532 36.0535C32.7659 36.5869 33.2979 36.8002 34.1489 36.8002C35.1064 36.8002 35.5319 36.4802 35.5319 35.8402C35.5319 35.5202 35.4255 35.3069 35.2127 35.2002C35 35.0936 34.4681 34.8803 33.617 34.7736C32.7659 34.5603 32.234 34.3469 31.8085 34.027C31.4893 33.707 31.2766 33.2803 31.2766 32.747C31.2766 32.2137 31.4893 31.7871 32.0213 31.3604C32.3404 31.0404 32.8723 30.9338 33.4042 30.8271V29.9738C33.4042 29.7605 33.617 29.5471 33.8298 29.5471H34.4681C34.6808 29.5471 34.8936 29.7605 34.8936 29.9738V30.8271C35.9574 30.9338 36.4893 31.3604 36.8085 32.0004C36.9149 32.3204 36.7021 32.5337 36.383 32.5337H35.6383C35.5319 32.5337 35.3191 32.427 35.2127 32.3204C35.1064 32.0004 34.6808 31.8937 34.0425 31.8937C33.1915 31.8937 32.7659 32.107 32.7659 32.5337C32.7659 32.8537 32.8723 32.9603 33.1915 33.067C33.4042 33.1737 33.9361 33.2803 34.7872 33.4937C35.5319 33.6003 36.1702 33.9203 36.4893 34.2403C36.8085 34.5603 37.0213 35.0936 37.0213 35.6269C37.234 36.3735 36.9149 36.9068 36.2766 37.3335Z" fill="url(#paint2_linear_4740_50215)"/>
<defs>
<linearGradient id="paint0_linear_4740_50215" x1="40" y1="-1.19209e-06" x2="-6.74724e-05" y2="40" gradientUnits="userSpaceOnUse">
<stop stop-color="#FF6A00"/>
<stop offset="1" stop-color="#EE0979"/>
</linearGradient>
<linearGradient id="paint1_linear_4740_50215" x1="40" y1="-1.19209e-06" x2="-6.74724e-05" y2="40" gradientUnits="userSpaceOnUse">
<stop stop-color="#FF6A00"/>
<stop offset="1" stop-color="#EE0979"/>
</linearGradient>
<linearGradient id="paint2_linear_4740_50215" x1="40" y1="-1.19209e-06" x2="-6.74724e-05" y2="40" gradientUnits="userSpaceOnUse">
<stop stop-color="#FF6A00"/>
<stop offset="1" stop-color="#EE0979"/>
</linearGradient>
</defs>
</svg>
