<svg width="56" height="56" viewBox="0 0 56 56" fill="none" xmlns="http://www.w3.org/2000/svg">
<path d="M36.4971 6.44502C36.3571 5.87213 35.9369 5.58568 35.5167 5.44246L31.5953 4.15346L29.2144 0.716113C28.9343 0.286445 28.5141 0 27.9539 0C27.3937 0 26.9735 0.286445 26.6934 0.716113L24.3125 4.15346L20.391 5.44246C19.8308 5.58568 19.5507 6.01535 19.4107 6.44502C19.2706 7.01791 19.2706 7.44758 19.6908 7.87724L22.0717 11.1714V15.3248C22.0717 15.8977 22.3518 16.3274 22.7719 16.6138C23.052 16.757 23.3321 16.9003 23.7523 16.9003C23.8924 16.9003 24.0324 16.9003 24.3125 16.757L28.234 15.468L32.1555 16.757C32.7157 16.9003 33.1358 16.9003 33.556 16.4706C33.9762 16.1842 34.2563 15.6113 34.2563 15.1816V11.0281L36.3571 7.87724C36.6372 7.44758 36.7772 6.87468 36.4971 6.44502Z" fill="url(#paint0_linear_4771_99705)"/>
<path d="M55.825 20.1945C55.6849 19.6216 55.2648 19.3352 54.8446 19.192L50.9231 17.903L48.5422 14.4656C48.2621 14.036 47.7019 13.7495 47.2818 13.7495C46.7216 13.7495 46.3014 14.036 46.0213 14.4656L43.6404 17.903L39.7189 19.192C39.1587 19.3352 38.8786 19.7649 38.7385 20.1945C38.5985 20.7674 38.5985 21.1971 39.0187 21.6268L41.3996 24.9209V29.0743C41.3996 29.6472 41.6797 30.0769 42.0998 30.3633C42.52 30.6498 43.0802 30.793 43.5003 30.6498L47.4218 29.3608L51.3433 30.6498C51.4834 30.6498 51.6234 30.793 51.9035 30.793C52.1836 30.793 52.6038 30.6498 52.8839 30.5066C53.304 30.2201 53.5841 29.6472 53.5841 29.2175V25.0641L55.965 21.77C55.965 21.1971 56.1051 20.6242 55.825 20.1945Z" fill="url(#paint1_linear_4771_99705)"/>
<path d="M17.1702 18.9053C17.0302 18.3324 16.61 18.046 16.1898 17.9028L12.2684 16.6137L9.88746 13.1764C9.60736 12.7467 9.1872 12.6035 8.62699 12.6035C8.06677 12.6035 7.64662 12.7467 7.36651 13.1764L4.98561 16.6137L1.06413 17.9028C0.503921 18.046 0.223815 18.4756 0.0837623 18.9053C-0.0562906 19.4782 -0.0562906 19.9079 0.363868 20.3375L2.74477 23.7749V27.9283C2.74477 28.5012 3.02487 28.9309 3.44503 29.2173C3.86519 29.5038 4.4254 29.647 4.84556 29.5038L8.76704 28.2148L12.6885 29.5038C12.8286 29.5038 12.9686 29.647 13.2487 29.647C13.5288 29.647 13.949 29.5038 14.2291 29.3606C14.6493 29.0741 14.9294 28.5012 14.9294 28.0716V23.9181L17.3103 20.624C17.3103 20.0511 17.3103 19.4782 17.1702 18.9053Z" fill="url(#paint2_linear_4771_99705)"/>
<path d="M39.8586 35.6626H34.2565H21.5117H15.9096C14.9292 35.6626 14.0889 36.5219 14.0889 37.5245V38.527L15.9096 40.3889C17.03 41.5347 18.2905 42.3941 19.831 42.8237L24.0326 44.1127V43.8263C24.0326 42.6805 24.8729 41.8212 25.9934 41.8212H29.7748C30.8952 41.8212 31.7355 42.6805 31.7355 43.8263V44.1127L35.7971 42.8237C37.3376 42.3941 38.5981 41.5347 39.7185 40.3889L41.5392 38.3838V37.3813C41.6793 36.5219 40.839 35.6626 39.8586 35.6626Z" fill="url(#paint3_linear_4771_99705)"/>
<path d="M36.3574 44.256L31.8757 45.6882V46.4044C31.8757 47.5501 31.0353 48.4095 29.9149 48.4095H26.1335C25.0131 48.4095 24.1728 47.5501 24.1728 46.4044V45.6882L19.551 44.256C17.8704 43.6831 16.3298 42.6806 15.0693 41.3916L14.229 40.5322V54.1384C14.229 55.1409 15.0693 56.0003 16.0497 56.0003H39.8587C40.839 56.0003 41.6794 55.1409 41.6794 54.1384V40.5322L40.839 41.3916C39.5786 42.8238 38.038 43.6831 36.3574 44.256Z" fill="url(#paint4_linear_4771_99705)"/>
<path d="M23.6125 30.5063C23.3324 30.5063 23.0522 30.7928 23.0522 31.0792V34.2301H32.8559V31.0792C32.8559 30.7928 32.5758 30.5063 32.2957 30.5063H23.6125Z" fill="url(#paint5_linear_4771_99705)"/>
<path d="M29.775 46.9772C30.0551 46.9772 30.3352 46.6908 30.3352 46.4043V46.1179V43.8263C30.3352 43.5399 30.0551 43.2534 29.775 43.2534H25.9936C25.7135 43.2534 25.4333 43.5399 25.4333 43.8263V46.1179V46.4043C25.4333 46.6908 25.7135 46.9772 25.9936 46.9772H29.775Z" fill="url(#paint6_linear_4771_99705)"/>
<defs>
<linearGradient id="paint0_linear_4771_99705" x1="36.6498" y1="-5.03667e-07" x2="19.7547" y2="17.3176" gradientUnits="userSpaceOnUse">
<stop stop-color="#FF6A00"/>
<stop offset="1" stop-color="#EE0979"/>
</linearGradient>
<linearGradient id="paint1_linear_4771_99705" x1="56.0001" y1="13.7495" x2="38.9592" y2="31.0921" gradientUnits="userSpaceOnUse">
<stop stop-color="#FF6A00"/>
<stop offset="1" stop-color="#EE0979"/>
</linearGradient>
<linearGradient id="paint2_linear_4771_99705" x1="17.3103" y1="12.6035" x2="0.268831" y2="29.9117" gradientUnits="userSpaceOnUse">
<stop stop-color="#FF6A00"/>
<stop offset="1" stop-color="#EE0979"/>
</linearGradient>
<linearGradient id="paint3_linear_4771_99705" x1="41.5546" y1="35.6626" x2="36.8046" y2="51.1015" gradientUnits="userSpaceOnUse">
<stop stop-color="#FF6A00"/>
<stop offset="1" stop-color="#EE0979"/>
</linearGradient>
<linearGradient id="paint4_linear_4771_99705" x1="41.6794" y1="40.5322" x2="28.4483" y2="64.0127" gradientUnits="userSpaceOnUse">
<stop stop-color="#FF6A00"/>
<stop offset="1" stop-color="#EE0979"/>
</linearGradient>
<linearGradient id="paint5_linear_4771_99705" x1="32.8559" y1="30.5063" x2="30.3838" y2="37.0149" gradientUnits="userSpaceOnUse">
<stop stop-color="#FF6A00"/>
<stop offset="1" stop-color="#EE0979"/>
</linearGradient>
<linearGradient id="paint6_linear_4771_99705" x1="30.3352" y1="43.2534" x2="26.7478" y2="47.9757" gradientUnits="userSpaceOnUse">
<stop stop-color="#FF6A00"/>
<stop offset="1" stop-color="#EE0979"/>
</linearGradient>
</defs>
</svg>
