<svg width="73" height="72" viewBox="0 0 73 72" fill="none" xmlns="http://www.w3.org/2000/svg">
<path d="M33.4961 28.7118C33.4208 28.7118 33.3266 28.7118 33.2324 28.693C33.3266 28.693 33.4019 28.7118 33.4961 28.7118Z" fill="url(#paint0_linear_4709_7754)"/>
<path d="M32.6677 16.0053C32.3852 16.2785 32.1027 16.747 32.2534 17.3716C32.3475 17.7425 32.5735 18.0743 32.8937 18.3476V15.8101C32.856 15.8491 32.8184 15.8686 32.7807 15.9077C32.743 15.9272 32.7054 15.9662 32.6677 16.0053Z" fill="url(#paint1_linear_4709_7754)"/>
<path d="M36.7736 23.7546C36.6041 23.0519 36.0767 22.4273 35.3799 22.0369V26.3898C35.6059 26.2726 35.8319 26.1165 36.0202 25.9408C36.0767 25.8822 36.1332 25.8432 36.1897 25.7846C36.7359 25.1991 36.9431 24.4963 36.7736 23.7546Z" fill="url(#paint2_linear_4709_7754)"/>
<path d="M46.7736 36.9499H12.5722C11.8565 36.9499 11.1973 36.4814 10.9713 35.7787C9.95435 32.4799 7.43068 29.8643 4.24784 28.8102C3.56984 28.5759 3.11784 27.8928 3.11784 27.151V14.9122C3.11784 14.1704 3.56984 13.4872 4.24784 13.253C7.43068 12.1989 9.95435 9.58328 10.9713 6.28445C11.1973 5.58174 11.8565 5.11326 12.5722 5.11326H49.9564V2.40002H4.26667C2.195 2.40002 0.5 4.1568 0.5 6.30397V35.7397C0.5 37.9064 2.195 39.6436 4.26667 39.6436H44.6077C45.3234 39.6436 45.9637 39.1751 46.2086 38.4724L46.7736 36.9499Z" fill="url(#paint3_linear_4709_7754)"/>
<path d="M65.1553 14.268C65.1553 16.8056 65.1553 25.2771 65.1553 27.7952C65.1553 28.1856 64.9293 28.5369 64.5714 28.654C63.4979 29.0249 63.2154 29.6495 62.1419 30.4889C61.4074 33.046 60.5034 35.7592 59.4111 38.3358C59.1474 38.9604 59.5806 39.6436 60.2209 39.6436H64.7974C66.4359 39.6436 67.7543 38.2772 67.7543 36.579V5.46462C67.7543 3.7664 66.4359 2.40002 64.7974 2.40002H53.5728V5.09374H56.2848C56.6991 5.09374 57.0381 5.38654 57.1511 5.79645C58.1116 9.46616 60.9178 12.3746 64.4584 13.3701C64.8539 13.4872 65.1553 13.8386 65.1553 14.268Z" fill="url(#paint4_linear_4709_7754)"/>
<path d="M52.367 2.40002H51.1616V7.80698H52.367V2.40002Z" fill="url(#paint5_linear_4709_7754)"/>
<path d="M52.367 10.5007H51.1616V15.9077H52.367V10.5007Z" fill="url(#paint6_linear_4709_7754)"/>
<path d="M52.367 18.621H51.1616V24.0279H52.367V18.621Z" fill="url(#paint7_linear_4709_7754)"/>
<path d="M61.539 18.1915C61.4825 16.8251 60.861 15.4977 60.2207 14.4632C59.6745 13.5848 58.3938 13.7214 58.036 14.717L44.7585 52.5657C44.476 53.3855 43.4401 53.6978 42.8375 53.0927C42.1971 52.4681 41.4438 51.9801 40.6151 51.6678C38.6941 50.9455 36.5471 51.1993 34.6073 52.429C32.7616 53.5807 31.2926 55.4936 30.5016 57.7774C28.8066 62.6183 30.577 67.7325 34.4566 69.1965C35.5301 69.6064 36.679 69.704 37.809 69.4892C38.713 69.3331 39.5981 68.9817 40.4456 68.4352C42.2913 67.2835 43.7603 65.3706 44.5513 63.0868C44.9468 61.9742 45.154 60.8225 45.1916 59.7099C45.2105 58.9486 45.267 58.2069 45.4741 57.4846C46.0956 55.2789 47.3386 51.7849 51.4443 46.9245C58.375 38.7262 61.652 21.0609 61.539 18.1915ZM42.1406 62.1694C41.538 63.8871 40.4645 65.312 39.1085 66.1514C37.8466 66.9322 36.5095 67.1274 35.323 66.6784C32.7805 65.7219 31.6881 62.1303 32.8935 58.6753C33.4961 56.9576 34.5696 55.5327 35.9256 54.6933C36.4906 54.342 37.0933 54.0882 37.6771 53.9906C38.374 53.854 39.0708 53.9125 39.7111 54.1663C40.8976 54.6152 41.8016 55.6498 42.2913 57.0942C42.442 57.5432 42.5361 58.0117 42.5926 58.4996V58.5582C42.7056 59.7294 42.555 60.9787 42.1406 62.1694ZM51.1618 43.3914C50.465 43.3914 49.9 42.8058 49.9 42.0836C49.9 41.3614 50.465 40.7758 51.1618 40.7758C51.8587 40.7758 52.4237 41.3614 52.4237 42.0836C52.4237 42.8058 51.8587 43.3914 51.1618 43.3914Z" fill="url(#paint8_linear_4709_7754)"/>
<path d="M71.8597 57.7775C71.0499 55.4937 69.5997 53.5808 67.754 52.4291C65.8142 51.2189 63.686 50.9457 61.7462 51.6679C60.5974 52.0973 59.618 52.8586 58.8459 53.8736C58.601 54.1859 58.149 54.1469 58.0172 53.7565L55.0604 45.324C54.9285 44.9531 54.4389 44.8945 54.2317 45.2264C53.6102 46.2024 52.9322 47.1003 52.2354 47.9201C52.2354 48.1543 52.2354 48.3105 52.2354 48.5642C55.3052 52.5658 56.341 55.5328 56.8872 57.4652C57.0944 58.1875 57.132 58.9487 57.1697 59.71C57.2074 60.8421 57.4145 61.9743 57.81 63.0869C58.6199 65.3707 60.07 67.2836 61.9157 68.4353C62.7632 68.9623 63.6672 69.3332 64.5524 69.4894C65.6824 69.7041 66.8312 69.6065 67.9047 69.1966C71.7655 67.7326 73.5547 62.5989 71.8597 57.7775ZM67.0195 66.6785C65.833 67.1275 64.4959 66.9323 63.234 66.1515C61.878 65.3122 60.8045 63.8872 60.2019 62.1695C59.7875 60.9593 59.6369 59.7295 59.7499 58.5583V58.4998C59.8064 58.0118 59.9005 57.5433 60.0512 57.0944C60.522 55.6499 61.4449 54.6154 62.6314 54.1664C63.2717 53.9322 63.9685 53.8736 64.6654 53.9907C65.2492 54.0883 65.8519 54.3421 66.4169 54.6934C67.7729 55.5328 68.8464 56.9577 69.449 58.6755C70.6544 62.1304 69.562 65.7221 67.0195 66.6785Z" fill="url(#paint9_linear_4709_7754)"/>
<path d="M34.1365 7.18225C26.7727 7.18225 20.7837 13.3895 20.7837 21.0217C20.7837 28.6539 26.7727 34.8807 34.1365 34.8807C41.5004 34.8807 47.4894 28.6735 47.4894 21.0217C47.4894 13.3895 41.5004 7.18225 34.1365 7.18225Z" fill="url(#paint10_linear_4709_7754)"/>
<path d="M38.3363 22.7785C37.9219 22.2125 37.3381 21.6074 36.5848 21.0218C36.3588 20.8266 35.8879 20.5143 35.1723 20.0458C34.5696 19.6554 34.0987 19.304 33.7974 19.0112C33.0064 18.25 32.5921 17.5082 32.6109 16.786C32.6109 16.3175 32.7427 15.9466 32.9876 15.6343C33.2889 15.2439 33.7221 15.0683 34.2871 15.0683C34.8144 15.0683 35.2288 15.2049 35.5113 15.4782C35.9068 15.849 36.1328 16.3566 36.2081 17.0007L39.1838 16.6103C39.1084 15.9076 38.9013 15.3025 38.5246 14.7755C38.1479 14.2289 37.6583 13.819 37.0556 13.5262C36.5471 13.2724 35.9821 13.1163 35.3418 13.0187L35.3606 11.3985L33.1006 11.379L33.0817 12.9992C32.4037 13.0968 31.8199 13.2724 31.3114 13.5652C30.0307 14.2875 29.4092 15.3806 29.3904 16.8055C29.3904 17.6058 29.6164 18.3476 30.0496 19.0308C30.4827 19.6359 31.1984 20.3386 32.2154 21.1194C33.4207 22.0173 34.3436 22.7005 34.9463 23.1494C35.7184 23.8131 36.0951 24.4572 36.0951 25.1209C36.0951 25.5699 35.9821 25.9212 35.7749 26.1554C35.3606 26.6434 34.8144 26.8972 34.1364 26.9167C33.6656 26.9362 33.2324 26.7801 32.8746 26.4678C32.3849 26.0383 32.0647 25.3747 31.9329 24.4572L28.9761 24.5939C29.0326 25.4332 29.2586 26.1945 29.6352 26.8386C30.0119 27.5023 30.5392 28.0098 31.1984 28.4002C31.6881 28.693 32.2531 28.8882 32.8934 29.0053L32.8746 30.6645L35.1157 30.684V29.0639C35.3982 29.0444 35.6619 29.0053 35.9068 28.9468C36.8296 28.732 37.5453 28.3807 38.0538 27.8537C38.8259 27.0729 39.2026 26.1359 39.1838 25.0428C39.1838 24.6134 39.0331 24.1059 38.7506 23.5203C38.6941 23.2861 38.5246 23.0518 38.3363 22.7785Z" fill="white"/>
<defs>
<linearGradient id="paint0_linear_4709_7754" x1="33.4961" y1="28.693" x2="33.4934" y2="28.7305" gradientUnits="userSpaceOnUse">
<stop stop-color="#FF6A00"/>
<stop offset="1" stop-color="#EE0979"/>
</linearGradient>
<linearGradient id="paint1_linear_4709_7754" x1="32.8937" y1="15.8101" x2="31.6211" y2="16.1522" gradientUnits="userSpaceOnUse">
<stop stop-color="#FF6A00"/>
<stop offset="1" stop-color="#EE0979"/>
</linearGradient>
<linearGradient id="paint2_linear_4709_7754" x1="36.8312" y1="22.0369" x2="34.219" y2="22.9078" gradientUnits="userSpaceOnUse">
<stop stop-color="#FF6A00"/>
<stop offset="1" stop-color="#EE0979"/>
</linearGradient>
<linearGradient id="paint3_linear_4709_7754" x1="49.9564" y1="2.40002" x2="14.1621" y2="49.932" gradientUnits="userSpaceOnUse">
<stop stop-color="#FF6A00"/>
<stop offset="1" stop-color="#EE0979"/>
</linearGradient>
<linearGradient id="paint4_linear_4709_7754" x1="67.7543" y1="2.40002" x2="42.9829" y2="11.8324" gradientUnits="userSpaceOnUse">
<stop stop-color="#FF6A00"/>
<stop offset="1" stop-color="#EE0979"/>
</linearGradient>
<linearGradient id="paint5_linear_4709_7754" x1="52.367" y1="2.40002" x2="50.0704" y2="2.91198" gradientUnits="userSpaceOnUse">
<stop stop-color="#FF6A00"/>
<stop offset="1" stop-color="#EE0979"/>
</linearGradient>
<linearGradient id="paint6_linear_4709_7754" x1="52.367" y1="10.5007" x2="50.0704" y2="11.0127" gradientUnits="userSpaceOnUse">
<stop stop-color="#FF6A00"/>
<stop offset="1" stop-color="#EE0979"/>
</linearGradient>
<linearGradient id="paint7_linear_4709_7754" x1="52.367" y1="18.621" x2="50.0704" y2="19.1329" gradientUnits="userSpaceOnUse">
<stop stop-color="#FF6A00"/>
<stop offset="1" stop-color="#EE0979"/>
</linearGradient>
<linearGradient id="paint8_linear_4709_7754" x1="61.5418" y1="13.8798" x2="13.6572" y2="41.1077" gradientUnits="userSpaceOnUse">
<stop stop-color="#FF6A00"/>
<stop offset="1" stop-color="#EE0979"/>
</linearGradient>
<linearGradient id="paint9_linear_4709_7754" x1="72.5002" y1="45.0084" x2="48.3619" y2="64.8996" gradientUnits="userSpaceOnUse">
<stop stop-color="#FF6A00"/>
<stop offset="1" stop-color="#EE0979"/>
</linearGradient>
<linearGradient id="paint10_linear_4709_7754" x1="47.4894" y1="7.18225" x2="19.8094" y2="33.8702" gradientUnits="userSpaceOnUse">
<stop stop-color="#FF6A00"/>
<stop offset="1" stop-color="#EE0979"/>
</linearGradient>
</defs>
</svg>
