<svg width="56" height="46" viewBox="0 0 56 46" fill="none" xmlns="http://www.w3.org/2000/svg">
<path d="M50.5101 0.600098H2.24489C0.982141 0.600098 0 1.60846 0 2.90492V6.5062H52.755V2.90492C52.755 1.60846 51.7729 0.600098 50.5101 0.600098Z" fill="url(#paint0_linear_4771_99768)"/>
<path d="M30.727 27.6817C30.727 25.5209 31.9897 23.6483 33.954 22.928V21.4875C33.954 18.6065 34.9362 15.8695 36.6198 13.8528H0V33.4437C0 34.7402 0.982141 35.7486 2.24489 35.7486H30.5867V27.6817H30.727ZM4.48979 31.427V24.3685H19.0816V31.427H4.48979Z" fill="url(#paint1_linear_4771_99768)"/>
<path d="M54.5791 25.9531H40.2679V21.1994C40.2679 18.7505 41.8112 16.5898 44.0561 16.1576C47.0025 15.7254 49.8087 17.8862 49.8087 21.0553C49.8087 22.0637 50.6505 22.6399 51.352 22.6399C52.1939 22.6399 52.8954 21.9197 52.8954 21.0553C52.8954 16.3017 48.9668 12.4123 44.1964 12.9885C40.1276 13.4206 37.0408 17.166 37.0408 21.4875V26.0971H35.4975C34.6556 26.0971 33.9541 26.8174 33.9541 27.6817V43.8155C33.9541 44.6798 34.7959 45.4 35.4975 45.4H54.4388C55.4209 45.4 55.9821 44.5357 55.9821 43.8155V27.6817C56.1224 26.6733 55.4209 25.9531 54.5791 25.9531ZM46.5816 36.901V39.0618C46.5816 40.0701 45.8801 40.6463 45.0383 40.6463C44.0561 40.6463 43.4949 39.9261 43.4949 39.0618V36.901C42.5128 36.1807 41.9515 35.3164 41.9515 34.164C41.9515 32.0033 43.9158 30.5627 45.8801 31.1389C47.0025 31.427 47.9847 32.4354 48.2653 33.5878C48.5459 34.8843 47.7041 36.1807 46.5816 36.901Z" fill="url(#paint2_linear_4771_99768)"/>
<defs>
<linearGradient id="paint0_linear_4771_99768" x1="56.0001" y1="0.600096" x2="12.2929" y2="55.2343" gradientUnits="userSpaceOnUse">
<stop stop-color="#FF6A00"/>
<stop offset="1" stop-color="#EE0979"/>
</linearGradient>
<linearGradient id="paint1_linear_4771_99768" x1="56.0001" y1="0.600096" x2="12.2929" y2="55.2343" gradientUnits="userSpaceOnUse">
<stop stop-color="#FF6A00"/>
<stop offset="1" stop-color="#EE0979"/>
</linearGradient>
<linearGradient id="paint2_linear_4771_99768" x1="56.0001" y1="0.600096" x2="12.2929" y2="55.2343" gradientUnits="userSpaceOnUse">
<stop stop-color="#FF6A00"/>
<stop offset="1" stop-color="#EE0979"/>
</linearGradient>
</defs>
</svg>
