<svg width="73" height="72" viewBox="0 0 73 72" fill="none" xmlns="http://www.w3.org/2000/svg">
<path d="M72.4977 36.8732C72.6417 30.7697 66.0197 25.2783 55.9609 22.0195C56.0509 13.3053 53.9635 6.31958 49.9688 3.11478C49.7708 1.36834 48.3133 0 46.5139 0C45.4342 0 44.4625 0.504126 43.8327 1.29632C39.4961 1.67442 34.7815 5.02326 30.4989 10.4786C26.2882 8.46212 22.3115 7.38184 18.9285 7.38184C15.9774 7.38184 13.4762 8.21005 11.6588 9.93848C8.54578 12.9092 8.04193 18.0585 9.67942 24.144C4.08318 27.0068 0.610267 30.8417 0.502301 35.1448C0.358346 41.2483 6.98027 46.7397 17.0391 49.9985C16.9671 58.3166 18.8565 65.0323 22.4914 68.4171C22.4914 68.4531 22.4734 68.4891 22.4734 68.5251C22.4734 70.4336 24.0209 72 25.9463 72C26.99 72 27.9257 71.5139 28.5555 70.7757C33.0361 70.6857 38.0025 67.2468 42.4831 61.5394C46.6938 63.5379 50.6706 64.6181 54.0535 64.6181C57.0046 64.6181 59.5238 63.8079 61.3232 62.0795C64.4362 59.1088 64.9401 53.9595 63.3026 47.874C68.9168 45.0113 72.3897 41.1763 72.4977 36.8732ZM54.0355 36.5311C56.1588 39.808 57.7603 42.9767 58.858 45.9115C56.3208 46.9197 53.3877 47.7839 50.0947 48.3961C51.1024 46.0555 52.0201 43.6069 52.8119 41.0323C53.2797 39.5379 53.6756 38.0255 54.0355 36.5311ZM48.8531 24.2161C48.7272 24.072 48.5832 23.946 48.4572 23.802C49.7708 24.072 51.0484 24.3601 52.2721 24.6842C52.2001 25.6924 52.1101 26.7007 52.0021 27.7449C50.9945 26.5566 49.9688 25.3863 48.8531 24.2161ZM43.4008 4.95124C43.9587 6.12153 45.1463 6.93173 46.5139 6.93173C47.1617 6.93173 47.7555 6.75169 48.2593 6.44561C50.0408 8.24606 51.3543 11.4509 51.9841 15.7539C52.2181 17.4104 52.344 19.1568 52.362 20.9932C49.6809 20.3091 46.8378 19.7869 43.8147 19.4269C40.4858 16.5281 37.0668 14.0795 33.7559 12.189C37.1208 8.06602 40.5577 5.54539 43.4008 4.95124ZM31.5965 15.1058C33.5579 16.2041 35.5373 17.5004 37.5167 18.9587C37.3187 18.9587 37.1028 18.9407 36.9049 18.9227C36.2931 18.9047 35.6813 18.9047 35.0695 18.9047C34.7456 18.9047 34.4576 18.9047 34.4576 18.9047C32.4063 18.9047 31.0387 18.9947 29.0953 19.1568C29.9051 17.7164 30.7328 16.3481 31.5965 15.1058ZM14.142 12.5311C15.2217 11.5049 16.8412 10.9827 18.9285 10.9827C21.6637 10.9827 24.9026 11.865 28.3396 13.4314C27.08 15.3218 25.8563 17.3923 24.7407 19.6429C20.3861 20.2731 16.4093 21.2993 12.9904 22.6497C11.8207 17.9865 12.2166 14.3676 14.142 12.5311ZM24.5428 48.1981C23.2292 47.928 21.9696 47.6579 20.7639 47.3338C20.8179 46.3436 20.9079 45.3353 21.0339 44.2911C22.0235 45.4614 23.0492 46.6317 24.1469 47.7839C24.2728 47.928 24.4168 48.072 24.5428 48.1981ZM17.2191 46.2356C9.06761 43.3728 4.0112 39.1058 4.10117 35.2348C4.15515 32.6242 6.60239 29.8875 10.8311 27.6189C12.3966 31.6879 14.7898 36.045 17.9568 40.3841C17.6149 42.3826 17.363 44.3271 17.2191 46.2356ZM18.9465 35.5229C16.8772 32.3541 15.2577 29.1673 14.106 26.1065C16.6432 25.0803 19.5943 24.2161 22.9053 23.6039C21.8976 25.9445 20.9799 28.3931 20.1881 30.9677C19.7203 32.4981 19.3244 34.0105 18.9465 35.5229ZM29.1133 67.1208C28.5735 65.9145 27.3679 65.0683 25.9463 65.0683C25.4425 65.0683 24.9746 65.1763 24.5428 65.3743C22.2215 62.7997 20.7639 57.6504 20.674 51.0608C23.3371 51.7269 26.1802 52.2671 29.1673 52.6091C32.4963 55.5079 35.9152 57.9565 39.2261 59.847C35.6813 64.2041 32.0284 66.7427 29.1133 67.1208ZM41.4035 56.9122C39.4421 55.814 37.4627 54.5176 35.4833 53.0593C35.6813 53.0593 35.8972 53.0773 36.0951 53.0953C36.7069 53.1133 37.3367 53.1133 37.9485 53.1133C39.9999 53.1133 41.9793 53.0233 43.9227 52.8612C43.0949 54.3016 42.2492 55.6699 41.4035 56.9122ZM42.1412 43.7329C41.0796 44.2731 39.9999 44.8132 38.6683 45.0833V46.9737C38.6683 47.5139 38.1285 48.054 37.6067 48.054H36.0052C35.4653 48.054 34.9435 47.5139 34.9435 46.9737V45.0833C32.0104 44.5431 29.8691 43.1928 29.0593 40.7442C28.7894 40.204 29.3293 39.6639 29.8691 39.6639H31.4706C32.0104 39.6639 32.5322 39.934 32.8022 40.4741C33.342 41.8245 34.6736 42.3646 36.8149 42.3646C39.2261 42.3646 40.2878 41.5544 40.2878 39.916C40.2878 39.1058 40.0179 38.5656 39.4781 38.2956C38.9382 38.0255 37.6067 37.4854 35.4653 37.2153C33.324 36.6752 31.9924 36.135 30.9128 35.3248C30.103 34.5146 29.5812 33.4344 29.5812 32.066C29.5812 30.7157 30.121 29.6174 31.4526 28.5371C32.2623 27.7269 33.5939 27.4569 34.9255 27.1868V25.0263C34.9255 24.4861 35.4653 23.946 35.9872 23.946H37.5887C38.1285 23.946 38.6503 24.4861 38.6503 25.0263V27.2048C41.3315 27.4749 42.6631 28.5551 43.4548 30.1935C43.7247 31.0038 43.1849 31.5439 42.3932 31.5439H40.5217C40.2518 31.5439 39.712 31.2738 39.4601 31.0037C39.1902 30.1935 38.1285 29.9235 36.527 29.9235C34.3857 29.9235 33.324 30.4636 33.324 31.5439C33.324 32.3541 33.5939 32.6242 34.3857 32.8942C34.9255 33.1643 36.2571 33.4344 38.3984 33.9745C40.2698 34.2446 41.8713 35.0548 42.6811 35.865C43.4908 36.6752 44.0126 38.0435 44.0126 39.3938C44.0126 41.4104 43.7607 42.6527 42.1412 43.7329ZM58.858 59.4869C57.7783 60.5131 56.1588 61.0353 54.0715 61.0353C51.3363 61.0353 48.0974 60.153 44.6604 58.5866C45.92 56.6962 47.1437 54.6257 48.2593 52.3751C52.596 51.7449 56.5547 50.7187 59.9556 49.4044C61.1073 53.9955 60.7654 57.6504 58.858 59.4869ZM62.1689 44.3991C60.6214 40.3301 58.2102 35.973 55.0432 31.6339C55.3851 29.6354 55.619 27.6729 55.7809 25.7644C63.9324 28.6092 68.9888 32.8942 68.8988 36.7652C68.8269 39.3938 66.3976 42.1305 62.1689 44.3991Z" fill="url(#paint0_linear_4709_7776)"/>
<defs>
<linearGradient id="paint0_linear_4709_7776" x1="72.5" y1="-2.14577e-06" x2="0.500002" y2="72" gradientUnits="userSpaceOnUse">
<stop stop-color="#FF6A00"/>
<stop offset="1" stop-color="#EE0979"/>
</linearGradient>
</defs>
</svg>
