<svg width="40" height="40" viewBox="0 0 40 40" fill="none" xmlns="http://www.w3.org/2000/svg">
<path d="M23.26 8.92C25.73 8.92 27.72 6.9 27.72 4.42V0H23.34C20.87 0 18.88 2.02 18.88 4.5V9.45C18.78 7.63 17.3 6.18 15.48 6.18H12.12V9.57C12.12 11.48 13.65 13.02 15.54 13.02H18.88V26.83C18.88 27.45 19.38 27.95 19.99 27.95C20.6 27.95 21.1 27.45 21.1 26.83V17.67H24.04C25.73 17.67 27.09 16.29 27.09 14.59V11.57H24.1C22.58 11.57 21.33 12.69 21.1 14.15V8.92H23.26ZM16.68 10.8C15.54 9.77 14.79 8.74 14.79 8.74C14.79 8.74 15.9 9.37 17.04 10.39C18.18 11.42 18.93 12.45 18.93 12.45C18.93 12.45 17.82 11.82 16.68 10.8ZM23.49 14.84C24.37 14.06 25.22 13.59 25.22 13.59C25.22 13.59 24.64 14.38 23.77 15.16C22.89 15.94 22.04 16.41 22.04 16.41C22.04 16.41 22.62 15.62 23.49 14.84ZM19.95 7.87C19.95 7.87 20.95 6.31 22.52 4.72C24.09 3.13 25.64 2.13 25.64 2.13C25.64 2.13 24.64 3.69 23.07 5.28C21.5 6.87 19.95 7.87 19.95 7.87Z" fill="url(#paint0_linear_4740_50211)"/>
<path d="M20 29.5C16.73 29.5 14.08 28.5999 13.93 27.4699C13.93 27.4999 13.9 27.5299 13.9 27.57C13.9 27.8099 13.9 28.68 13.9 28.92C13.9 30.09 16.63 31.04 20 31.04C23.37 31.04 26.1 30.09 26.1 28.92C26.1 28.68 26.1 27.8099 26.1 27.57C26.1 27.5399 26.08 27.5099 26.07 27.4699C25.92 28.5999 23.27 29.5 20 29.5Z" fill="url(#paint1_linear_4740_50211)"/>
<path d="M20 32.59C16.73 32.59 14.08 31.69 13.93 30.56C13.93 30.59 13.9 30.62 13.9 30.66C13.9 30.9 13.9 31.77 13.9 32.01C13.9 33.18 16.63 34.13 20 34.13C23.37 34.13 26.1 33.18 26.1 32.01C26.1 31.77 26.1 30.9 26.1 30.66C26.1 30.63 26.08 30.6 26.07 30.56C25.92 31.69 23.27 32.59 20 32.59Z" fill="url(#paint2_linear_4740_50211)"/>
<path d="M20 35.67C16.73 35.67 14.08 34.77 13.93 33.64C13.93 33.67 13.9 33.7 13.9 33.74C13.9 33.98 13.9 34.85 13.9 35.09C13.9 36.26 16.63 37.21 20 37.21C23.37 37.21 26.1 36.26 26.1 35.09C26.1 34.85 26.1 33.98 26.1 33.74C26.1 33.71 26.08 33.68 26.07 33.64C25.92 34.77 23.27 35.67 20 35.67Z" fill="url(#paint3_linear_4740_50211)"/>
<path d="M20 38.46C16.73 38.46 14.08 37.56 13.93 36.43C13.93 36.46 13.9 36.49 13.9 36.53C13.9 36.77 13.9 37.64 13.9 37.88C13.9 39.05 16.63 40 20 40C23.37 40 26.1 39.05 26.1 37.88C26.1 37.64 26.1 36.77 26.1 36.53C26.1 36.5 26.08 36.47 26.07 36.43C25.92 37.56 23.27 38.46 20 38.46Z" fill="url(#paint4_linear_4740_50211)"/>
<path d="M26.1 26.07C26.1 27.24 23.37 28.2 20 28.2C16.63 28.2 13.9 27.25 13.9 26.07C13.9 24.9 16.63 23.94 20 23.94C23.37 23.94 26.1 24.89 26.1 26.07Z" fill="url(#paint5_linear_4740_50211)"/>
<path d="M6.1 32.28C2.83 32.28 0.18 31.38 0.03 30.25C0.03 30.28 0 30.31 0 30.35C0 30.59 0 31.46 0 31.7C0 32.87 2.73 33.82 6.1 33.82C9.47 33.82 12.2 32.87 12.2 31.7C12.2 31.46 12.2 30.59 12.2 30.35C12.2 30.32 12.18 30.29 12.17 30.25C12.02 31.38 9.37 32.28 6.1 32.28Z" fill="url(#paint6_linear_4740_50211)"/>
<path d="M6.1 35.3699C2.83 35.3699 0.18 34.4699 0.03 33.3399C0.03 33.3699 0 33.3999 0 33.4399C0 33.6799 0 34.5499 0 34.7899C0 35.9599 2.73 36.9099 6.1 36.9099C9.47 36.9099 12.2 35.9599 12.2 34.7899C12.2 34.5499 12.2 33.6799 12.2 33.4399C12.2 33.4099 12.18 33.3799 12.17 33.3399C12.02 34.4699 9.37 35.3699 6.1 35.3699Z" fill="url(#paint7_linear_4740_50211)"/>
<path d="M6.1 38.46C2.83 38.46 0.18 37.56 0.03 36.43C0.03 36.46 0 36.49 0 36.53C0 36.77 0 37.64 0 37.88C0 39.05 2.73 40 6.1 40C9.47 40 12.2 39.05 12.2 37.88C12.2 37.64 12.2 36.77 12.2 36.53C12.2 36.5 12.18 36.47 12.17 36.43C12.02 37.56 9.37 38.46 6.1 38.46Z" fill="url(#paint8_linear_4740_50211)"/>
<path d="M12.2 28.8499C12.2 30.0199 9.47 30.9799 6.1 30.9799C2.73 30.9799 0 30.0199 0 28.8499C0 27.6799 2.73 26.7199 6.1 26.7199C9.47 26.7199 12.2 27.6699 12.2 28.8499Z" fill="url(#paint9_linear_4740_50211)"/>
<path d="M33.9 35.37C30.63 35.37 27.98 34.47 27.83 33.34C27.83 33.37 27.8 33.4 27.8 33.44C27.8 33.68 27.8 34.55 27.8 34.79C27.8 35.96 30.53 36.91 33.9 36.91C37.27 36.91 40 35.96 40 34.79C40 34.55 40 33.68 40 33.44C40 33.41 39.98 33.38 39.97 33.34C39.82 34.47 37.17 35.37 33.9 35.37Z" fill="url(#paint10_linear_4740_50211)"/>
<path d="M33.9 38.4599C30.63 38.4599 27.98 37.5599 27.83 36.4299C27.83 36.4599 27.8 36.4899 27.8 36.5299C27.8 36.7699 27.8 37.6399 27.8 37.8799C27.8 39.0499 30.53 39.9999 33.9 39.9999C37.27 39.9999 40 39.0499 40 37.8799C40 37.6399 40 36.7699 40 36.5299C40 36.4999 39.98 36.4699 39.97 36.4299C39.82 37.5599 37.17 38.4599 33.9 38.4599Z" fill="url(#paint11_linear_4740_50211)"/>
<path d="M40.0001 31.6499C40.0001 32.8199 37.2701 33.7799 33.9001 33.7799C30.5301 33.7799 27.8 32.8299 27.8 31.6499C27.8 30.4699 30.5301 29.5199 33.9001 29.5199C37.2701 29.5199 40.0001 30.4699 40.0001 31.6499Z" fill="url(#paint12_linear_4740_50211)"/>
<defs>
<linearGradient id="paint0_linear_4740_50211" x1="40.0001" y1="-1.19209e-06" x2="8.51155e-05" y2="40.0001" gradientUnits="userSpaceOnUse">
<stop stop-color="#FF6A00"/>
<stop offset="1" stop-color="#EE0979"/>
</linearGradient>
<linearGradient id="paint1_linear_4740_50211" x1="40.0001" y1="-1.19209e-06" x2="8.51155e-05" y2="40.0001" gradientUnits="userSpaceOnUse">
<stop stop-color="#FF6A00"/>
<stop offset="1" stop-color="#EE0979"/>
</linearGradient>
<linearGradient id="paint2_linear_4740_50211" x1="40.0001" y1="-1.19209e-06" x2="8.51155e-05" y2="40.0001" gradientUnits="userSpaceOnUse">
<stop stop-color="#FF6A00"/>
<stop offset="1" stop-color="#EE0979"/>
</linearGradient>
<linearGradient id="paint3_linear_4740_50211" x1="40.0001" y1="-1.19209e-06" x2="8.51155e-05" y2="40.0001" gradientUnits="userSpaceOnUse">
<stop stop-color="#FF6A00"/>
<stop offset="1" stop-color="#EE0979"/>
</linearGradient>
<linearGradient id="paint4_linear_4740_50211" x1="40.0001" y1="-1.19209e-06" x2="8.51155e-05" y2="40.0001" gradientUnits="userSpaceOnUse">
<stop stop-color="#FF6A00"/>
<stop offset="1" stop-color="#EE0979"/>
</linearGradient>
<linearGradient id="paint5_linear_4740_50211" x1="40.0001" y1="-1.19209e-06" x2="8.51155e-05" y2="40.0001" gradientUnits="userSpaceOnUse">
<stop stop-color="#FF6A00"/>
<stop offset="1" stop-color="#EE0979"/>
</linearGradient>
<linearGradient id="paint6_linear_4740_50211" x1="40.0001" y1="-1.19209e-06" x2="8.51155e-05" y2="40.0001" gradientUnits="userSpaceOnUse">
<stop stop-color="#FF6A00"/>
<stop offset="1" stop-color="#EE0979"/>
</linearGradient>
<linearGradient id="paint7_linear_4740_50211" x1="40.0001" y1="-1.19209e-06" x2="8.51155e-05" y2="40.0001" gradientUnits="userSpaceOnUse">
<stop stop-color="#FF6A00"/>
<stop offset="1" stop-color="#EE0979"/>
</linearGradient>
<linearGradient id="paint8_linear_4740_50211" x1="40.0001" y1="-1.19209e-06" x2="8.51155e-05" y2="40.0001" gradientUnits="userSpaceOnUse">
<stop stop-color="#FF6A00"/>
<stop offset="1" stop-color="#EE0979"/>
</linearGradient>
<linearGradient id="paint9_linear_4740_50211" x1="40.0001" y1="-1.19209e-06" x2="8.51155e-05" y2="40.0001" gradientUnits="userSpaceOnUse">
<stop stop-color="#FF6A00"/>
<stop offset="1" stop-color="#EE0979"/>
</linearGradient>
<linearGradient id="paint10_linear_4740_50211" x1="40.0001" y1="-1.19209e-06" x2="8.51155e-05" y2="40.0001" gradientUnits="userSpaceOnUse">
<stop stop-color="#FF6A00"/>
<stop offset="1" stop-color="#EE0979"/>
</linearGradient>
<linearGradient id="paint11_linear_4740_50211" x1="40.0001" y1="-1.19209e-06" x2="8.51155e-05" y2="40.0001" gradientUnits="userSpaceOnUse">
<stop stop-color="#FF6A00"/>
<stop offset="1" stop-color="#EE0979"/>
</linearGradient>
<linearGradient id="paint12_linear_4740_50211" x1="40.0001" y1="-1.19209e-06" x2="8.51155e-05" y2="40.0001" gradientUnits="userSpaceOnUse">
<stop stop-color="#FF6A00"/>
<stop offset="1" stop-color="#EE0979"/>
</linearGradient>
</defs>
</svg>
