<svg width="73" height="72" viewBox="0 0 73 72" fill="none" xmlns="http://www.w3.org/2000/svg">
<path d="M53.006 28.044C52.484 28.044 52.052 28.476 52.052 29.016C52.052 34.704 56.642 39.312 62.276 39.312C67.91 39.312 72.5 34.686 72.5 29.016C72.5 28.476 72.068 28.044 71.546 28.044H69.512L63.302 14.544H63.95C65.012 14.544 65.876 13.68 65.876 12.6C65.876 11.52 65.012 10.656 63.95 10.656H48.776C47.876 7.146 44.582 4.32 40.316 3.24C40.01 1.404 38.426 0 36.5 0C34.574 0 32.99 1.404 32.684 3.258C28.4 4.338 25.106 7.164 24.224 10.674H9.05C7.988 10.674 7.124 11.538 7.124 12.618C7.124 13.698 7.988 14.562 9.05 14.562H9.914L3.704 28.062H1.454C0.932 28.044 0.5 28.476 0.5 29.016C0.5 34.704 5.09 39.312 10.724 39.312C16.358 39.312 20.948 34.686 20.948 29.016C20.948 28.476 20.516 28.044 19.994 28.044H17.96L11.75 14.544H25.88C26.942 14.544 27.806 13.68 27.806 12.6C27.806 10.314 29.804 8.298 32.612 7.308V58.086H27.068C24.818 58.086 22.982 60.102 22.982 62.586L12.272 62.658C8.096 62.658 4.676 66.096 4.676 70.308V71.028C4.676 71.568 5.108 72 5.63 72H67.37C67.892 72 68.324 71.568 68.324 71.028V70.308C68.324 66.096 64.922 62.658 60.728 62.658H50.018V62.586C50.018 60.102 48.182 58.086 45.932 58.086H40.388V7.308C43.196 8.316 45.194 10.332 45.194 12.6C45.194 13.662 46.058 14.544 47.12 14.544H61.466L55.256 28.044H53.006ZM15.854 28.044H5.828L10.85 17.136L15.854 28.044ZM38.228 10.026V26.91C38.228 27.9 37.418 28.71 36.428 28.71C35.438 28.71 34.628 27.9 34.628 26.91V10.026C34.628 9.036 35.438 8.226 36.428 8.226C37.418 8.226 38.228 9.036 38.228 10.026ZM38.228 4.788V4.824C38.228 5.814 37.418 6.624 36.428 6.624C35.438 6.624 34.628 5.814 34.628 4.824V4.788C34.628 3.798 35.438 2.988 36.428 2.988C37.418 2.988 38.228 3.798 38.228 4.788ZM62.384 17.136L67.388 28.044H57.362L62.384 17.136Z" fill="url(#paint0_linear_4709_7782)"/>
<defs>
<linearGradient id="paint0_linear_4709_7782" x1="72.5" y1="-2.14577e-06" x2="0.500002" y2="72" gradientUnits="userSpaceOnUse">
<stop stop-color="#FF6A00"/>
<stop offset="1" stop-color="#EE0979"/>
</linearGradient>
</defs>
</svg>
