<svg width="28" height="28" viewBox="0 0 28 28" fill="none" xmlns="http://www.w3.org/2000/svg">
<rect x="0.5" y="0.5" width="27" height="27" rx="3.5" stroke="white"/>
<path fill-rule="evenodd" clip-rule="evenodd" d="M6.93158 4.6665C5.56262 4.6665 4.66699 5.60692 4.66699 6.84248C4.66699 8.05181 5.53665 9.01939 6.87905 9.01939H6.90501C8.30083 9.01939 9.1687 8.05181 9.1687 6.84248C9.14214 5.60692 8.30083 4.6665 6.93158 4.6665ZM23.3335 16.1093V23.3328H19.3317V16.5934C19.3317 14.9012 18.754 13.7456 17.3051 13.7456C16.1994 13.7456 15.5425 14.5236 15.2524 15.277C15.1471 15.5462 15.1199 15.9201 15.1199 16.2977V23.3325H11.1179C11.1179 23.3325 11.1716 11.9182 11.1179 10.7367H15.1202V12.5216C15.1165 12.5282 15.112 12.5347 15.1075 12.5412C15.1025 12.5485 15.0975 12.5557 15.0937 12.5629H15.1202V12.5216C15.652 11.6652 16.6005 10.4409 18.7268 10.4409C21.3596 10.4409 23.3335 12.2412 23.3335 16.1093ZM8.90531 23.3329H4.90479V10.7368H8.90531V23.3329Z" fill="white"/>
</svg>
