<svg width="28" height="28" viewBox="0 0 28 28" fill="none" xmlns="http://www.w3.org/2000/svg">
<rect x="0.5" y="0.5" width="27" height="27" rx="3.5" stroke="white"/>
<path d="M22.9508 9.19141C22.7357 8.33594 22.1049 7.66016 21.3065 7.42969C19.8445 7 14.0003 7 14.0003 7C14.0003 7 8.15604 7 6.69771 7.41016C5.91386 7.64062 5.26855 8.33203 5.05345 9.1875C4.66699 10.7578 4.66699 14 4.66699 14C4.66699 14 4.66699 17.2617 5.0498 18.8086C5.26491 19.6641 5.89563 20.3398 6.69407 20.5703C8.17063 21 13.9966 21 13.9966 21C13.9966 21 19.8409 21 21.2992 20.5898C22.0977 20.3594 22.7284 19.6836 22.9435 18.8281C23.3336 17.2617 23.3336 14.0195 23.3336 14.0195C23.3336 14.0195 23.3482 10.7578 22.9508 9.19141ZM12.1409 17V11.0039L17.0008 14.0039L12.1409 17Z" fill="white"/>
</svg>
