<svg width="42" height="41" viewBox="0 0 42 41" fill="none" xmlns="http://www.w3.org/2000/svg">
<g opacity="0.7">
<path fill-rule="evenodd" clip-rule="evenodd" d="M28.3337 15.0003C28.3337 16.9452 27.561 18.8105 26.1858 20.1858C24.8105 21.561 22.9452 22.3337 21.0003 22.3337C19.0554 22.3337 17.1901 21.561 15.8149 20.1858C14.4396 18.8105 13.667 16.9452 13.667 15.0003C13.667 13.0554 14.4396 11.1901 15.8149 9.81488C17.1901 8.43961 19.0554 7.66699 21.0003 7.66699C22.9452 7.66699 24.8105 8.43961 26.1858 9.81488C27.561 11.1901 28.3337 13.0554 28.3337 15.0003ZM24.667 15.0003C24.667 15.9728 24.2807 16.9054 23.5931 17.5931C22.9054 18.2807 21.9728 18.667 21.0003 18.667C20.0279 18.667 19.0952 18.2807 18.4076 17.5931C17.72 16.9054 17.3337 15.9728 17.3337 15.0003C17.3337 14.0279 17.72 13.0952 18.4076 12.4076C19.0952 11.72 20.0279 11.3337 21.0003 11.3337C21.9728 11.3337 22.9054 11.72 23.5931 12.4076C24.2807 13.0952 24.667 14.0279 24.667 15.0003Z" fill="white"/>
<path fill-rule="evenodd" clip-rule="evenodd" d="M21.0002 0.333496C9.86266 0.333496 0.833496 9.36266 0.833496 20.5002C0.833496 31.6377 9.86266 40.6668 21.0002 40.6668C32.1377 40.6668 41.1668 31.6377 41.1668 20.5002C41.1668 9.36266 32.1377 0.333496 21.0002 0.333496ZM4.50016 20.5002C4.50016 24.3318 5.80733 27.8592 7.99816 30.6605C9.53675 28.64 11.5216 27.0025 13.7978 25.8761C16.0739 24.7496 18.5797 24.1646 21.1193 24.1668C23.6261 24.1645 26.1003 24.7343 28.3535 25.8329C30.6067 26.9316 32.5794 28.53 34.1213 30.5065C35.7098 28.4231 36.7794 25.9914 37.2415 23.4126C37.7036 20.8338 37.545 18.182 36.7787 15.6766C36.0125 13.1713 34.6607 10.8844 32.8352 9.00523C31.0097 7.12605 28.763 5.70857 26.2809 4.8701C23.7988 4.03162 21.1527 3.79624 18.5616 4.18345C15.9705 4.57065 13.5088 5.5693 11.3802 7.09676C9.2517 8.62423 7.51748 10.6366 6.32108 12.9674C5.12468 15.2981 4.50049 17.8803 4.50016 20.5002ZM21.0002 37.0002C17.2124 37.0059 13.539 35.7028 10.6015 33.3115C11.7839 31.6188 13.3576 30.2369 15.1889 29.2831C17.0201 28.3293 19.0546 27.832 21.1193 27.8335C23.1583 27.8319 25.1682 28.3167 26.9822 29.2478C28.7962 30.1788 30.3618 31.5292 31.5492 33.1868C28.5889 35.6558 24.8549 37.0056 21.0002 37.0002Z" fill="white"/>
</g>
</svg>
