<svg width="32" height="32" viewBox="0 0 32 32" fill="none" xmlns="http://www.w3.org/2000/svg">
<mask id="mask0_4540_18538" style="mask-type:alpha" maskUnits="userSpaceOnUse" x="1" y="1" width="30" height="30">
<circle cx="16" cy="16" r="14.0625" fill="white"/>
</mask>
<g mask="url(#mask0_4540_18538)">
<rect width="32" height="32" fill="url(#paint0_linear_4540_18538)"/>
</g>
<path d="M26.5875 14.125C26.5688 14.05 26.55 13.9688 26.5313 13.8938C26.5125 16.75 23.5313 19.5813 19.4063 20.475C14.8563 21.4625 10.6375 19.725 9.97502 16.5938C9.31252 13.4625 12.4625 10.1313 17.0125 9.14377C17.5625 9.02502 18.1063 8.94377 18.6375 8.90627C17.3813 8.83752 16.05 8.93752 14.6938 9.23127C8.95627 10.475 4.98127 14.6813 5.81252 18.625C6.64377 22.5688 11.975 24.7625 17.7063 23.5188C23.4438 22.275 27.4188 18.0688 26.5875 14.125Z" fill="white"/>
<path d="M24.6751 14.95L20.7501 15.2938L24.6376 14.4C24.5751 13.7313 24.4438 13.0563 24.2438 12.3938L20.3438 13.7063L24.0688 11.8688C24.0126 11.7063 23.9501 11.5438 23.8813 11.3875C23.6876 10.9188 23.4563 10.4813 23.2063 10.0813L19.6813 12.2563L22.9188 9.65001C22.5376 9.10626 22.1188 8.63126 21.6626 8.23126L17.6313 11.5C17.8938 11.8125 18.1188 12.1875 18.2876 12.6188C18.3438 12.7563 18.3876 12.9 18.4313 13.0375C18.4501 13.1 18.4688 13.1688 18.4813 13.2313C18.5688 13.5875 18.6126 13.9438 18.6126 14.3C18.6126 14.3938 18.6126 14.4813 18.6063 14.575C18.5876 14.8938 18.5376 15.2063 18.4563 15.5C18.4251 15.6188 18.3876 15.7375 18.3438 15.85C18.2626 16.0625 18.1688 16.2563 18.0501 16.4438H24.6376C24.6813 15.9563 24.7001 15.4563 24.6751 14.95Z" fill="white"/>
<path d="M22.3498 17.15L22.3561 17.1313H15.2686L16.0436 18.5625H21.5748L22.3498 17.15Z" fill="white"/>
<defs>
<linearGradient id="paint0_linear_4540_18538" x1="32" y1="-9.53674e-07" x2="3.14713e-05" y2="32" gradientUnits="userSpaceOnUse">
<stop stop-color="#FF6A00"/>
<stop offset="1" stop-color="#EE0979"/>
</linearGradient>
</defs>
</svg>
