<svg width="24" height="24" viewBox="0 0 24 24" fill="none" xmlns="http://www.w3.org/2000/svg">
<path d="M19 11V8C19 6.14348 18.2625 4.36301 16.9497 3.05025C15.637 1.7375 13.8565 1 12 1C10.1435 1 8.36301 1.7375 7.05025 3.05025C5.7375 4.36301 5 6.14348 5 8V11C5 14.3 2 15.1 2 17C2 18.7 5.9 20 12 20C18.1 20 22 18.7 22 17C22 15.1 19 14.3 19 11Z" stroke="url(#paint0_linear_4666_10760)" stroke-width="2" stroke-miterlimit="10" stroke-linecap="square"/>
<path d="M12 22C10.989 22 10.039 21.966 9.14499 21.9C9.33558 22.508 9.71528 23.0393 10.2288 23.4164C10.7423 23.7936 11.3628 23.997 12 23.997C12.6371 23.997 13.2577 23.7936 13.7712 23.4164C14.2847 23.0393 14.6644 22.508 14.855 21.9C13.961 21.966 13.011 22 12 22Z" fill="url(#paint1_linear_4666_10760)"/>
<defs>
<linearGradient id="paint0_linear_4666_10760" x1="16.5455" y1="2.31944" x2="2.01903" y2="23.4436" gradientUnits="userSpaceOnUse">
<stop stop-color="#00C6FF"/>
<stop offset="1" stop-color="#0072FF"/>
</linearGradient>
<linearGradient id="paint1_linear_4666_10760" x1="13.2977" y1="22.0456" x2="12.4451" y2="25.2529" gradientUnits="userSpaceOnUse">
<stop stop-color="#00C6FF"/>
<stop offset="1" stop-color="#0072FF"/>
</linearGradient>
</defs>
</svg>
