<svg xmlns="http://www.w3.org/2000/svg" width="88" height="48" fill="none" xmlns:v="https://vecta.io/nano"><rect x=".5" y=".5" width="87" height="47" rx="3.5" fill="#fff" stroke="#ddd"/><path d="M31.353 39.428v-2.066c.034-.689-.444-1.274-1.127-1.309h-.171c-.444-.034-.888.207-1.161.585-.239-.379-.649-.62-1.093-.585-.376-.034-.751.172-.956.482v-.413h-.683v3.306h.717v-1.825c-.068-.413.239-.826.649-.861h.137c.478 0 .717.31.717.861v1.825h.717v-1.825c-.068-.413.239-.826.649-.861h.137c.478 0 .717.31.717.861v1.825h.751zm10.62-3.271h-1.161v-.998h-.717v.999h-.649v.654h.649v1.515c0 .758.307 1.205 1.127 1.205.307 0 .615-.103.888-.241l-.205-.62c-.205.103-.41.172-.615.172-.342 0-.478-.207-.478-.551v-1.515h1.161v-.62zm6.044-.103c-.342 0-.683.172-.854.482v-.413h-.717v3.306h.717v-1.859c0-.551.239-.861.683-.861.137 0 .307.034.444.069l.205-.689c-.137 0-.307-.035-.478-.035zm-9.152.344c-.41-.241-.854-.344-1.332-.344-.819 0-1.366.413-1.366 1.068 0 .551.41.861 1.127.964l.342.034c.376.069.58.172.58.344 0 .241-.273.413-.751.413-.376 0-.785-.103-1.093-.344l-.342.551c.41.275.922.448 1.4.413.956 0 1.502-.448 1.502-1.067s-.444-.895-1.127-.998l-.341-.035c-.307-.034-.546-.103-.546-.31s.239-.379.615-.379.717.103 1.025.275l.307-.585zm19.02-.344c-.341 0-.683.172-.854.482v-.413h-.717v3.306h.717v-1.859c0-.551.239-.861.683-.861.137 0 .307.034.444.069l.205-.689c-.137 0-.307-.035-.478-.035zm-9.152 1.722a1.65 1.65 0 0 0 1.571 1.722h.171c.41.034.854-.103 1.161-.379l-.342-.585c-.239.172-.546.276-.854.31-.581-.034-.99-.551-.956-1.136.034-.517.444-.93.956-.964.307 0 .615.103.854.31l.342-.585c-.342-.275-.751-.413-1.161-.379-.922-.069-1.673.654-1.742 1.55v.138zm6.659 0v-1.653h-.717v.413c-.239-.31-.615-.482-1.024-.482-.956 0-1.707.758-1.707 1.722s.751 1.722 1.707 1.722c.41 0 .785-.172 1.024-.482v.413h.717v-1.653zm-2.663 0c.034-.551.512-.964 1.059-.93a1 1 0 0 1 .922 1.067.98.98 0 0 1-.99.93c-.546 0-.99-.413-.99-.964v-.103zm-8.571-1.722c-.956 0-1.707.792-1.673 1.756s.785 1.722 1.742 1.687c.478.034.99-.138 1.366-.448l-.341-.517c-.273.207-.615.344-.956.344-.478.034-.922-.31-.99-.792h2.425v-.276c0-1.067-.649-1.756-1.571-1.756zm0 .654c.444 0 .82.344.82.792H43.27c.034-.448.444-.826.888-.792zm17.791 1.067v-2.961h-.683v1.722c-.239-.31-.615-.482-1.025-.482-.956 0-1.707.758-1.707 1.722s.751 1.722 1.707 1.722c.41 0 .785-.172 1.025-.482v.413h.683v-1.653zm1.195 1.171c.034 0 .102 0 .137.035.034 0 .068.034.102.069s.068.069.068.103c.034.069.034.172 0 .241-.034.034-.034.069-.068.103s-.068.069-.102.069c-.034.034-.068.034-.137.034-.137 0-.239-.069-.307-.207-.034-.069-.034-.172 0-.241.034-.034.034-.069.068-.103s.068-.069.102-.069c.068-.035.103-.035.137-.035zm0 .585c.034 0 .068 0 .102-.034.034 0 .068-.034.068-.069a.23.23 0 0 0 0-.344l-.068-.069c-.034 0-.068-.034-.102-.034s-.068 0-.102.034c-.034 0-.068.034-.068.069a.23.23 0 0 0 0 .344c.034.034.068.035.068.069.034.034.068.034.102.034zm.034-.413c.034 0 .068 0 .102.034s.034.035.034.069 0 .034-.034.069-.034.034-.068.034l.102.103h-.068l-.102-.103h-.034v.103h-.068v-.31h.137zm-.068.069v.069h.068.034v-.034-.034h-.034-.068zm-3.756-1.412c.034-.551.512-.964 1.059-.93a1 1 0 0 1 .922 1.067.98.98 0 0 1-.99.93c-.546 0-.99-.413-.99-.964-.034-.034 0-.069 0-.103zm-24.006 0v-1.653h-.717v.413c-.239-.31-.615-.482-1.025-.482-.956 0-1.707.758-1.707 1.722s.751 1.722 1.707 1.722c.41 0 .785-.172 1.025-.482v.413h.717v-1.653zm-2.629 0c.034-.551.512-.964 1.059-.93a1 1 0 0 1 .922 1.067.98.98 0 0 1-.99.93c-.546 0-.99-.413-.99-.964v-.103z" fill="#231f20"/><path d="M49.382 11.054H38.625v19.489h10.757V11.054z" fill="#ff5f00"/><path d="M39.308 20.799a12.44 12.44 0 0 1 4.712-9.745 12.22 12.22 0 0 0-17.279 2.1c-4.2 5.406-3.278 13.154 2.083 17.389a12.18 12.18 0 0 0 15.196 0c-2.971-2.341-4.712-5.923-4.712-9.745z" fill="#eb001b"/><path d="M63.895 20.799c0 6.852-5.498 12.396-12.293 12.396-2.766 0-5.43-.93-7.581-2.651 5.327-4.235 6.249-12.017 2.049-17.389a12.07 12.07 0 0 0-2.083-2.1c5.327-4.235 13.079-3.306 17.279 2.1 1.707 2.169 2.629 4.855 2.629 7.644zm-1.162 7.678v-.413h.171v-.069h-.41v.069h.171v.413h.068zm.785 0v-.482h-.137l-.137.344-.137-.344h-.102v.482h.102v-.344l.137.31h.102l.137-.31v.379l.034-.034z" fill="#f79e1b"/></svg>