<svg width="32" height="24" viewBox="0 0 32 24" fill="none" xmlns="http://www.w3.org/2000/svg">
<path d="M31.8358 9.02829C31.8097 8.92176 31.7836 8.7886 31.7575 8.68207C31.7314 13.0764 27.1882 17.4174 20.8957 18.7757C13.9765 20.2937 7.52725 17.6305 6.53506 12.8101C5.49065 8.01627 10.2949 2.9029 17.2402 1.38487C18.0758 1.19845 18.9113 1.09192 19.7207 1.01202C17.8147 0.905493 15.7781 1.06529 13.7154 1.51803C4.96845 3.43554 -1.08912 9.88052 0.164173 15.9526C1.44357 21.9981 9.53773 25.3804 18.2846 23.4629C27.0316 21.5454 33.0891 15.1004 31.8358 9.02829Z" fill="#CC1F26"/>
<path d="M28.911 10.3066L22.9317 10.8393L28.8588 9.48104C28.7543 8.44238 28.5715 7.43036 28.2582 6.39171L22.3312 8.41575L27.9971 5.59275C27.9188 5.35306 27.8143 5.08674 27.7099 4.84705C27.4227 4.12798 27.0571 3.46218 26.6916 2.84964L21.3129 6.17865L26.2477 2.18383C25.6733 1.35824 25.0206 0.612539 24.3417 0L18.1797 5.00684C18.5713 5.48622 18.9108 6.07212 19.1719 6.73793C19.2502 6.95098 19.3285 7.16404 19.3808 7.3771C19.4069 7.48363 19.433 7.59016 19.4591 7.67005C19.5896 8.20269 19.6419 8.76197 19.668 9.29461C19.668 9.42777 19.668 9.58757 19.668 9.72073C19.6419 10.2001 19.5635 10.6795 19.433 11.1322C19.3808 11.3187 19.3285 11.5051 19.2502 11.6649C19.1197 11.9845 18.9891 12.304 18.8063 12.5704H28.8326C28.9371 11.8513 28.9371 11.079 28.911 10.3066Z" fill="#CC1F26"/>
<path d="M25.3603 13.6888L25.3864 13.6355H14.5768L15.7779 15.846H24.1854L25.3603 13.6888Z" fill="#CC1F26"/>
</svg>
