<svg width="32" height="32" viewBox="0 0 32 32" fill="none" xmlns="http://www.w3.org/2000/svg">
<circle cx="16" cy="16" r="16" fill="url(#paint0_linear_6899_252191)"/>
<g filter="url(#filter0_d_6899_252191)">
<path d="M23.2992 21.095C23.1639 21.095 23.0286 21.1399 22.8933 21.1848L19.8719 22.3982C19.8719 22.4431 19.8719 22.4881 19.8719 22.533C19.8719 23.2071 19.2857 23.7913 18.6093 23.7913H13.8743C13.6939 23.7913 13.5586 23.6564 13.5586 23.4767C13.5586 23.2969 13.6939 23.1621 13.8743 23.1621H18.5642C18.8798 23.1621 19.1955 22.8925 19.1955 22.533C19.1955 22.4881 19.1955 22.3982 19.1955 22.3532C19.1053 22.0836 18.8798 21.9039 18.6093 21.9039H15.8134C15.7683 21.9039 15.7232 21.9039 15.7232 21.9039L13.0175 20.9602C12.4312 20.7804 11.7548 20.7355 11.2137 20.9152L7.43229 21.9039C7.43229 21.9039 7.0526 22.1943 6.83914 22.5427C6.62569 22.8911 5.79401 24.2847 7.2002 26.5774L9.86081 25.6787C10.0863 25.5888 10.2667 25.5438 10.5823 25.5438C10.8078 25.5438 10.9431 25.5888 11.1235 25.6337L15.633 26.9819C15.8134 27.0268 15.9487 27.0718 16.1741 27.0718C16.58 27.0718 16.8957 26.9819 17.2113 26.7572L24.6069 22.3532C24.3364 21.6792 24.1109 21.095 23.2992 21.095Z" fill="white"/>
</g>
<g filter="url(#filter1_d_6899_252191)">
<g filter="url(#filter2_d_6899_252191)">
<path d="M15.9362 18.4532C15.6271 18.4532 15.3799 18.3307 15.3799 18.1777V10.4653C15.3799 10.3123 15.6271 10.1899 15.9362 10.1899C16.2452 10.1899 16.4925 10.3123 16.4925 10.4653V18.193C16.4925 18.3307 16.2452 18.4532 15.9362 18.4532Z" fill="white"/>
<path d="M15.814 11.1998C19.5268 11.7468 22.129 8.92911 21.6212 4.86834C17.9084 4.32138 15.3063 7.15563 15.814 11.1998Z" fill="white"/>
</g>
<path d="M15.8846 11.0203C12.9422 11.4312 10.8746 9.36357 11.2854 6.42118C14.2278 6.0103 16.2954 8.07793 15.8846 11.0203Z" fill="white"/>
</g>
<g filter="url(#filter3_bdi_6899_252191)">
<path d="M16.0801 24C19.3938 24 22.0801 21.3137 22.0801 18C22.0801 14.6863 19.3938 12 16.0801 12C12.7664 12 10.0801 14.6863 10.0801 18C10.0801 21.3137 12.7664 24 16.0801 24Z" fill="#E7D3FF" fill-opacity="0.39" shape-rendering="crispEdges"/>
</g>
<path d="M20.8361 18.8983L19.9093 18.2071C19.9264 17.9681 19.9149 17.7281 19.875 17.4918L20.803 16.8048C20.885 16.741 20.9402 16.6505 20.9584 16.5502C20.9766 16.4499 20.9565 16.3467 20.9019 16.26L19.9323 14.677C19.8774 14.5894 19.7931 14.523 19.6934 14.4887C19.5938 14.4545 19.4849 14.4546 19.3852 14.489L18.3287 14.9028C18.1238 14.7632 17.9056 14.6427 17.6772 14.5429L17.4992 13.4341C17.4787 13.3337 17.4225 13.2437 17.3404 13.1795C17.2583 13.1154 17.1555 13.0813 17.0499 13.0831L15.1275 13.0728C15.0222 13.0698 14.9196 13.1059 14.8407 13.1737C14.7618 13.2416 14.7125 13.336 14.703 13.4377L14.5537 14.5343C14.4427 14.58 14.336 14.635 14.2349 14.6986C14.127 14.7541 14.024 14.8182 13.9269 14.8902L12.9346 14.435C12.8361 14.3978 12.7269 14.397 12.6277 14.4326C12.5285 14.4683 12.446 14.5379 12.3961 14.6284L11.5103 16.1979C11.4566 16.2879 11.4385 16.3937 11.4593 16.4955C11.4801 16.5973 11.5384 16.6882 11.6233 16.7512L12.5401 17.4336C12.5278 17.6726 12.5392 17.9122 12.5744 18.1489L11.6459 18.8266C11.5633 18.8921 11.5078 18.9843 11.4897 19.0861C11.4717 19.1879 11.4922 19.2926 11.5475 19.3807L12.5267 20.9633C12.5769 21.0527 12.6598 21.1205 12.7592 21.1537C12.8585 21.1868 12.9671 21.1828 13.0638 21.1424L14.1211 20.7472C14.3261 20.8868 14.5442 21.0072 14.7726 21.1071L14.9507 22.2159C14.9637 22.2677 14.9856 22.317 15.0153 22.3618C15.0548 22.4268 15.111 22.4807 15.1785 22.5182C15.246 22.5558 15.3224 22.5757 15.4003 22.5761L17.3223 22.5772C17.4278 22.5756 17.5292 22.5367 17.6073 22.4678C17.6854 22.3989 17.7349 22.3047 17.7464 22.203L17.8861 21.1069C18.0004 21.0616 18.1103 21.0065 18.2145 20.9421L18.5225 20.7505L19.5993 21.1644C19.6974 21.202 19.8059 21.205 19.9062 21.173C20.0065 21.141 20.0922 21.0759 20.1483 20.9892L21.0336 19.4103C21.0696 19.316 21.0695 19.2124 21.0332 19.1184C20.997 19.0244 20.927 18.9463 20.8361 18.8983Z" fill="url(#paint1_linear_6899_252191)"/>
<path d="M16.7485 17.3057C16.5383 17.2595 16.3331 17.1892 16.1362 17.096C16.0971 17.0747 16.0642 17.0417 16.0413 17.0007C16.0315 16.9505 16.0315 16.8985 16.0413 16.8482C16.0375 16.8069 16.0444 16.7653 16.0612 16.7282C16.078 16.691 16.104 16.66 16.1362 16.6385C16.239 16.5763 16.3554 16.5466 16.4725 16.5527C16.7226 16.5527 16.8606 16.6385 16.8951 16.7529C16.9107 16.7984 16.9376 16.838 16.9727 16.8673C17.012 16.8812 17.0542 16.8812 17.0934 16.8673H17.378C17.4153 16.8657 17.4516 16.8535 17.4834 16.8318C17.5151 16.81 17.5412 16.7796 17.5591 16.7434C17.5743 16.7042 17.5822 16.6621 17.5822 16.6194C17.5822 16.5768 17.5743 16.5347 17.5591 16.4955C17.5153 16.3188 17.4179 16.164 17.2832 16.0571C17.1469 15.9456 16.9861 15.8764 16.8175 15.8569V15.4756C16.8211 15.4416 16.8182 15.407 16.8091 15.3742C16.8 15.3414 16.7849 15.3111 16.7646 15.2851C16.7443 15.2591 16.7194 15.2381 16.6914 15.2233C16.6634 15.2085 16.6329 15.2003 16.6019 15.1992H16.369C16.3384 15.2016 16.3085 15.2107 16.2811 15.2259C16.2537 15.2411 16.2293 15.2622 16.2092 15.2879C16.1892 15.3136 16.1739 15.3434 16.1644 15.3756C16.1548 15.4078 16.1511 15.4418 16.1534 15.4756V15.8378C15.9567 15.8686 15.7731 15.965 15.6273 16.1143C15.532 16.2067 15.4563 16.3213 15.4056 16.4498C15.3549 16.5783 15.3305 16.7176 15.3341 16.8577C15.3258 17.1071 15.4063 17.3501 15.5583 17.5345C15.7556 17.7454 16.0045 17.8879 16.2741 17.9444L16.6622 18.0683C16.7354 18.0921 16.8051 18.1274 16.8692 18.1731C16.9025 18.2044 16.929 18.2435 16.9468 18.2875C16.9575 18.3441 16.9575 18.4025 16.9468 18.4591C16.9516 18.5199 16.9432 18.581 16.9222 18.6374C16.9011 18.6938 16.8682 18.7438 16.8261 18.7832C16.7163 18.8623 16.5859 18.8992 16.4553 18.888C16.3286 18.8973 16.2023 18.8641 16.093 18.7927C15.9963 18.731 15.9228 18.6329 15.8861 18.5163C15.8718 18.4549 15.8375 18.4014 15.7897 18.3662C15.742 18.3311 15.6841 18.3166 15.6273 18.3257H15.3686C15.3387 18.3331 15.3105 18.3475 15.286 18.3679C15.2615 18.3883 15.2412 18.4143 15.2265 18.4441C15.2118 18.4738 15.2031 18.5067 15.2008 18.5406C15.1985 18.5744 15.2028 18.6084 15.2134 18.6402C15.2707 18.8748 15.3874 19.0864 15.5497 19.2502C15.7063 19.3984 15.8977 19.4942 16.1017 19.5267V19.8412C16.0981 19.8753 16.1009 19.9098 16.11 19.9426C16.1191 19.9754 16.1343 20.0058 16.1546 20.0317C16.1748 20.0577 16.1997 20.0788 16.2278 20.0936C16.2558 20.1084 16.2862 20.1165 16.3173 20.1176H16.5587C16.5898 20.1165 16.6202 20.1084 16.6483 20.0936C16.6763 20.0788 16.7012 20.0577 16.7215 20.0317C16.7417 20.0058 16.7569 19.9754 16.766 19.9426C16.7751 19.9098 16.7779 19.8753 16.7743 19.8412V19.5267C16.956 19.4784 17.1284 19.3944 17.2832 19.2788C17.4062 19.1851 17.505 19.0576 17.5701 18.9088C17.6351 18.7601 17.664 18.5953 17.654 18.4305C17.6676 18.2968 17.6554 18.1614 17.6182 18.0332C17.5811 17.9051 17.5198 17.7871 17.4384 17.687C17.2465 17.4891 17.0069 17.3567 16.7485 17.3057Z" fill="white"/>
<defs>
<filter id="filter0_d_6899_252191" x="6.40039" y="20.8008" width="20.2061" height="8.27148" filterUnits="userSpaceOnUse" color-interpolation-filters="sRGB">
<feFlood flood-opacity="0" result="BackgroundImageFix"/>
<feColorMatrix in="SourceAlpha" type="matrix" values="0 0 0 0 0 0 0 0 0 0 0 0 0 0 0 0 0 0 127 0" result="hardAlpha"/>
<feOffset dx="1" dy="1"/>
<feGaussianBlur stdDeviation="0.5"/>
<feComposite in2="hardAlpha" operator="out"/>
<feColorMatrix type="matrix" values="0 0 0 0 0 0 0 0 0 0 0 0 0 0 0 0 0 0 0.16 0"/>
<feBlend mode="normal" in2="BackgroundImageFix" result="effect1_dropShadow_6899_252191"/>
<feBlend mode="normal" in="SourceGraphic" in2="effect1_dropShadow_6899_252191" result="shape"/>
</filter>
<filter id="filter1_d_6899_252191" x="11.2334" y="4.80078" width="12.4512" height="15.6523" filterUnits="userSpaceOnUse" color-interpolation-filters="sRGB">
<feFlood flood-opacity="0" result="BackgroundImageFix"/>
<feColorMatrix in="SourceAlpha" type="matrix" values="0 0 0 0 0 0 0 0 0 0 0 0 0 0 0 0 0 0 127 0" result="hardAlpha"/>
<feOffset dx="1" dy="1"/>
<feGaussianBlur stdDeviation="0.5"/>
<feComposite in2="hardAlpha" operator="out"/>
<feColorMatrix type="matrix" values="0 0 0 0 0 0 0 0 0 0 0 0 0 0 0 0 0 0 0.16 0"/>
<feBlend mode="normal" in2="BackgroundImageFix" result="effect1_dropShadow_6899_252191"/>
<feBlend mode="normal" in="SourceGraphic" in2="effect1_dropShadow_6899_252191" result="shape"/>
</filter>
<filter id="filter2_d_6899_252191" x="12.3799" y="2.80078" width="12.3047" height="19.6523" filterUnits="userSpaceOnUse" color-interpolation-filters="sRGB">
<feFlood flood-opacity="0" result="BackgroundImageFix"/>
<feColorMatrix in="SourceAlpha" type="matrix" values="0 0 0 0 0 0 0 0 0 0 0 0 0 0 0 0 0 0 127 0" result="hardAlpha"/>
<feOffset dy="1"/>
<feGaussianBlur stdDeviation="1.5"/>
<feColorMatrix type="matrix" values="0 0 0 0 0.639216 0 0 0 0 0.027451 0 0 0 0 0.792157 0 0 0 0.1 0"/>
<feBlend mode="normal" in2="BackgroundImageFix" result="effect1_dropShadow_6899_252191"/>
<feBlend mode="normal" in="SourceGraphic" in2="effect1_dropShadow_6899_252191" result="shape"/>
</filter>
<filter id="filter3_bdi_6899_252191" x="6.08008" y="8" width="20" height="20" filterUnits="userSpaceOnUse" color-interpolation-filters="sRGB">
<feFlood flood-opacity="0" result="BackgroundImageFix"/>
<feGaussianBlur in="BackgroundImage" stdDeviation="2"/>
<feComposite in2="SourceAlpha" operator="in" result="effect1_backgroundBlur_6899_252191"/>
<feColorMatrix in="SourceAlpha" type="matrix" values="0 0 0 0 0 0 0 0 0 0 0 0 0 0 0 0 0 0 127 0" result="hardAlpha"/>
<feOffset dx="1" dy="1"/>
<feGaussianBlur stdDeviation="1"/>
<feComposite in2="hardAlpha" operator="out"/>
<feColorMatrix type="matrix" values="0 0 0 0 0 0 0 0 0 0 0 0 0 0 0 0 0 0 0.15 0"/>
<feBlend mode="normal" in2="effect1_backgroundBlur_6899_252191" result="effect2_dropShadow_6899_252191"/>
<feBlend mode="normal" in="SourceGraphic" in2="effect2_dropShadow_6899_252191" result="shape"/>
<feColorMatrix in="SourceAlpha" type="matrix" values="0 0 0 0 0 0 0 0 0 0 0 0 0 0 0 0 0 0 127 0" result="hardAlpha"/>
<feOffset dx="1" dy="1"/>
<feGaussianBlur stdDeviation="1"/>
<feComposite in2="hardAlpha" operator="arithmetic" k2="-1" k3="1"/>
<feColorMatrix type="matrix" values="0 0 0 0 1 0 0 0 0 1 0 0 0 0 1 0 0 0 0.45 0"/>
<feBlend mode="normal" in2="shape" result="effect3_innerShadow_6899_252191"/>
</filter>
<linearGradient id="paint0_linear_6899_252191" x1="0" y1="16.004" x2="32" y2="16.004" gradientUnits="userSpaceOnUse">
<stop stop-color="#8E2DE2"/>
<stop offset="1" stop-color="#4A00E0"/>
</linearGradient>
<linearGradient id="paint1_linear_6899_252191" x1="11.43" y1="18.0555" x2="21.019" y2="17.596" gradientUnits="userSpaceOnUse">
<stop stop-color="#8E2DE2"/>
<stop offset="1" stop-color="#4A00E0"/>
</linearGradient>
</defs>
</svg>
