<svg width="24" height="25" viewBox="0 0 24 25" fill="none" xmlns="http://www.w3.org/2000/svg">
<path fill-rule="evenodd" clip-rule="evenodd" d="M2 0.00430115L12.8571 1.68923C13.6857 1.86353 14.2857 2.58979 14.4 3.46131V24L10.3348 24V18.8987C10.3348 17.9457 9.54353 16.772 8.50874 16.8H5.86092C4.82614 16.8 4.0044 17.9457 4.0044 18.8987V23.971H1C0.428571 23.971 0 23.4771 0 22.9542V1.77638C0 1.25347 0.228571 0.759614 0.6 0.411008C1 0.0914526 1.51429 -0.0247493 2 0.00430115ZM9.02614 6.25752H10.6087C11.0348 6.25752 11.4 5.92117 11.4 5.52876C11.4 5.13635 11.0348 4.8 10.6087 4.8H9.02614C8.60005 4.8 8.23483 5.13635 8.23483 5.52876C8.23483 5.92117 8.60005 6.25752 9.02614 6.25752ZM5.37398 6.25754H3.79137C3.36528 6.25754 3.00007 5.92119 3.00007 5.52878C3.00007 5.13638 3.36528 4.80002 3.79137 4.80002H5.37398C5.80006 4.80002 6.16528 5.13638 6.16528 5.52878C6.16528 5.92119 5.76963 6.25754 5.37398 6.25754ZM5.37391 9.17255H3.7913C3.36522 9.17255 3 8.8362 3 8.44379C3 8.05139 3.33478 7.71503 3.7913 7.71503H5.37391C5.8 7.71503 6.16522 8.05139 6.16522 8.44379C6.16522 8.86423 5.76956 9.17255 5.37391 9.17255ZM9.02614 9.17256H10.6087C11.0348 9.17256 11.4 8.86424 11.4 8.4438C11.4 8.05139 11.0348 7.71504 10.6087 7.71504H9.02614C8.60005 7.71504 8.23483 8.05139 8.23483 8.4438C8.23483 8.83621 8.60005 9.17256 9.02614 9.17256ZM5.37391 12.0876H3.7913C3.36522 12.0876 3 11.7512 3 11.3588C3 10.9664 3.36522 10.6301 3.7913 10.6301H5.37391C5.8 10.6301 6.16522 10.9664 6.16522 11.3588C6.16522 11.7232 5.76956 12.0876 5.37391 12.0876ZM9.02614 12.0876H10.6087C11.0348 12.0876 11.4 11.7232 11.4 11.3588C11.4 10.9664 11.0348 10.6301 10.6087 10.6301H9.02614C8.60005 10.6301 8.23483 10.9664 8.23483 11.3588C8.23483 11.7512 8.60005 12.0876 9.02614 12.0876Z" fill="url(#paint0_linear_7018_25070)"/>
<g filter="url(#filter0_bi_7018_25070)">
<path d="M21.6017 24H12.2262C11.7813 24 11.3999 23.6117 11.3999 23.1587V8.04767C11.3999 7.78881 11.4952 7.5623 11.6859 7.40052C12.0528 7.08925 12.5904 7.28941 13.0609 7.39L21.8877 9.27726C22.7458 9.47141 23.3814 10.2803 23.3814 11.2187V20.5652C23.3814 21.5808 23.6293 22.7698 22.9009 23.4776C22.5693 23.7998 22.1037 24 21.6017 24Z" fill="#FFBF94" fill-opacity="0.4"/>
</g>
<g filter="url(#filter1_d_7018_25070)">
<path d="M18.1673 19.8286V12.5714C18.1673 12.2298 17.912 11.9737 17.5999 12.0022H17.2027C16.8623 12.0022 16.6069 12.2583 16.6353 12.5714V19.8286C16.6353 20.1702 16.8906 20.4263 17.2027 20.3978H17.5999C17.9404 20.3978 18.1957 20.1417 18.1673 19.8286Z" fill="white"/>
<path d="M21.0328 15.4743L13.7698 15.4458C13.4293 15.4458 13.174 15.702 13.2023 16.015V16.4135C13.2023 16.755 13.4577 17.0111 13.7698 16.9827H21.0044C21.3449 16.9827 21.6002 16.7265 21.5718 16.4135L21.6002 16.0435C21.6002 15.702 21.3449 15.4458 21.0328 15.4743Z" fill="white"/>
</g>
<defs>
<filter id="filter0_bi_7018_25070" x="7.3999" y="3.23338" width="20.022" height="24.7666" filterUnits="userSpaceOnUse" color-interpolation-filters="sRGB">
<feFlood flood-opacity="0" result="BackgroundImageFix"/>
<feGaussianBlur in="BackgroundImage" stdDeviation="2"/>
<feComposite in2="SourceAlpha" operator="in" result="effect1_backgroundBlur_7018_25070"/>
<feBlend mode="normal" in="SourceGraphic" in2="effect1_backgroundBlur_7018_25070" result="shape"/>
<feColorMatrix in="SourceAlpha" type="matrix" values="0 0 0 0 0 0 0 0 0 0 0 0 0 0 0 0 0 0 127 0" result="hardAlpha"/>
<feOffset dy="2"/>
<feGaussianBlur stdDeviation="1.5"/>
<feComposite in2="hardAlpha" operator="arithmetic" k2="-1" k3="1"/>
<feColorMatrix type="matrix" values="0 0 0 0 1 0 0 0 0 1 0 0 0 0 1 0 0 0 0.45 0"/>
<feBlend mode="normal" in2="shape" result="effect2_innerShadow_7018_25070"/>
</filter>
<filter id="filter1_d_7018_25070" x="11.2002" y="12" width="12.3999" height="12.4" filterUnits="userSpaceOnUse" color-interpolation-filters="sRGB">
<feFlood flood-opacity="0" result="BackgroundImageFix"/>
<feColorMatrix in="SourceAlpha" type="matrix" values="0 0 0 0 0 0 0 0 0 0 0 0 0 0 0 0 0 0 127 0" result="hardAlpha"/>
<feOffset dy="2"/>
<feGaussianBlur stdDeviation="1"/>
<feColorMatrix type="matrix" values="0 0 0 0 1 0 0 0 0 0.4 0 0 0 0 0 0 0 0 0.2 0"/>
<feBlend mode="normal" in2="BackgroundImageFix" result="effect1_dropShadow_7018_25070"/>
<feBlend mode="normal" in="SourceGraphic" in2="effect1_dropShadow_7018_25070" result="shape"/>
</filter>
<linearGradient id="paint0_linear_7018_25070" x1="14.4" y1="-7.15256e-07" x2="-6.77648" y2="12.7059" gradientUnits="userSpaceOnUse">
<stop stop-color="#FF6A00"/>
<stop offset="1" stop-color="#EE0979"/>
</linearGradient>
</defs>
</svg>
