<svg width="32" height="32" viewBox="0 0 32 32" fill="none" xmlns="http://www.w3.org/2000/svg">
<rect width="32" height="32" rx="4" fill="#262626"/>
<path fill-rule="evenodd" clip-rule="evenodd" d="M13.7578 13.4509V12.5148C13.4329 12.4688 13.1053 12.4449 12.7772 12.4434C8.76453 12.4434 5.5 15.7085 5.5 19.7211C5.5 22.1826 6.73018 24.3615 8.60678 25.6791C7.35024 24.3353 6.65166 22.564 6.65268 20.7243C6.65268 16.7688 9.8243 13.5433 13.7578 13.4509" fill="#00F2EA"/>
<path fill-rule="evenodd" clip-rule="evenodd" d="M13.9293 24.0467C15.7196 24.0467 17.1801 22.6225 17.2466 20.8476L17.2527 5.00316H20.1473C20.0855 4.67234 20.0542 4.33654 20.0538 4H16.1006L16.094 19.845C16.028 21.6194 14.567 23.043 12.7772 23.043C12.2399 23.0432 11.7106 22.9123 11.2354 22.6616C11.5422 23.0897 11.9466 23.4386 12.4151 23.6795C12.8835 23.9204 13.4026 24.0462 13.9293 24.0467V24.0467ZM25.5545 10.3812V9.5006C24.4907 9.5016 23.4497 9.19215 22.5593 8.61014C23.34 9.50905 24.3911 10.1305 25.555 10.3812" fill="#00F2EA"/>
<path fill-rule="evenodd" clip-rule="evenodd" d="M22.559 8.60979C21.6864 7.61128 21.2057 6.33002 21.2063 5.00391H20.1471C20.2842 5.73688 20.5687 6.43438 20.9833 7.05419C21.3979 7.674 21.9339 8.20322 22.559 8.60979V8.60979ZM12.777 16.3965C11.8959 16.3975 11.0512 16.748 10.4281 17.371C9.80511 17.994 9.45466 18.8387 9.45361 19.7198C9.45421 20.3259 9.62041 20.9204 9.93431 21.4389C10.2482 21.9573 10.6978 22.3802 11.2346 22.6617C10.8259 22.0981 10.6058 21.4197 10.6058 20.7236C10.6066 19.8424 10.957 18.9975 11.5801 18.3744C12.2031 17.7512 13.0479 17.4007 13.9291 17.3997C14.2716 17.3997 14.5997 17.4563 14.9097 17.5536V13.5173C14.5849 13.4713 14.2572 13.4474 13.9291 13.4458C13.8714 13.4458 13.8148 13.4491 13.7576 13.4502V16.5504C13.4405 16.4495 13.1098 16.3976 12.777 16.3965" fill="#FF004F"/>
<path fill-rule="evenodd" clip-rule="evenodd" d="M25.5546 10.3814V13.4541C23.5043 13.4541 21.6051 12.7984 20.0539 11.6853V19.7199C20.0539 23.7325 16.79 26.9971 12.7773 26.9971C11.2267 26.9971 9.78875 26.5079 8.60693 25.6779C9.2864 26.4106 10.1098 26.9951 11.0257 27.3947C11.9416 27.7943 12.9302 28.0005 13.9294 28.0002C17.9421 28.0002 21.2066 24.7357 21.2066 20.7236V12.689C22.8091 13.8413 24.7335 14.4601 26.7072 14.4578V10.5035C26.3115 10.5035 25.9267 10.4606 25.5546 10.3809" fill="#FF004F"/>
<path fill-rule="evenodd" clip-rule="evenodd" d="M20.054 19.7198V11.6852C21.6564 12.8376 23.5808 13.4565 25.5546 13.4541V10.3814C24.3909 10.1304 23.3399 9.5088 22.5594 8.60979C21.9343 8.20322 21.3982 7.674 20.9836 7.05419C20.5691 6.43438 20.2846 5.73688 20.1474 5.00391H17.2528L17.2468 20.8483C17.1803 22.6227 15.7198 24.0469 13.9295 24.0469C13.4027 24.0464 12.8837 23.9204 12.4152 23.6796C11.9468 23.4387 11.5424 23.0898 11.2355 22.6617C10.6987 22.3803 10.2489 21.9575 9.9349 21.439C9.6209 20.9205 9.4546 20.326 9.454 19.7198C9.455 18.8387 9.80545 17.994 10.4285 17.371C11.0515 16.748 11.8963 16.3975 12.7774 16.3965C13.1193 16.3965 13.4474 16.4526 13.758 16.5504V13.4502C9.82445 13.5426 6.65283 16.7681 6.65283 20.7236C6.65283 22.6364 7.396 24.3778 8.60694 25.6783C9.8277 26.5377 11.2845 26.9983 12.7774 26.997C16.79 26.997 20.054 23.7325 20.054 19.7198" fill="white"/>
</svg>
