<svg width="32" height="32" viewBox="0 0 32 32" fill="none" xmlns="http://www.w3.org/2000/svg">
<g clip-path="url(#clip0_6861_27594)">
<mask id="mask0_6861_27594" style="mask-type:alpha" maskUnits="userSpaceOnUse" x="1" y="1" width="30" height="30">
<circle cx="16" cy="16" r="14.0625" fill="white"/>
</mask>
<g mask="url(#mask0_6861_27594)">
<rect width="32" height="32" fill="url(#paint0_linear_6861_27594)"/>
</g>
<path d="M26.5875 14.1253C26.5688 14.0503 26.55 13.969 26.5313 13.894C26.5125 16.7503 23.5313 19.5815 19.4063 20.4753C14.8563 21.4628 10.6375 19.7253 9.97502 16.594C9.31252 13.4628 12.4625 10.1315 17.0125 9.14404C17.5625 9.02529 18.1063 8.94404 18.6375 8.90654C17.3813 8.83779 16.05 8.93779 14.6938 9.23154C8.95627 10.4753 4.98127 14.6815 5.81252 18.6253C6.64377 22.569 11.975 24.7628 17.7063 23.519C23.4438 22.2753 27.4188 18.069 26.5875 14.1253Z" fill="white"/>
<path d="M24.6751 14.9502L20.7501 15.2939L24.6376 14.4002C24.5751 13.7314 24.4438 13.0564 24.2438 12.3939L20.3438 13.7064L24.0688 11.8689C24.0126 11.7064 23.9501 11.5439 23.8813 11.3877C23.6876 10.9189 23.4563 10.4814 23.2063 10.0814L19.6813 12.2564L22.9188 9.6502C22.5376 9.10645 22.1188 8.63145 21.6626 8.23145L17.6313 11.5002C17.8938 11.8127 18.1188 12.1877 18.2876 12.6189C18.3438 12.7564 18.3876 12.9002 18.4313 13.0377C18.4501 13.1002 18.4688 13.1689 18.4813 13.2314C18.5688 13.5877 18.6126 13.9439 18.6126 14.3002C18.6126 14.3939 18.6126 14.4814 18.6063 14.5752C18.5876 14.8939 18.5376 15.2064 18.4563 15.5002C18.4251 15.6189 18.3876 15.7377 18.3438 15.8502C18.2626 16.0627 18.1688 16.2564 18.0501 16.4439H24.6376C24.6813 15.9564 24.7001 15.4564 24.6751 14.9502Z" fill="white"/>
<path d="M22.3498 17.1506L22.3561 17.1318H15.2686L16.0436 18.5631H21.5748L22.3498 17.1506Z" fill="white"/>
</g>
<defs>
<linearGradient id="paint0_linear_6861_27594" x1="32" y1="-9.53674e-07" x2="-9.53674e-07" y2="32" gradientUnits="userSpaceOnUse">
<stop stop-color="#FF6A00"/>
<stop offset="1" stop-color="#EE0979"/>
</linearGradient>
<clipPath id="clip0_6861_27594">
<rect width="32" height="32" fill="white"/>
</clipPath>
</defs>
</svg>
