<svg width="32" height="32" viewBox="0 0 32 32" fill="none" xmlns="http://www.w3.org/2000/svg">
<circle cx="16" cy="16" r="16" fill="url(#paint0_linear_6899_252179)"/>
<g filter="url(#filter0_d_6899_252179)">
<path d="M21.1652 18.5C21.0667 18.4999 20.9692 18.5191 20.8781 18.5564C20.7871 18.5938 20.7044 18.6485 20.6348 18.7175C20.5651 18.7865 20.5099 18.8684 20.4721 18.9586C20.4344 19.0488 20.415 19.1454 20.415 19.2431V21.1046C20.415 21.2022 20.4344 21.2989 20.4721 21.3891C20.5099 21.4792 20.5651 21.5612 20.6348 21.6302C20.7044 21.6992 20.7871 21.7539 20.8781 21.7912C20.9692 21.8285 21.0667 21.8477 21.1652 21.8477H25.5997V18.5H21.1652ZM21.9413 21.0606C21.7457 21.0606 21.5545 21.0031 21.3919 20.8954C21.2293 20.7877 21.1025 20.6346 21.0277 20.4555C20.9529 20.2765 20.9333 20.0794 20.9715 19.8893C21.0097 19.6992 21.1039 19.5245 21.2422 19.3875C21.3806 19.2505 21.5568 19.1572 21.7486 19.1194C21.9405 19.0816 22.1393 19.1011 22.32 19.1753C22.5006 19.2496 22.655 19.3753 22.7636 19.5365C22.8722 19.6977 22.9301 19.8872 22.93 20.0811C22.9299 20.3409 22.8257 20.59 22.6403 20.7737C22.4549 20.9574 22.2034 21.0606 21.9413 21.0606Z" fill="white"/>
<path d="M25.6003 14.9423C25.4872 14.7351 25.3507 14.5699 25.1993 14.457C25.0479 14.344 24.8847 14.2855 24.7198 14.2852H23.6289V14.6137V14.9423H25.6003Z" fill="white"/>
<path d="M21.1656 17.902H25.6001V15.6659C25.5984 15.5861 25.5652 15.5103 25.5077 15.4545C25.4502 15.3987 25.373 15.3675 25.2925 15.3675H8.73828C8.28828 15.3675 7.92353 15.2225 7.92353 15.043C7.92353 14.8636 8.28828 14.7181 8.73828 14.7181H9.09907L8.99536 14.2852H8.59678C8.22638 14.2852 7.87115 14.431 7.60924 14.6906C7.34733 14.9502 7.2002 15.3022 7.2002 15.6693V23.4152C7.2002 23.597 7.23632 23.777 7.3065 23.9449C7.37669 24.1129 7.47956 24.2655 7.60924 24.394C7.73893 24.5225 7.89289 24.6245 8.06233 24.694C8.23177 24.7636 8.41338 24.7994 8.59678 24.7994H24.2035C24.3869 24.7994 24.5686 24.7636 24.738 24.694C24.9074 24.6245 25.0614 24.5225 25.1911 24.394C25.3208 24.2655 25.4236 24.1129 25.4938 23.9449C25.564 23.777 25.6001 23.597 25.6001 23.4152V22.4457H21.1656C20.9879 22.4457 20.8119 22.4111 20.6477 22.3437C20.4834 22.2763 20.3342 22.1776 20.2085 22.053C20.0829 21.9285 19.9831 21.7806 19.9151 21.6179C19.8471 21.4552 19.8121 21.2808 19.8121 21.1046V19.2431C19.8121 19.0669 19.8471 18.8925 19.9151 18.7298C19.9831 18.567 20.0829 18.4192 20.2085 18.2946C20.3342 18.1701 20.4834 18.0713 20.6477 18.0039C20.8119 17.9366 20.9879 17.9019 21.1656 17.902Z" fill="white"/>
</g>
<g filter="url(#filter1_bdi_6899_252179)">
<g filter="url(#filter2_bi_6899_252179)">
<ellipse cx="16.0006" cy="13.5992" rx="6.4" ry="6.4" fill="#AAFF83" fill-opacity="0.4"/>
</g>
</g>
<path d="M19.86 10.8289L19.9874 11.6562L12.1936 12.8566L12.0662 12.0293C12.0574 11.9729 12.0593 11.9153 12.0717 11.86C12.0841 11.8047 12.1068 11.7526 12.1386 11.7069C12.1703 11.6611 12.2104 11.6225 12.2566 11.5934C12.3028 11.5642 12.3542 11.545 12.4078 11.5368L19.386 10.462C19.4396 10.4537 19.4943 10.4567 19.5471 10.4707C19.5999 10.4846 19.6497 10.5094 19.6937 10.5434C19.7377 10.5775 19.7751 10.6203 19.8036 10.6692C19.8321 10.7182 19.8513 10.7725 19.86 10.8289Z" fill="url(#paint1_linear_6899_252179)"/>
<path d="M12.2715 13.3594L12.7347 16.3665C12.7433 16.4229 12.7625 16.4771 12.791 16.5261C12.8195 16.575 12.8569 16.6177 12.9009 16.6517C12.9449 16.6857 12.9947 16.7103 13.0475 16.7242C13.1003 16.7381 13.155 16.741 13.2085 16.7326L20.1867 15.6578C20.2948 15.6412 20.3914 15.5801 20.4555 15.4879C20.5195 15.3957 20.5458 15.28 20.5284 15.1661L20.0653 12.159L12.2715 13.3594ZM15.5583 15.0091C15.5757 15.123 15.5495 15.2388 15.4855 15.3311C15.4214 15.4234 15.3248 15.4847 15.2168 15.5016L14.226 15.6542C14.1178 15.6708 14.0072 15.6415 13.9183 15.5727C13.8294 15.5039 13.7696 15.4012 13.752 15.2873L13.7262 15.1194C13.7086 15.0054 13.7348 14.8895 13.7988 14.7972C13.8629 14.7048 13.9596 14.6435 14.0678 14.6269L15.0586 14.4743C15.1667 14.4579 15.2772 14.4872 15.3661 14.556C15.4549 14.6248 15.5147 14.7273 15.5325 14.8412L15.5583 15.0091Z" fill="url(#paint2_linear_6899_252179)"/>
<defs>
<filter id="filter0_d_6899_252179" x="7.2002" y="14.2852" width="20.4004" height="12.5137" filterUnits="userSpaceOnUse" color-interpolation-filters="sRGB">
<feFlood flood-opacity="0" result="BackgroundImageFix"/>
<feColorMatrix in="SourceAlpha" type="matrix" values="0 0 0 0 0 0 0 0 0 0 0 0 0 0 0 0 0 0 127 0" result="hardAlpha"/>
<feOffset dx="1" dy="1"/>
<feGaussianBlur stdDeviation="0.5"/>
<feComposite in2="hardAlpha" operator="out"/>
<feColorMatrix type="matrix" values="0 0 0 0 0 0 0 0 0 0 0 0 0 0 0 0 0 0 0.15 0"/>
<feBlend mode="normal" in2="BackgroundImageFix" result="effect1_dropShadow_6899_252179"/>
<feBlend mode="normal" in="SourceGraphic" in2="effect1_dropShadow_6899_252179" result="shape"/>
</filter>
<filter id="filter1_bdi_6899_252179" x="5.60059" y="3.19922" width="20.7998" height="20.8008" filterUnits="userSpaceOnUse" color-interpolation-filters="sRGB">
<feFlood flood-opacity="0" result="BackgroundImageFix"/>
<feGaussianBlur in="BackgroundImage" stdDeviation="2"/>
<feComposite in2="SourceAlpha" operator="in" result="effect1_backgroundBlur_6899_252179"/>
<feColorMatrix in="SourceAlpha" type="matrix" values="0 0 0 0 0 0 0 0 0 0 0 0 0 0 0 0 0 0 127 0" result="hardAlpha"/>
<feOffset dx="1" dy="1"/>
<feGaussianBlur stdDeviation="1"/>
<feComposite in2="hardAlpha" operator="out"/>
<feColorMatrix type="matrix" values="0 0 0 0 0 0 0 0 0 0 0 0 0 0 0 0 0 0 0.15 0"/>
<feBlend mode="normal" in2="effect1_backgroundBlur_6899_252179" result="effect2_dropShadow_6899_252179"/>
<feBlend mode="normal" in="SourceGraphic" in2="effect2_dropShadow_6899_252179" result="shape"/>
<feColorMatrix in="SourceAlpha" type="matrix" values="0 0 0 0 0 0 0 0 0 0 0 0 0 0 0 0 0 0 127 0" result="hardAlpha"/>
<feOffset dy="2"/>
<feGaussianBlur stdDeviation="1.5"/>
<feComposite in2="hardAlpha" operator="arithmetic" k2="-1" k3="1"/>
<feColorMatrix type="matrix" values="0 0 0 0 1 0 0 0 0 1 0 0 0 0 1 0 0 0 0.45 0"/>
<feBlend mode="normal" in2="shape" result="effect3_innerShadow_6899_252179"/>
</filter>
<filter id="filter2_bi_6899_252179" x="5.60059" y="3.19922" width="20.7998" height="20.8008" filterUnits="userSpaceOnUse" color-interpolation-filters="sRGB">
<feFlood flood-opacity="0" result="BackgroundImageFix"/>
<feGaussianBlur in="BackgroundImage" stdDeviation="2"/>
<feComposite in2="SourceAlpha" operator="in" result="effect1_backgroundBlur_6899_252179"/>
<feBlend mode="normal" in="SourceGraphic" in2="effect1_backgroundBlur_6899_252179" result="shape"/>
<feColorMatrix in="SourceAlpha" type="matrix" values="0 0 0 0 0 0 0 0 0 0 0 0 0 0 0 0 0 0 127 0" result="hardAlpha"/>
<feOffset dy="2"/>
<feGaussianBlur stdDeviation="1.5"/>
<feComposite in2="hardAlpha" operator="arithmetic" k2="-1" k3="1"/>
<feColorMatrix type="matrix" values="0 0 0 0 1 0 0 0 0 1 0 0 0 0 1 0 0 0 0.45 0"/>
<feBlend mode="normal" in2="shape" result="effect2_innerShadow_6899_252179"/>
</filter>
<linearGradient id="paint0_linear_6899_252179" x1="26.8" y1="28.4" x2="6.8" y2="8.2165e-07" gradientUnits="userSpaceOnUse">
<stop stop-color="#47BF33"/>
<stop offset="1" stop-color="#9CFFAC"/>
</linearGradient>
<linearGradient id="paint1_linear_6899_252179" x1="16.2714" y1="12.3707" x2="16.4163" y2="13.1125" gradientUnits="userSpaceOnUse">
<stop stop-color="#47BF33"/>
<stop offset="1" stop-color="#9CFFAC"/>
</linearGradient>
<linearGradient id="paint2_linear_6899_252179" x1="16.9156" y1="16.5502" x2="17.448" y2="18.5356" gradientUnits="userSpaceOnUse">
<stop stop-color="#47BF33"/>
<stop offset="1" stop-color="#9CFFAC"/>
</linearGradient>
</defs>
</svg>
