<svg width="41" height="41" viewBox="0 0 41 41" fill="none" xmlns="http://www.w3.org/2000/svg">
<path d="M10.8602 32.6337V1.92403L9.58544 1.07031C4.16522 3.24619 0.333496 8.54008 0.333496 14.7382V25.2649C0.333496 33.4042 6.93165 40.0024 15.0709 40.0024H25.5976C30.5684 40.0024 34.9485 37.5307 37.616 33.759V32.6337H10.8602Z" fill="#2962FF"/>
<path d="M25.5959 0H15.0691C13.127 0 11.2785 0.385278 9.58051 1.06741C6.07195 4.47386 3.48975 10.0299 3.48975 14.7374C3.48975 21.8651 4.47505 26.0379 7.39727 30.1138C7.62464 30.4307 7.77307 30.8012 7.79307 31.1896C7.83834 32.0686 7.65728 33.6792 6.07301 35.1287C5.90247 35.2845 6.0109 35.5698 6.24143 35.5793C7.23305 35.6224 9.23418 35.5646 11.2911 34.6561C11.8774 34.3971 12.5448 34.4424 13.1112 34.7435C16.5987 36.5951 20.6831 36.8436 24.5432 36.8436C29.4655 36.8436 34.3741 35.7488 37.6142 33.774C39.3206 31.3686 40.3333 28.4369 40.3333 25.2641V14.7374C40.3333 6.59815 33.7351 0 25.5959 0Z" fill="white"/>
<path d="M33.7556 23.1587C31.5798 23.1587 29.8081 21.3871 29.8081 19.2112C29.8081 17.0353 31.5798 15.2637 33.7556 15.2637C35.9315 15.2637 37.7032 17.0353 37.7032 19.2112C37.7032 21.3871 35.9315 23.1587 33.7556 23.1587ZM33.7556 16.8427C32.4503 16.8427 31.3871 17.9059 31.3871 19.2112C31.3871 20.5165 32.4503 21.5797 33.7556 21.5797C35.0609 21.5797 36.1241 20.5165 36.1241 19.2112C36.1241 17.9059 35.0609 16.8427 33.7556 16.8427Z" fill="#2962FF"/>
<path d="M28.2309 23.1596H27.1782C26.8877 23.1596 26.6519 22.9238 26.6519 22.6333V13.6855H28.2309V23.1596Z" fill="#2962FF"/>
<path d="M23.4923 15.5268V16.0732C22.8302 15.5721 22.0154 15.2637 21.1238 15.2637C18.9479 15.2637 17.1763 17.0353 17.1763 19.2112C17.1763 21.3871 18.9479 23.1587 21.1238 23.1587C22.0154 23.1587 22.8302 22.8503 23.4923 22.3492V22.6324C23.4923 22.9229 23.7281 23.1587 24.0186 23.1587H25.0713V15.5268H23.4923ZM21.1238 21.5797C19.8185 21.5797 18.7553 20.5165 18.7553 19.2112C18.7553 17.9059 19.8185 16.8427 21.1238 16.8427C22.4291 16.8427 23.4923 17.9059 23.4923 19.2112C23.4923 20.5165 22.4291 21.5797 21.1238 21.5797Z" fill="#2962FF"/>
<path d="M17.438 13.6855H9.01657V15.2646H14.6178L8.7534 22.1069H8.78077C8.60919 22.329 8.49023 22.5943 8.49023 22.8964V23.1596H16.3853C16.6758 23.1596 16.9116 22.9238 16.9116 22.6333V21.5806H11.3103L17.1748 14.7382H17.1474C17.319 14.5161 17.438 14.2508 17.438 13.9487V13.6855Z" fill="#2962FF"/>
</svg>
