<svg width="90" height="21" viewBox="0 0 90 21" fill="none" xmlns="http://www.w3.org/2000/svg">
<path d="M30.1157 13.293L31.6088 12.5636C32.2807 13.7746 33.3109 14.3664 34.6994 14.3664C36.0581 14.3664 36.9838 13.9673 36.9838 13.0178C36.9838 12.1233 36.2821 11.7104 34.4456 11.2013C32.2807 10.6095 30.5338 10.0728 30.5338 8.10493C30.5338 6.34346 32.0866 5.1875 34.371 5.1875C36.5807 5.1875 37.8797 6.19209 38.5665 7.41686L37.1928 8.29759C36.521 7.26548 35.5803 6.78383 34.356 6.78383C33.1168 6.78383 32.4001 7.19667 32.4001 7.95355C32.4001 8.91685 33.2064 9.23337 35.0279 9.74254C37.1481 10.3205 38.8352 10.9535 38.8352 12.9077C38.8352 14.6003 37.2824 15.9214 34.6098 15.9214C32.4001 15.9214 30.8175 14.8618 30.1157 13.293Z" fill="#343434"/>
<path d="M39.6994 13.9395C39.6994 12.3294 41.1775 11.256 44.9401 10.8707V10.6505C44.9401 9.90737 44.522 9.59086 43.6262 9.59086C42.5064 9.59086 41.5956 10.1 40.9237 10.5954L40.0129 9.52205C40.8789 8.7927 42.2227 8.17344 43.8949 8.17344C46.045 8.17344 46.7915 9.12298 46.7915 10.8569V13.9119C46.7915 14.8064 46.8512 15.3569 47.0154 15.7284H45.1342C45.0297 15.4257 44.955 15.1917 44.955 14.7789C44.1338 15.5495 43.1783 15.8385 41.9838 15.8385C40.6699 15.8385 39.6994 15.1642 39.6994 13.9395ZM44.9401 13.6505V12.0129C42.7154 12.2881 41.5359 12.7973 41.5359 13.6092C41.5359 14.2009 41.9689 14.5037 42.6557 14.5037C43.6112 14.5037 44.3578 14.1734 44.9401 13.6505Z" fill="#343434"/>
<path d="M49.3625 9.67303H47.9739V8.29691H49.3625V7.54004C49.3625 6.30152 49.9299 5.33823 51.9604 5.33823C52.3039 5.33823 52.9309 5.39328 53.0653 5.40704V6.74188C52.9459 6.71436 52.6473 6.68684 52.4233 6.68684C51.7514 6.68684 51.2139 6.85197 51.2139 7.65012V8.31067H52.9757V9.6868H51.2139V15.7418H49.3625V9.67303Z" fill="#343434"/>
<path d="M53.6468 12.0127C53.6468 9.19169 55.8118 8.1596 57.4691 8.1596C59.2757 8.1596 60.9927 9.15041 60.9927 12.1779V12.577H55.4982C55.5729 13.9256 56.4687 14.5035 57.6482 14.5035C58.6934 14.5035 59.3055 14.187 59.9027 13.6366L60.8882 14.5311C60.052 15.3843 58.9472 15.8797 57.5139 15.8797C55.5131 15.8797 53.6468 14.7512 53.6468 12.0127ZM59.2906 11.2972C59.1861 10.1687 58.5739 9.56325 57.4541 9.56325C56.5434 9.56325 55.7072 10.0449 55.5281 11.2972H59.2906Z" fill="#343434"/>
<path d="M62.6635 15.7283V5.37976H64.0073V10.7192L69.0688 5.37976H70.6813L66.8292 9.31552L71.2039 15.7283H69.681L65.9483 10.2513L64.0073 12.2329V15.7283H62.6635Z" fill="#343434"/>
<path d="M71.593 12.0267C71.593 9.34324 73.534 8.18729 75.2063 8.18729C77.1025 8.18729 78.5358 9.41205 78.5358 12.0817V12.3295H72.892C72.9368 13.9946 73.982 14.8891 75.2959 14.8891C76.4455 14.8891 77.1025 14.4625 77.6997 13.6918L78.4612 14.3111C77.7146 15.2881 76.6993 15.8799 75.2063 15.8799C73.3101 15.8799 71.593 14.6001 71.593 12.0267ZM77.2966 11.4074C77.1921 10.1001 76.5052 9.20563 75.1913 9.20563C74.1163 9.20563 73.101 9.89369 72.9219 11.4074H77.2966Z" fill="#343434"/>
<path d="M79.1333 18.3844L79.4319 17.4211C79.6559 17.4762 80.059 17.545 80.6114 17.545C81.4326 17.545 81.8208 17.2285 82.1344 16.4991L82.433 15.7697L79.3423 8.35237H80.716L83.0601 14.3248H83.0899L85.4341 8.35237H86.748L83.3288 16.5679C82.7764 17.8615 82.1642 18.5633 80.6114 18.5633C79.9097 18.5633 79.4767 18.4807 79.1333 18.3844Z" fill="#343434"/>
<path d="M87.211 9.39834C87.211 8.76532 87.7336 8.28367 88.4204 8.28367C89.0923 8.28367 89.6 8.76532 89.6 9.38458C89.6 10.0176 89.0774 10.4993 88.3906 10.4993C87.7187 10.4993 87.211 10.0176 87.211 9.39834ZM89.3461 9.39834C89.3461 8.88917 88.943 8.49009 88.3906 8.49009C87.8531 8.49009 87.4499 8.87541 87.4499 9.38458C87.4499 9.89375 87.8531 10.2791 88.4055 10.2791C88.943 10.2791 89.3461 9.90751 89.3461 9.39834ZM87.9277 8.76532H88.4354C88.7489 8.76532 88.943 8.88917 88.943 9.1644C88.943 9.35706 88.8534 9.45339 88.7041 9.50843L88.9579 9.96256H88.6295L88.3906 9.53596H88.2413V9.96256H87.9277V8.76532ZM88.4055 9.32954C88.5399 9.32954 88.6295 9.28825 88.6295 9.17816C88.6295 9.06807 88.5548 9.02679 88.4055 9.02679H88.2413V9.32954H88.4055Z" fill="#343434"/>
<path d="M22.772 20.9997H11.3948H0.0175781V10.5135V0.0273438H11.3948H22.772V10.4447V20.9997Z" fill="white"/>
<path d="M14.4828 14.9173L13.9303 14.2843V14.9173H12.3029V14.0091C12.0939 14.0641 11.855 14.1054 11.5862 14.1054H11.3324V14.9036H8.94349L8.54036 14.3806L8.15216 14.9036H4.22539V11.3256H7.61465H8.15216L8.55529 11.8485L8.95842 11.3256H22.7693V0H0.0149305V8.28434L0.776396 6.64674H2.32919L2.77711 7.56875V6.64674H4.67331L4.95699 7.43114L5.24067 6.64674H13.6019V7.00453C13.9303 6.75683 14.3335 6.64674 14.7963 6.64674H17.3345L17.7825 7.56875V6.64674H19.2755L19.7682 7.37609V6.64674H21.4703V10.2247H19.8877L19.4099 9.52286V10.2247H17.0956L16.8717 9.688H16.3342L16.1102 10.2247H14.7515C14.3783 10.2247 13.9453 10.1559 13.6019 9.89442V10.2247H11.3175L10.765 9.59167V10.2247H2.06044L1.83648 9.688H1.29897L1.07501 10.2247H0V20.9723H22.7693V14.6971C22.5304 14.8347 22.2318 14.9173 21.9033 14.9173H14.4828Z" fill="#343434"/>
<path d="M22.7679 11.9033V11.8895H21.3943C20.812 11.8895 20.4686 12.2198 20.4686 12.6601C20.4686 13.128 20.7971 13.3894 21.3047 13.3894H21.9169C22.0662 13.3894 22.1856 13.472 22.1856 13.6096C22.1856 13.7472 22.0811 13.8298 21.9169 13.8298H20.5433V14.3527H21.902C22.3499 14.3527 22.6485 14.1601 22.7679 13.8573C22.7978 13.7748 22.8277 13.6784 22.8277 13.5683C22.8277 13.4582 22.8127 13.3482 22.7679 13.2656C22.6485 13.0041 22.3797 12.8528 21.9915 12.8528H21.3645C21.2151 12.8528 21.1106 12.7564 21.1106 12.6326C21.1106 12.495 21.2151 12.4124 21.3645 12.4124H22.5141L22.7679 11.9033ZM18.6471 12.6464C18.6471 12.5087 18.7516 12.4262 18.9009 12.4262H20.0506L20.3044 11.9033H18.9158C18.3335 11.9033 17.9901 12.2335 17.9901 12.6739C17.9901 13.1417 18.3186 13.4032 18.8262 13.4032H19.4384C19.5877 13.4032 19.7071 13.4858 19.7071 13.6234C19.7071 13.761 19.6026 13.8436 19.4384 13.8436H18.0648V14.3665H19.4235C20.0058 14.3665 20.3492 14.0362 20.3492 13.5821C20.3492 13.128 20.0356 12.8665 19.513 12.8665H18.886C18.7516 12.8665 18.6471 12.784 18.6471 12.6464ZM15.5713 14.3665H17.7214V13.8436H16.2134V13.3894H17.6766V12.8803H16.2134V12.4399H17.7214V11.917H15.5713V14.3665ZM15.422 14.3665L14.5262 13.4582C14.9741 13.3757 15.2578 13.0729 15.2578 12.6739C15.2578 12.206 14.8995 11.8895 14.3321 11.8895H12.8689V14.3665H13.5109V13.4858H13.8095L14.6009 14.3665H15.422ZM14.2724 12.9629H13.5258V12.4124H14.2724C14.4963 12.4124 14.6158 12.5363 14.6158 12.6876C14.6009 12.8528 14.4963 12.9629 14.2724 12.9629ZM12.5255 12.7152C12.5255 12.2198 12.1672 11.8895 11.5998 11.8895H10.1216V14.3665H10.7637V13.5546H11.5699C12.1672 13.5546 12.5255 13.1968 12.5255 12.7152ZM11.8685 12.7289C11.8685 12.8941 11.7491 13.0317 11.5251 13.0317H10.7487V12.4262H11.5251C11.764 12.4262 11.8685 12.55 11.8685 12.7289ZM10.0022 14.3665L8.92719 13.1142L10.0022 11.8895H9.21087L8.55392 12.6739L7.89697 11.8895H7.09072L8.16572 13.128L7.09072 14.3665H7.88204L8.53899 13.5683L9.19594 14.3665H10.0022ZM4.83618 14.3665H6.9862V13.8436H5.4782V13.3894H6.94141V12.8803H5.4782V12.4399H6.9862V11.917H4.83618V14.3665Z" fill="#646464"/>
<path d="M20.8608 9.70169V7.22461H20.2337V8.53196L20.2487 8.83471H20.2337L20.0546 8.55948L19.1139 7.22461H18.3226V9.70169H18.9497V8.32554L18.9348 8.03654H18.9497L19.1289 8.31177L20.1143 9.70169H20.8608ZM17.4566 9.70169H18.1882L17.0386 7.22461H16.1875L15.0379 9.70169H15.7247L15.9486 9.17875H17.2177L17.4566 9.70169ZM17.0087 8.6971H16.1577L16.4115 8.11911L16.5757 7.73379H16.5907L16.7549 8.11911L17.0087 8.6971ZM14.7691 7.76131H15.4709V7.22461H14.7243C13.8882 7.22461 13.4403 7.73379 13.4403 8.43563V8.47691C13.4403 9.22003 13.9031 9.68793 14.6795 9.68793H14.7243L14.9931 9.16499H14.799C14.366 9.16499 14.0972 8.91728 14.0972 8.47691V8.43563C14.0823 8.0503 14.3063 7.76131 14.7691 7.76131ZM12.4101 9.70169H13.0521V7.22461H12.4101V9.70169ZM12.2458 9.70169L11.35 8.79343C11.7979 8.71086 12.0816 8.4081 12.0816 8.00902C12.0816 7.54112 11.7232 7.22461 11.1559 7.22461H9.69267V9.70169H10.3347V8.82095H10.6333L11.4246 9.70169H12.2458ZM11.0962 8.29801H10.3496V7.74755H11.0962C11.3201 7.74755 11.4396 7.8714 11.4396 8.02278C11.4246 8.17416 11.3201 8.29801 11.0962 8.29801ZM7.10966 9.70169H9.25968V9.17875H7.76661V8.72462H9.22982V8.21544H7.76661V7.77507H9.25968V7.25213H7.10966V9.70169ZM5.98986 9.70169H6.61695V7.22461H5.5718L5.04922 8.65581L4.95964 8.93104H4.94471L4.85512 8.65581L4.33255 7.22461H3.2874V9.70169H3.91449V8.07783L3.89956 7.70627H3.91449L4.04887 8.07783L4.66103 9.70169H5.24332L5.85548 8.07783L5.98986 7.70627H6.00479L5.98986 8.07783V9.70169ZM2.43635 9.70169H3.16795L2.01829 7.22461H1.16724L0.0175781 9.70169H0.70439L0.92835 9.17875H2.19746L2.43635 9.70169ZM2.00336 8.6971H1.15231L1.40613 8.11911L1.57037 7.73379H1.5853L1.74954 8.11911L2.00336 8.6971Z" fill="#646464"/>
</svg>
