<svg width="32" height="32" viewBox="0 0 32 32" fill="none" xmlns="http://www.w3.org/2000/svg">
<circle cx="16" cy="16" r="16" fill="url(#paint0_linear_6899_252183)"/>
<g filter="url(#filter0_d_6899_252183)">
<path fill-rule="evenodd" clip-rule="evenodd" d="M16.2589 6.70895C15.9474 6.48207 15.5616 6.37422 15.1741 6.40578L6.81451 7.66783C6.49554 7.74022 6.20743 7.90723 5.98986 8.14588C5.77228 8.38452 5.63594 8.68306 5.59961 9.00039V22.8548C5.59961 23.0618 5.64156 23.2669 5.72305 23.4581C5.80455 23.6493 5.92398 23.8229 6.07449 23.969C6.22501 24.1151 6.40363 24.2308 6.60012 24.3094C6.79661 24.388 7.00709 24.428 7.21947 24.427H16.6928V7.73834C16.6959 7.54703 16.659 7.35711 16.5844 7.18015C16.5098 7.00318 16.399 6.84286 16.2589 6.70895ZM13.8002 13.2942H12.578C12.4284 13.2942 12.285 13.2362 12.1792 13.1331C12.0734 13.03 12.014 12.8901 12.014 12.7442C12.014 12.5984 12.0734 12.4585 12.1792 12.3554C12.285 12.2522 12.4284 12.1943 12.578 12.1943H13.8002C13.8771 12.1915 13.9538 12.2034 14.026 12.2296C14.0982 12.2557 14.1644 12.2954 14.2208 12.3465C14.2772 12.3976 14.3228 12.459 14.3548 12.5272C14.3869 12.5955 14.4048 12.6692 14.4076 12.7442C14.3983 12.8945 14.33 13.0355 14.2169 13.1379C14.1038 13.2403 13.9545 13.2963 13.8002 13.2942ZM14.4076 14.937C14.3965 15.086 14.3275 15.2252 14.2145 15.3261C14.1016 15.427 13.9533 15.4821 13.8002 15.4799H12.578C12.4267 15.4757 12.282 15.4186 12.1705 15.3189C12.0589 15.2192 11.9879 15.0836 11.9706 14.937C11.9799 14.7867 12.0482 14.6457 12.1613 14.5433C12.2744 14.4409 12.4237 14.3849 12.578 14.387H13.8002C13.951 14.3846 14.0974 14.4376 14.2099 14.5356C14.3225 14.6336 14.3931 14.7694 14.4076 14.9158V14.937ZM12.578 10.0016H13.8002C13.8791 9.99281 13.9591 10.0004 14.0348 10.0239C14.1105 10.0473 14.1803 10.0861 14.2395 10.1377C14.2988 10.1893 14.3462 10.2525 14.3787 10.3232C14.4112 10.3939 14.428 10.4705 14.428 10.548C14.428 10.6254 14.4112 10.702 14.3787 10.7727C14.3462 10.8434 14.2988 10.9067 14.2395 10.9583C14.1803 11.0098 14.1105 11.0486 14.0348 11.0721C13.9591 11.0956 13.8791 11.1032 13.8002 11.0944H12.578C12.4258 11.0933 12.2794 11.0372 12.1672 10.9369C12.055 10.8366 11.9849 10.6993 11.9706 10.5515C11.9744 10.3975 12.0403 10.2512 12.154 10.1443C12.2677 10.0374 12.4201 9.97852 12.578 9.98042V10.0016ZM8.54284 10.0016H9.76497C9.84391 9.99281 9.92386 10.0004 9.99958 10.0239C10.0753 10.0473 10.1451 10.0861 10.2044 10.1377C10.2636 10.1893 10.3111 10.2525 10.3435 10.3232C10.376 10.3939 10.3928 10.4705 10.3928 10.548C10.3928 10.6254 10.376 10.702 10.3435 10.7727C10.3111 10.8434 10.2636 10.9067 10.2044 10.9583C10.1451 11.0098 10.0753 11.0486 9.99958 11.0721C9.92386 11.0956 9.84391 11.1032 9.76497 11.0944H8.54284C8.46389 11.1032 8.38394 11.0956 8.30822 11.0721C8.2325 11.0486 8.16272 11.0098 8.10344 10.9583C8.04417 10.9067 7.99675 10.8434 7.96428 10.7727C7.9318 10.702 7.91501 10.6254 7.91501 10.548C7.91501 10.4705 7.9318 10.3939 7.96428 10.3232C7.99675 10.2525 8.04417 10.1893 8.10344 10.1377C8.16272 10.0861 8.2325 10.0473 8.30822 10.0239C8.38394 10.0004 8.46389 9.99281 8.54284 10.0016ZM8.54284 12.1872H9.76497C9.91457 12.1872 10.058 12.2452 10.1638 12.3483C10.2696 12.4515 10.329 12.5913 10.329 12.7372C10.329 12.883 10.2696 13.0229 10.1638 13.1261C10.058 13.2292 9.91457 13.2871 9.76497 13.2871H8.54284C8.4659 13.29 8.38915 13.278 8.31697 13.2519C8.24479 13.2257 8.1786 13.186 8.12218 13.1349C8.06576 13.0839 8.02023 13.0224 7.98818 12.9542C7.95613 12.8859 7.93819 12.8122 7.93539 12.7372C7.94645 12.5882 8.01553 12.449 8.12846 12.3481C8.2414 12.2471 8.38965 12.1921 8.54284 12.1943V12.1872ZM8.54284 14.38H9.76497C9.84391 14.3712 9.92386 14.3788 9.99958 14.4023C10.0753 14.4257 10.1451 14.4645 10.2044 14.5161C10.2636 14.5677 10.3111 14.6309 10.3435 14.7016C10.376 14.7723 10.3928 14.8489 10.3928 14.9264C10.3928 15.0039 10.376 15.0805 10.3435 15.1512C10.3111 15.2219 10.2636 15.2851 10.2044 15.3366C10.1451 15.3882 10.0753 15.427 9.99958 15.4505C9.92386 15.474 9.84391 15.4816 9.76497 15.4728H8.54284C8.39061 15.4717 8.24421 15.4156 8.13199 15.3153C8.01977 15.215 7.94972 15.0777 7.93539 14.9299C7.94645 14.7809 8.01553 14.6417 8.12846 14.5408C8.2414 14.4398 8.38965 14.3848 8.54284 14.387V14.38Z" fill="white"/>
</g>
<g filter="url(#filter1_bi_6899_252183)">
<path d="M25.3431 11.5847L19.1405 9.91077C18.9291 9.85664 18.7083 9.85288 18.4953 9.89979C18.2823 9.9467 18.083 10.043 17.913 10.1811C17.7431 10.3192 17.6072 10.4953 17.5159 10.6956C17.4247 10.8959 17.3807 11.1149 17.3874 11.3353V24.4272H24.9911C25.1802 24.4273 25.3674 24.3889 25.5416 24.3142C25.7157 24.2395 25.8732 24.1301 26.0046 23.9925C26.136 23.8549 26.2387 23.6919 26.3065 23.5132C26.3743 23.3346 26.4058 23.144 26.3992 22.9527V13.0163C26.4 12.6942 26.2974 12.3806 26.107 12.1224C25.9166 11.8643 25.6485 11.6756 25.3431 11.5847Z" fill="#FFBF94" fill-opacity="0.4"/>
</g>
<g filter="url(#filter2_bdi_6899_252183)">
<path d="M17.1992 25.5996C20.5129 25.5996 23.1992 22.9133 23.1992 19.5996C23.1992 16.2859 20.5129 13.5996 17.1992 13.5996C13.8855 13.5996 11.1992 16.2859 11.1992 19.5996C11.1992 22.9133 13.8855 25.5996 17.1992 25.5996Z" fill="#FFBF94" fill-opacity="0.4" shape-rendering="crispEdges"/>
</g>
<path d="M19.9904 19.9086C20.0063 19.7291 20.0063 19.5486 19.9904 19.369L20.6723 18.868C20.7361 18.8204 20.7795 18.7516 20.7942 18.6747C20.8088 18.5978 20.7936 18.5184 20.7515 18.4517L20.0459 17.2493C20.0059 17.1816 19.9427 17.1297 19.8672 17.103C19.7918 17.0762 19.7091 17.0761 19.6336 17.1028L18.8408 17.3957C18.6885 17.2893 18.5266 17.1964 18.3572 17.1182L18.2303 16.278C18.2175 16.2024 18.1781 16.1333 18.1188 16.0827C18.0596 16.0321 17.9841 16.0031 17.9052 16.0005H16.486C16.4078 15.996 16.3307 16.0206 16.2703 16.0692C16.21 16.1179 16.1709 16.187 16.161 16.2626L16.0341 17.0951L15.7883 17.2107L15.5584 17.3495L14.7656 17.018C14.6923 16.9895 14.6109 16.9879 14.5365 17.0134C14.4621 17.0389 14.3998 17.0899 14.3612 17.1568L13.6477 18.3284C13.6089 18.3959 13.5956 18.4744 13.6101 18.5504C13.6245 18.6265 13.6659 18.6951 13.727 18.7447L14.4088 19.2765C14.3929 19.456 14.3929 19.6366 14.4088 19.8161L13.727 20.3171C13.6631 20.3647 13.6197 20.4336 13.605 20.5104C13.5904 20.5873 13.6056 20.6667 13.6477 20.7334L14.3612 21.9436C14.4009 22.0096 14.4629 22.0602 14.5365 22.0869C14.6102 22.1136 14.6912 22.1147 14.7656 22.09L15.5584 21.7971C15.7086 21.9089 15.8707 22.0045 16.0421 22.0823L16.1689 22.9225C16.17 22.9616 16.1839 22.9994 16.2086 23.0304C16.2365 23.0807 16.2777 23.1228 16.3278 23.1526C16.3779 23.1824 16.4352 23.1987 16.494 23.2H17.9132C17.9925 23.199 18.0688 23.1704 18.1284 23.1196C18.1879 23.0687 18.2269 22.9988 18.2382 22.9225L18.3651 22.0977C18.4501 22.0627 18.5323 22.0215 18.6109 21.9744L18.8408 21.8357L19.6336 22.1671C19.7071 22.1967 19.7891 22.1998 19.8647 22.1758C19.9404 22.1518 20.0046 22.1022 20.0459 22.0361L20.7515 20.8644C20.7919 20.7973 20.8061 20.7184 20.7916 20.6419C20.777 20.5655 20.7347 20.4967 20.6723 20.4482L19.9904 19.9086ZM18.1431 21.2421C17.6961 21.4754 17.1729 21.5295 16.6854 21.3926C16.198 21.2558 15.7849 20.9389 15.5346 20.5098C15.4089 20.3008 15.3271 20.0695 15.2941 19.8294C15.2611 19.5893 15.2776 19.3453 15.3425 19.1114C15.4074 18.8776 15.5195 18.6586 15.6723 18.4673C15.8251 18.276 16.0154 18.1161 16.2323 17.997C16.6794 17.7636 17.2026 17.7096 17.69 17.8465C18.1775 17.9833 18.5905 18.3002 18.8408 18.7292C18.9666 18.9383 19.0483 19.1696 19.0813 19.4097C19.1143 19.6498 19.0978 19.8938 19.0329 20.1277C18.968 20.3615 18.8559 20.5804 18.7031 20.7718C18.5504 20.9631 18.36 21.123 18.1431 21.2421Z" fill="url(#paint1_linear_6899_252183)"/>
<defs>
<filter id="filter0_d_6899_252183" x="2.59961" y="6.40039" width="17.0938" height="24.0273" filterUnits="userSpaceOnUse" color-interpolation-filters="sRGB">
<feFlood flood-opacity="0" result="BackgroundImageFix"/>
<feColorMatrix in="SourceAlpha" type="matrix" values="0 0 0 0 0 0 0 0 0 0 0 0 0 0 0 0 0 0 127 0" result="hardAlpha"/>
<feOffset dy="3"/>
<feGaussianBlur stdDeviation="1.5"/>
<feComposite in2="hardAlpha" operator="out"/>
<feColorMatrix type="matrix" values="0 0 0 0 0 0 0 0 0 0 0 0 0 0 0 0 0 0 0.15 0"/>
<feBlend mode="normal" in2="BackgroundImageFix" result="effect1_dropShadow_6899_252183"/>
<feBlend mode="normal" in="SourceGraphic" in2="effect1_dropShadow_6899_252183" result="shape"/>
</filter>
<filter id="filter1_bi_6899_252183" x="13.3867" y="5.86719" width="17.0137" height="22.5605" filterUnits="userSpaceOnUse" color-interpolation-filters="sRGB">
<feFlood flood-opacity="0" result="BackgroundImageFix"/>
<feGaussianBlur in="BackgroundImage" stdDeviation="2"/>
<feComposite in2="SourceAlpha" operator="in" result="effect1_backgroundBlur_6899_252183"/>
<feBlend mode="normal" in="SourceGraphic" in2="effect1_backgroundBlur_6899_252183" result="shape"/>
<feColorMatrix in="SourceAlpha" type="matrix" values="0 0 0 0 0 0 0 0 0 0 0 0 0 0 0 0 0 0 127 0" result="hardAlpha"/>
<feOffset dy="2"/>
<feGaussianBlur stdDeviation="1.5"/>
<feComposite in2="hardAlpha" operator="arithmetic" k2="-1" k3="1"/>
<feColorMatrix type="matrix" values="0 0 0 0 1 0 0 0 0 1 0 0 0 0 1 0 0 0 0.45 0"/>
<feBlend mode="normal" in2="shape" result="effect2_innerShadow_6899_252183"/>
</filter>
<filter id="filter2_bdi_6899_252183" x="7.19922" y="9.59961" width="20" height="20" filterUnits="userSpaceOnUse" color-interpolation-filters="sRGB">
<feFlood flood-opacity="0" result="BackgroundImageFix"/>
<feGaussianBlur in="BackgroundImage" stdDeviation="2"/>
<feComposite in2="SourceAlpha" operator="in" result="effect1_backgroundBlur_6899_252183"/>
<feColorMatrix in="SourceAlpha" type="matrix" values="0 0 0 0 0 0 0 0 0 0 0 0 0 0 0 0 0 0 127 0" result="hardAlpha"/>
<feOffset dx="1" dy="1"/>
<feGaussianBlur stdDeviation="1"/>
<feComposite in2="hardAlpha" operator="out"/>
<feColorMatrix type="matrix" values="0 0 0 0 0 0 0 0 0 0 0 0 0 0 0 0 0 0 0.15 0"/>
<feBlend mode="normal" in2="effect1_backgroundBlur_6899_252183" result="effect2_dropShadow_6899_252183"/>
<feBlend mode="normal" in="SourceGraphic" in2="effect2_dropShadow_6899_252183" result="shape"/>
<feColorMatrix in="SourceAlpha" type="matrix" values="0 0 0 0 0 0 0 0 0 0 0 0 0 0 0 0 0 0 127 0" result="hardAlpha"/>
<feOffset dy="2"/>
<feGaussianBlur stdDeviation="1.5"/>
<feComposite in2="hardAlpha" operator="arithmetic" k2="-1" k3="1"/>
<feColorMatrix type="matrix" values="0 0 0 0 1 0 0 0 0 1 0 0 0 0 1 0 0 0 0.45 0"/>
<feBlend mode="normal" in2="shape" result="effect3_innerShadow_6899_252183"/>
</filter>
<linearGradient id="paint0_linear_6899_252183" x1="0" y1="16.004" x2="32" y2="16.004" gradientUnits="userSpaceOnUse">
<stop stop-color="#FF6A00"/>
<stop offset="1" stop-color="#EE0979"/>
</linearGradient>
<linearGradient id="paint1_linear_6899_252183" x1="13.5996" y1="19.6009" x2="20.7996" y2="19.6009" gradientUnits="userSpaceOnUse">
<stop stop-color="#FF6A00"/>
<stop offset="1" stop-color="#EE0979"/>
</linearGradient>
</defs>
</svg>
