<svg width="32" height="32" viewBox="0 0 32 32" fill="none" xmlns="http://www.w3.org/2000/svg">
<path d="M32 16C32 7.16344 24.8366 0 16 0C7.16344 0 0 7.16344 0 16C0 24.8366 7.16344 32 16 32C24.8366 32 32 24.8366 32 16Z" fill="#FF0000"/>
<path d="M15.9932 8.45117C15.9932 8.45117 9.24982 8.45118 7.55733 8.89096C6.65111 9.14417 5.90491 9.89038 5.65171 10.8099C5.21192 12.5024 5.21191 16.0074 5.21191 16.0074C5.21191 16.0074 5.21192 19.5257 5.65171 21.1916C5.90491 22.1111 6.63779 22.844 7.55733 23.0972C9.26315 23.5503 15.9932 23.5503 15.9932 23.5503C15.9932 23.5503 22.7499 23.5503 24.4423 23.1105C25.3619 22.8573 26.0947 22.1378 26.3346 21.2049C26.7877 19.5257 26.7877 16.0208 26.7877 16.0208C26.7877 16.0208 26.8011 12.5024 26.3346 10.8099C26.0947 9.89038 25.3619 9.15751 24.4423 8.91763C22.7499 8.45119 15.9932 8.45117 15.9932 8.45117ZM13.8475 12.7691L19.4582 16.0074L13.8475 19.2324V12.7691Z" fill="white"/>
</svg>
