<svg width="40" height="40" viewBox="0 0 40 40" fill="none" xmlns="http://www.w3.org/2000/svg">
<rect width="40" height="40" rx="20" fill="#675DA9"/>
<path d="M29.7948 10.1544C29.1333 9.54621 26.4549 7.59884 20.4848 7.57216C20.4848 7.57216 13.4475 7.14534 10.0169 10.2932C8.1069 12.2032 7.43465 14.9935 7.36529 18.4615C7.29593 21.9241 7.20523 28.4171 13.4635 30.1778H13.4689L13.4635 32.8614C13.4635 32.8614 13.4262 33.9498 14.1411 34.1686C15.0054 34.4353 15.5176 33.6083 16.3446 32.7174C16.7981 32.2265 17.4223 31.5116 17.8971 30.962C22.176 31.3195 25.4679 30.4979 25.8414 30.3752C26.7057 30.0924 31.5982 29.4682 32.3931 22.9751C33.2147 16.2954 31.993 12.0645 29.7948 10.1544ZM30.5204 22.5056C29.8482 27.9263 25.8841 28.2677 25.1531 28.5025C24.8437 28.6039 21.952 29.3241 18.3133 29.084C18.3133 29.084 15.603 32.3546 14.76 33.2029C14.6266 33.3362 14.4719 33.3896 14.3705 33.3629C14.2265 33.3256 14.1838 33.1548 14.1891 32.9041C14.1891 32.5413 14.2105 28.4385 14.2105 28.4385C14.2051 28.4385 14.2051 28.4385 14.2105 28.4385C8.91252 26.9713 9.22197 21.4439 9.28066 18.5522C9.33935 15.6605 9.88355 13.2862 11.5001 11.691C14.3972 9.06604 20.3781 9.45551 20.3781 9.45551C25.4252 9.47686 27.8421 10.9974 28.4023 11.5043C30.2643 13.1048 31.214 16.9196 30.5204 22.5056Z" fill="white"/>
<path d="M22.9442 18.6529C22.7682 18.6529 22.6188 18.5142 22.6081 18.3328C22.5494 17.1857 22.0106 16.6255 20.9115 16.5668C20.7248 16.5561 20.5807 16.3961 20.5914 16.2093C20.602 16.0226 20.7621 15.8786 20.9488 15.8892C22.4 15.9693 23.211 16.8016 23.2857 18.2954C23.2964 18.4822 23.1523 18.6422 22.9656 18.6476C22.9549 18.6529 22.9496 18.6529 22.9442 18.6529Z" fill="white"/>
<path d="M24.6731 19.2299H24.6677C24.481 19.2245 24.3316 19.0698 24.3369 18.8831C24.3636 17.7307 24.0328 16.797 23.3286 16.0287C22.6296 15.2604 21.664 14.8443 20.3888 14.7536C20.2021 14.7376 20.0634 14.5775 20.0794 14.3908C20.0954 14.204 20.2554 14.0653 20.4422 14.0813C21.8827 14.188 23.0191 14.6896 23.8301 15.5752C24.6464 16.4662 25.0412 17.5813 25.0145 18.8991C25.0092 19.0858 24.8545 19.2299 24.6731 19.2299Z" fill="white"/>
<path d="M26.4445 19.9231C26.2577 19.9231 26.1084 19.7737 26.1084 19.587C26.0924 17.5222 25.5001 15.9483 24.2944 14.7692C23.1046 13.6061 21.5947 13.0139 19.8181 12.9979C19.6313 12.9979 19.4819 12.8432 19.4819 12.6564C19.4819 12.4697 19.6367 12.3203 19.8181 12.3203C21.7761 12.3363 23.4407 12.9926 24.7585 14.2837C26.0817 15.5748 26.7593 17.3568 26.7806 19.5763C26.7859 19.7684 26.6366 19.9231 26.4445 19.9231C26.4498 19.9231 26.4498 19.9231 26.4445 19.9231Z" fill="white"/>
<path d="M20.9917 22.8312C20.9917 22.8312 21.4666 22.8739 21.7227 22.5591L22.2188 21.9349C22.4589 21.6254 23.0405 21.428 23.606 21.7428C23.9208 21.9189 24.4917 22.271 24.8438 22.5324C25.2226 22.8099 25.9909 23.4501 25.9962 23.4555C26.3644 23.7649 26.4497 24.2184 26.199 24.7039C26.199 24.7039 26.199 24.7092 26.199 24.7146C25.9429 25.1681 25.5961 25.5949 25.1639 25.9897C25.1586 25.9897 25.1586 25.995 25.1532 25.995C24.7958 26.2938 24.4437 26.4646 24.1022 26.5019C24.0595 26.5126 24.0115 26.5126 23.9475 26.5126C23.7981 26.5126 23.6487 26.4912 23.4993 26.4432L23.4886 26.4272C22.9551 26.2778 22.0694 25.9043 20.5969 25.088C19.6366 24.5599 18.8416 24.021 18.164 23.4821C17.8066 23.1994 17.4438 22.8846 17.0703 22.5111C17.0596 22.5004 17.0436 22.4844 17.0329 22.4738C17.0223 22.4631 17.0063 22.4471 16.9956 22.4364C16.9849 22.4257 16.9689 22.4097 16.9582 22.3991C16.9476 22.3884 16.9316 22.3724 16.9209 22.3617C16.5528 21.9882 16.2326 21.6254 15.9499 21.268C15.411 20.5957 14.8721 19.7954 14.344 18.8351C13.5277 17.3572 13.1542 16.4716 13.0048 15.9434L12.9888 15.9327C12.9408 15.7833 12.9194 15.6339 12.9194 15.4845C12.9194 15.4205 12.9194 15.3725 12.9301 15.3298C12.9728 14.983 13.1435 14.6362 13.437 14.2788C13.437 14.2734 13.4423 14.2734 13.4423 14.2681C13.8371 13.8306 14.2639 13.4891 14.7174 13.233C14.7174 13.233 14.7228 13.233 14.7281 13.233C15.2083 12.9823 15.6618 13.0677 15.9766 13.4358C15.9766 13.4358 16.6221 14.2094 16.8996 14.5882C17.161 14.9457 17.5131 15.5112 17.6892 15.826C18.004 16.3915 17.8066 16.9731 17.4971 17.2132L16.8729 17.7094C16.5581 17.9654 16.6008 18.4403 16.6008 18.4403C16.6008 18.4403 17.5238 21.9509 20.9917 22.8312Z" fill="white"/>
</svg>
