<svg width="41" height="40" viewBox="0 0 41 40" fill="none" xmlns="http://www.w3.org/2000/svg">
<path d="M21.3521 40C20.8814 40 20.4148 40 19.9441 40C19.7518 39.9713 19.5635 39.9345 19.3711 39.9099C18.4584 39.7912 17.5293 39.738 16.6289 39.5496C12.1594 38.612 8.39395 36.4256 5.45525 32.929C1.40736 28.1221 -0.053804 22.5619 0.993979 16.3794C1.60792 12.7558 3.16731 9.53354 5.63533 6.80667C10.3422 1.5945 16.2319 -0.612387 23.1939 0.145078C26.1694 0.468536 28.9403 1.49214 31.4411 3.15446C36.6882 6.64699 39.7374 11.5193 40.4987 17.796C40.5601 18.2833 40.6092 18.7746 40.6665 19.2659C40.6665 19.7368 40.6665 20.2036 40.6665 20.6744C40.6379 20.8791 40.601 21.0839 40.5765 21.2886C40.4864 22.0501 40.4455 22.8199 40.3063 23.5733C39.6351 27.2132 38.0839 30.4478 35.6159 33.2033C32.2065 37.0152 27.9539 39.2466 22.8624 39.8321C22.3548 39.8895 21.8514 39.9468 21.3521 40ZM20.6317 7.36351C19.8336 7.46178 19.0273 7.5191 18.2415 7.67059C12.6997 8.73923 8.34893 13.5461 8.20158 19.6508C8.15656 21.5957 8.57813 23.4463 9.39262 25.211C9.47857 25.3953 9.51131 25.6409 9.47038 25.8375C9.08156 27.7987 8.66817 29.7558 8.27526 31.7211C8.14838 32.3557 8.43079 32.6137 9.05291 32.4663C10.9479 32.0159 12.8388 31.5573 14.738 31.1233C14.9672 31.0701 15.2537 31.107 15.4706 31.2011C17.8199 32.237 20.247 32.5728 22.7846 32.1306C29.6075 30.935 34.1547 24.4044 32.8777 17.6159C31.7603 11.6667 26.6729 7.43312 20.6317 7.36351Z" fill="#29A71A"/>
<path d="M20.6331 7.36328C26.6742 7.43289 31.7576 11.6665 32.8791 17.6157C34.1561 24.4042 29.6089 30.9348 22.786 32.1303C20.2484 32.5766 17.8213 32.2368 15.472 31.2009C15.255 31.1067 14.9685 31.0699 14.7393 31.1231C12.8402 31.553 10.9493 32.0157 9.0543 32.4661C8.43218 32.6135 8.14977 32.3555 8.27665 31.7209C8.66956 29.7597 9.08295 27.8025 9.47177 25.8372C9.5127 25.6407 9.47996 25.395 9.39401 25.2108C8.57952 23.4461 8.15795 21.5954 8.20297 19.6506C8.35032 13.5458 12.7011 8.7431 18.2429 7.67446C19.0287 7.51887 19.835 7.46564 20.6331 7.36328ZM11.6615 28.9613C11.8293 28.9326 11.9398 28.9244 12.0503 28.8998C12.9999 28.6787 13.9535 28.4822 14.8949 28.2243C15.3083 28.1096 15.6357 28.1629 16 28.3594C18.071 29.4608 20.2607 29.8006 22.5732 29.3543C27.763 28.3512 31.2378 23.1308 30.145 17.9719C28.8517 11.8671 22.479 8.54656 16.7694 11.0032C12.7215 12.7433 10.3436 17.1653 11.1089 21.4972C11.3095 22.6272 11.6901 23.6836 12.2386 24.6785C12.4146 24.9979 12.4391 25.2927 12.3614 25.6407C12.1199 26.7134 11.903 27.7985 11.6615 28.9613Z" fill="white"/>
<path d="M11.6587 28.9605C11.9001 27.7977 12.1171 26.7126 12.3545 25.6358C12.4322 25.2878 12.4077 24.993 12.2317 24.6736C11.6832 23.6746 11.3026 22.6182 11.102 21.4923C10.3366 17.1604 12.7146 12.7384 16.7625 10.9983C22.4721 8.54578 28.8448 11.8663 30.1381 17.967C31.2309 23.1259 27.752 28.3463 22.5662 29.3494C20.2538 29.7957 18.0641 29.4559 15.993 28.3545C15.6288 28.1621 15.3013 28.1088 14.888 28.2194C13.9507 28.4773 12.9929 28.6739 12.0434 28.895C11.9411 28.9236 11.8265 28.9359 11.6587 28.9605ZM24.097 25.947C25.0834 26.0248 26.0248 25.5048 26.7574 24.5549C26.8679 24.4116 26.9784 24.2642 27.0807 24.1127C27.5801 23.3716 27.3386 22.7083 26.4832 22.4627C25.9224 22.303 25.3453 22.1801 24.801 21.9795C24.0602 21.7011 23.4912 21.8362 22.9674 22.4504C22.4435 23.0645 22.1283 23.085 21.4366 22.6592C20.1064 21.8403 18.9522 20.8126 17.974 19.5925C17.4747 18.9701 17.4951 18.6917 17.974 18.0694C18.0927 17.9138 18.2646 17.7746 18.3137 17.5985C18.3956 17.316 18.5102 16.968 18.416 16.7182C18.1214 15.9157 17.7571 15.1337 17.3805 14.3639C17.1104 13.8112 16.476 13.672 15.9971 14.065C15.6574 14.3435 15.3505 14.6669 15.064 15.0026C14.5769 15.58 14.3436 16.2433 14.3641 17.0171C14.3927 18.2045 14.7938 19.2649 15.4323 20.2312C16.7461 22.2211 18.4693 23.7933 20.5321 24.9807C21.5512 25.5662 22.6563 25.9347 24.097 25.947Z" fill="#29A71A"/>
<path d="M24.0998 25.9482C22.6591 25.9359 21.55 25.5674 20.5267 24.9778C18.4639 23.7904 16.7449 22.2223 15.427 20.2283C14.7885 19.2579 14.3874 18.2016 14.3587 17.0142C14.3424 16.2404 14.5716 15.5771 15.0586 14.9998C15.341 14.664 15.6521 14.3365 15.9918 14.0621C16.4707 13.6732 17.1051 13.8083 17.3752 14.361C17.7517 15.1308 18.116 15.9128 18.4107 16.7153C18.5007 16.9651 18.3902 17.3131 18.3084 17.5956C18.2593 17.7717 18.0874 17.9109 17.9687 18.0665C17.4898 18.6888 17.4693 18.9713 17.9687 19.5896C18.9469 20.8097 20.1011 21.8374 21.4313 22.6563C22.123 23.0821 22.4381 23.0616 22.962 22.4475C23.4859 21.8333 24.0548 21.6982 24.7956 21.9766C25.34 22.1813 25.9171 22.3001 26.4778 22.4598C27.3332 22.7054 27.5747 23.3687 27.0754 24.1098C26.9731 24.2613 26.8666 24.4087 26.752 24.552C26.0276 25.5101 25.0903 26.026 24.0998 25.9482Z" fill="white"/>
</svg>
