<svg width="39" height="40" viewBox="0 0 39 40" fill="none" xmlns="http://www.w3.org/2000/svg">
<path d="M19.3337 39.2602C29.9707 39.2602 38.5937 30.6372 38.5937 20.0002C38.5937 9.36323 29.9707 0.740234 19.3337 0.740234C8.69673 0.740234 0.0737305 9.36323 0.0737305 20.0002C0.0737305 30.6372 8.69673 39.2602 19.3337 39.2602Z" fill="#FF0310"/>
<path d="M21.7739 6.0496L21.8139 6.0196C14.4239 5.6096 14.1439 13.3696 14.1439 13.3696C14.1039 18.2696 18.0939 20.1596 18.0939 20.1596C16.2839 18.0596 16.3939 17.3696 16.2439 15.8696C16.0839 14.3696 17.0139 12.6896 17.0139 12.6896C17.1539 12.5196 17.2039 12.7996 17.2039 12.7996C16.8639 13.3196 16.0939 15.1596 16.6239 17.2596C17.1539 19.3596 18.3539 20.0296 18.3539 20.0296C17.7139 19.3996 17.6139 18.4996 17.5939 17.9996C17.5839 17.4996 17.8339 15.8896 19.4039 15.0396C20.9739 14.1896 20.9839 13.3496 21.3039 12.1096C21.6139 10.8696 20.9139 9.8896 20.7039 9.4496C20.4939 9.0096 20.3639 8.3996 20.4939 7.6196C20.6039 6.8396 21.7739 6.0496 21.7739 6.0496ZM18.2139 12.2196L17.7539 13.1496L17.6239 12.0996L16.6739 11.9096L17.5439 11.4496L17.4139 10.3996L18.0839 11.1696L18.9539 10.7096L18.4939 11.6396L19.1639 12.4096L18.2139 12.2196Z" fill="white"/>
<path d="M32.0338 19.0393L32.0738 19.0693C30.0038 11.2793 23.2338 13.5193 23.2338 13.5193C19.0038 15.0793 18.6738 19.8393 18.6738 19.8393C19.8838 17.2793 20.5138 17.1693 21.7638 16.5093C23.0038 15.8593 24.7538 16.2693 24.7538 16.2693C24.9438 16.3593 24.7238 16.4993 24.7238 16.4993C24.1638 16.3093 22.3238 16.1193 20.6938 17.3493C19.0638 18.5793 18.8738 20.0493 18.8738 20.0493C19.2038 19.1793 19.9538 18.7793 20.3738 18.5993C20.8038 18.4193 22.2738 18.1593 23.5138 19.5093C24.7538 20.8593 25.4838 20.5993 26.6538 20.5193C27.8238 20.4393 28.4438 19.3893 28.7438 19.0293C29.0538 18.6593 29.5338 18.3293 30.2538 18.2093C30.9638 18.0793 32.0338 19.0393 32.0338 19.0393ZM25.5438 17.3593L24.5938 17.1893L25.4538 16.7093L25.3038 15.6593L25.9838 16.4093L26.8438 15.9293L26.4038 16.8693L27.0838 17.6193L26.1338 17.4493L25.6938 18.3893L25.5438 17.3593Z" fill="white"/>
<path d="M23.844 33.9492L23.834 33.9992C30.004 29.5292 26.044 23.0892 26.044 23.0892C23.434 19.1192 19.194 20.1792 19.194 20.1792C21.784 20.6892 22.064 21.3192 23.004 22.4292C23.944 23.5392 24.094 25.4892 24.094 25.4892C24.074 25.7192 23.884 25.5192 23.884 25.5192C23.884 24.8792 23.504 22.8892 21.944 21.5492C20.384 20.1992 19.064 20.4392 19.064 20.4392C19.914 20.5292 20.494 21.1892 20.774 21.5892C21.054 21.9792 21.714 23.4492 20.914 25.1492C20.104 26.8492 20.554 27.5392 20.964 28.7392C21.374 29.9392 22.474 30.2792 22.884 30.4892C23.294 30.6992 23.724 31.1092 24.044 31.8292C24.354 32.5392 23.844 33.9492 23.844 33.9492ZM23.384 26.6592L23.244 25.6092L23.914 26.3692L24.784 25.9092L24.334 26.8392L25.004 27.5992L24.054 27.4192L23.604 28.3592L23.464 27.3092L22.514 27.1292L23.384 26.6592Z" fill="white"/>
<path d="M8.38398 30.0304H8.33398C14.104 35.1004 18.474 28.9904 18.474 28.9904C21.124 25.0504 18.894 20.9504 18.894 20.9504C19.244 23.8104 18.784 24.3004 18.114 25.6204C17.444 26.9404 15.794 27.7004 15.794 27.7004C15.584 27.7504 15.704 27.4904 15.704 27.4904C16.254 27.2904 17.864 26.2904 18.554 24.2504C19.244 22.2104 18.634 20.9004 18.634 20.9004C18.824 21.8204 18.414 22.6204 18.164 23.0404C17.904 23.4604 16.844 24.6004 15.114 24.2804C13.394 23.9604 12.934 24.6304 12.014 25.4404C11.104 26.2404 11.144 27.4904 11.084 27.9804C11.024 28.4704 10.804 29.0504 10.284 29.6004C9.76398 30.1404 8.38398 30.0304 8.38398 30.0304ZM14.564 27.3104L15.434 26.8504L14.984 27.7804L15.654 28.5404L14.704 28.3504L14.254 29.2804L14.124 28.2304L13.174 28.0404L14.044 27.5804L13.914 26.5304L14.564 27.3104Z" fill="white"/>
<path d="M7.28379 12.5695L7.27379 12.5195C4.51379 20.0495 11.1138 22.8795 11.1138 22.8795C15.3238 24.5195 18.2538 20.9895 18.2538 20.9895C15.8538 22.1895 15.3038 21.8395 13.9538 21.5195C12.6038 21.1895 11.4638 19.6895 11.4638 19.6895C11.3638 19.4895 11.6138 19.5295 11.6138 19.5295C11.9438 20.0495 13.2838 21.4495 15.2638 21.5895C17.2438 21.7295 18.2138 20.6995 18.2138 20.6995C17.4638 21.1595 16.6538 20.9695 16.2138 20.8195C15.7738 20.6695 14.4738 19.8795 14.2538 17.9795C14.0338 16.0795 13.3138 15.7895 12.3538 15.0595C11.3938 14.3295 10.3138 14.7395 9.86379 14.8095C9.41379 14.8895 8.85379 14.8195 8.21379 14.4395C7.59379 14.0395 7.28379 12.5695 7.28379 12.5695ZM11.4438 18.2695L12.0938 19.0495L11.1438 18.8395L10.6738 19.7595L10.5638 18.7095L9.61379 18.4995L10.4938 18.0595L10.3838 17.0095L11.0338 17.7895L11.9138 17.3495L11.4438 18.2695Z" fill="white"/>
</svg>
