<svg width="24" height="20" viewBox="0 0 24 20" fill="none" xmlns="http://www.w3.org/2000/svg">
<path d="M22.7142 1.57651H1.28556C1.20267 1.57651 1.14038 1.54763 1.10515 1.51757C1.07125 1.48864 1.07129 1.46912 1.07129 1.46702L1.07129 1.46697L1.07129 1.46691C1.07129 1.46479 1.07126 1.44527 1.10514 1.41635C1.14035 1.3863 1.20263 1.35742 1.28556 1.35742H22.7142C22.7971 1.35742 22.8594 1.3863 22.8946 1.41635C22.9285 1.44527 22.9284 1.46478 22.9284 1.46691V1.46697V1.46702C22.9284 1.46914 22.9285 1.48866 22.8946 1.51758C22.8594 1.54763 22.7971 1.57651 22.7142 1.57651ZM1.28556 9.89044H22.7142C22.7971 9.89044 22.8594 9.91932 22.8946 9.94937C22.9285 9.97829 22.9284 9.99781 22.9284 9.99993V9.99998V10C22.9284 10.0022 22.9285 10.0217 22.8946 10.0506C22.8594 10.0806 22.7971 10.1095 22.7142 10.1095H1.28556C1.20267 10.1095 1.14038 10.0806 1.10515 10.0506C1.07125 10.0217 1.07129 10.0021 1.07129 10L1.07129 9.99998L1.07129 9.99993C1.07129 9.99781 1.07126 9.97829 1.10514 9.94937C1.14035 9.91932 1.20263 9.89044 1.28556 9.89044ZM1.61023 18.424H22.3895C22.6027 18.424 22.7716 18.4758 22.8705 18.5336C22.7717 18.5914 22.6027 18.6431 22.3895 18.6431H1.61023C1.39708 18.6431 1.22812 18.5914 1.12925 18.5336C1.22811 18.4758 1.39705 18.424 1.61023 18.424ZM22.9412 18.589C22.941 18.5891 22.9396 18.5875 22.9379 18.584C22.9406 18.5872 22.9415 18.589 22.9412 18.589ZM22.9412 18.4781C22.9415 18.4782 22.9406 18.4799 22.9378 18.4832C22.9396 18.4797 22.941 18.478 22.9412 18.4781ZM1.05851 18.5891C1.05827 18.589 1.05915 18.5873 1.06188 18.584C1.06012 18.5875 1.05876 18.5891 1.05851 18.5891ZM1.05851 18.4781C1.05876 18.478 1.06012 18.4797 1.06188 18.4832C1.05914 18.4799 1.05827 18.4782 1.05851 18.4781Z" fill="#050505" stroke="#050505"/>
</svg>
