<svg width="32" height="32" viewBox="0 0 32 32" fill="none" xmlns="http://www.w3.org/2000/svg">
<path d="M16.0012 0C11.6558 0 11.1104 0.0190003 9.40376 0.096667C7.70041 0.174667 6.53774 0.444334 5.52039 0.84C4.46805 1.24867 3.57537 1.79533 2.68603 2.685C1.79602 3.57433 1.24935 4.467 0.839342 5.519C0.442671 6.53667 0.172669 7.69967 0.096001 9.40233C0.0200002 11.109 0 11.6547 0 16C0 20.3453 0.0193338 20.889 0.096668 22.5957C0.175002 24.299 0.444672 25.4617 0.840009 26.479C1.24901 27.5313 1.79569 28.424 2.68536 29.3133C3.57437 30.2033 4.46705 30.7513 5.51872 31.16C6.53674 31.5557 7.69975 31.8253 9.40277 31.9033C11.1095 31.981 11.6545 32 15.9995 32C20.3452 32 20.8889 31.981 22.5956 31.9033C24.2989 31.8253 25.4629 31.5557 26.4809 31.16C27.533 30.7513 28.4243 30.2033 29.3133 29.3133C30.2033 28.424 30.75 27.5313 31.16 26.4793C31.5533 25.4617 31.8233 24.2987 31.9033 22.596C31.98 20.8893 32 20.3453 32 16C32 11.6547 31.98 11.1093 31.9033 9.40267C31.8233 7.69933 31.5533 6.53667 31.16 5.51933C30.75 4.467 30.2033 3.57433 29.3133 2.685C28.4233 1.795 27.5333 1.24833 26.4799 0.84C25.4599 0.444334 24.2966 0.174667 22.5932 0.096667C20.8866 0.0190003 20.3432 0 15.9965 0H16.0012ZM14.5658 2.88333C14.9918 2.88267 15.4672 2.88333 16.0012 2.88333C20.2732 2.88333 20.7796 2.89867 22.4666 2.97533C24.0266 3.04667 24.8733 3.30733 25.4373 3.52633C26.1839 3.81633 26.7163 4.163 27.276 4.723C27.836 5.283 28.1826 5.81633 28.4733 6.563C28.6923 7.12633 28.9533 7.973 29.0243 9.533C29.101 11.2197 29.1176 11.7263 29.1176 15.9963C29.1176 20.2663 29.101 20.773 29.0243 22.4597C28.953 24.0197 28.6923 24.8663 28.4733 25.4297C28.1833 26.1763 27.836 26.708 27.276 27.2677C26.7159 27.8277 26.1843 28.1743 25.4373 28.4643C24.8739 28.6843 24.0266 28.9443 22.4666 29.0157C20.7799 29.0923 20.2732 29.109 16.0012 29.109C11.7288 29.109 11.2225 29.0923 9.53577 29.0157C7.97575 28.9437 7.12907 28.683 6.56474 28.464C5.81806 28.174 5.28472 27.8273 4.72472 27.2673C4.16471 26.7073 3.81804 26.1753 3.52737 25.4283C3.30837 24.865 3.04737 24.0183 2.97636 22.4583C2.8997 20.7717 2.88436 20.265 2.88436 15.9923C2.88436 11.7197 2.8997 11.2157 2.97636 9.529C3.0477 7.969 3.30837 7.12233 3.52737 6.55833C3.81737 5.81167 4.16471 5.27833 4.72472 4.71833C5.28472 4.15833 5.81806 3.81167 6.56474 3.521C7.12874 3.301 7.97575 3.041 9.53577 2.96933C11.0118 2.90267 11.5838 2.88267 14.5658 2.87933V2.88333Z" fill="url(#paint0_radial_6861_21051)"/>
<path d="M24.5075 5.5007C24.1277 5.5007 23.7565 5.61332 23.4407 5.82432C23.125 6.03532 22.8789 6.33523 22.7336 6.6861C22.5883 7.03697 22.5503 7.42305 22.6244 7.79552C22.6986 8.16798 22.8815 8.51009 23.1501 8.77858C23.4187 9.04707 23.7609 9.22988 24.1333 9.30389C24.5058 9.37789 24.8919 9.33978 25.2427 9.19436C25.5936 9.04893 25.8934 8.80274 26.1043 8.48691C26.3152 8.17108 26.4277 7.7998 26.4275 7.42003C26.4275 6.36003 25.5675 5.50003 24.5075 5.50003V5.5007Z" fill="url(#paint1_radial_6861_21051)"/>
<path fill-rule="evenodd" clip-rule="evenodd" d="M15.9668 7.74403C11.429 7.74403 7.75001 11.423 7.75001 15.9607C7.75001 20.4984 11.429 24.1757 15.9668 24.1757C20.5045 24.1757 24.1825 20.4984 24.1825 15.9607C24.1825 11.423 20.5045 7.74403 15.9668 7.74403ZM16 21.25C18.8995 21.25 21.25 18.8995 21.25 16C21.25 13.1005 18.8995 10.75 16 10.75C13.1005 10.75 10.75 13.1005 10.75 16C10.75 18.8995 13.1005 21.25 16 21.25Z" fill="url(#paint2_radial_6861_21051)"/>
<path d="M16.0012 0C11.6558 0 11.1104 0.0190003 9.40376 0.096667C7.70041 0.174667 6.53774 0.444334 5.52039 0.84C4.46805 1.24867 3.57537 1.79533 2.68603 2.685C1.79602 3.57433 1.24935 4.467 0.839342 5.519C0.442671 6.53667 0.172669 7.69967 0.096001 9.40233C0.0200002 11.109 0 11.6547 0 16C0 20.3453 0.0193338 20.889 0.096668 22.5957C0.175002 24.299 0.444672 25.4617 0.840009 26.479C1.24901 27.5313 1.79569 28.424 2.68536 29.3133C3.57437 30.2033 4.46705 30.7513 5.51872 31.16C6.53674 31.5557 7.69975 31.8253 9.40277 31.9033C11.1095 31.981 11.6545 32 15.9995 32C20.3452 32 20.8889 31.981 22.5956 31.9033C24.2989 31.8253 25.4629 31.5557 26.4809 31.16C27.533 30.7513 28.4243 30.2033 29.3133 29.3133C30.2033 28.424 30.75 27.5313 31.16 26.4793C31.5533 25.4617 31.8233 24.2987 31.9033 22.596C31.98 20.8893 32 20.3453 32 16C32 11.6547 31.98 11.1093 31.9033 9.40267C31.8233 7.69933 31.5533 6.53667 31.16 5.51933C30.75 4.467 30.2033 3.57433 29.3133 2.685C28.4233 1.795 27.5333 1.24833 26.4799 0.84C25.4599 0.444334 24.2966 0.174667 22.5932 0.096667C20.8866 0.0190003 20.3432 0 15.9965 0H16.0012ZM14.5658 2.88333C14.9918 2.88267 15.4672 2.88333 16.0012 2.88333C20.2732 2.88333 20.7796 2.89867 22.4666 2.97533C24.0266 3.04667 24.8733 3.30733 25.4373 3.52633C26.1839 3.81633 26.7163 4.163 27.276 4.723C27.836 5.283 28.1826 5.81633 28.4733 6.563C28.6923 7.12633 28.9533 7.973 29.0243 9.533C29.101 11.2197 29.1176 11.7263 29.1176 15.9963C29.1176 20.2663 29.101 20.773 29.0243 22.4597C28.953 24.0197 28.6923 24.8663 28.4733 25.4297C28.1833 26.1763 27.836 26.708 27.276 27.2677C26.7159 27.8277 26.1843 28.1743 25.4373 28.4643C24.8739 28.6843 24.0266 28.9443 22.4666 29.0157C20.7799 29.0923 20.2732 29.109 16.0012 29.109C11.7288 29.109 11.2225 29.0923 9.53577 29.0157C7.97575 28.9437 7.12907 28.683 6.56474 28.464C5.81806 28.174 5.28472 27.8273 4.72472 27.2673C4.16471 26.7073 3.81804 26.1753 3.52737 25.4283C3.30837 24.865 3.04737 24.0183 2.97636 22.4583C2.8997 20.7717 2.88436 20.265 2.88436 15.9923C2.88436 11.7197 2.8997 11.2157 2.97636 9.529C3.0477 7.969 3.30837 7.12233 3.52737 6.55833C3.81737 5.81167 4.16471 5.27833 4.72472 4.71833C5.28472 4.15833 5.81806 3.81167 6.56474 3.521C7.12874 3.301 7.97575 3.041 9.53577 2.96933C11.0118 2.90267 11.5838 2.88267 14.5658 2.87933V2.88333Z" fill="url(#paint3_radial_6861_21051)"/>
<path d="M24.5075 5.5007C24.1277 5.5007 23.7565 5.61332 23.4407 5.82432C23.125 6.03532 22.8789 6.33523 22.7336 6.6861C22.5883 7.03697 22.5503 7.42305 22.6244 7.79552C22.6986 8.16798 22.8815 8.51009 23.1501 8.77858C23.4187 9.04707 23.7609 9.22988 24.1333 9.30389C24.5058 9.37789 24.8919 9.33978 25.2427 9.19436C25.5936 9.04893 25.8934 8.80274 26.1043 8.48691C26.3152 8.17108 26.4277 7.7998 26.4275 7.42003C26.4275 6.36003 25.5675 5.50003 24.5075 5.50003V5.5007Z" fill="url(#paint4_radial_6861_21051)"/>
<path fill-rule="evenodd" clip-rule="evenodd" d="M15.9668 7.74403C11.429 7.74403 7.75001 11.423 7.75001 15.9607C7.75001 20.4984 11.429 24.1757 15.9668 24.1757C20.5045 24.1757 24.1825 20.4984 24.1825 15.9607C24.1825 11.423 20.5045 7.74403 15.9668 7.74403ZM16 21.25C18.8995 21.25 21.25 18.8995 21.25 16C21.25 13.1005 18.8995 10.75 16 10.75C13.1005 10.75 10.75 13.1005 10.75 16C10.75 18.8995 13.1005 21.25 16 21.25Z" fill="url(#paint5_radial_6861_21051)"/>
<defs>
<radialGradient id="paint0_radial_6861_21051" cx="0" cy="0" r="1" gradientUnits="userSpaceOnUse" gradientTransform="translate(8.50004 34.4647) rotate(-90) scale(31.7144 29.4969)">
<stop stop-color="#FFDD55"/>
<stop offset="0.1" stop-color="#FFDD55"/>
<stop offset="0.5" stop-color="#FF543E"/>
<stop offset="1" stop-color="#C837AB"/>
</radialGradient>
<radialGradient id="paint1_radial_6861_21051" cx="0" cy="0" r="1" gradientUnits="userSpaceOnUse" gradientTransform="translate(8.50004 34.4647) rotate(-90) scale(31.7144 29.4969)">
<stop stop-color="#FFDD55"/>
<stop offset="0.1" stop-color="#FFDD55"/>
<stop offset="0.5" stop-color="#FF543E"/>
<stop offset="1" stop-color="#C837AB"/>
</radialGradient>
<radialGradient id="paint2_radial_6861_21051" cx="0" cy="0" r="1" gradientUnits="userSpaceOnUse" gradientTransform="translate(8.50004 34.4647) rotate(-90) scale(31.7144 29.4969)">
<stop stop-color="#FFDD55"/>
<stop offset="0.1" stop-color="#FFDD55"/>
<stop offset="0.5" stop-color="#FF543E"/>
<stop offset="1" stop-color="#C837AB"/>
</radialGradient>
<radialGradient id="paint3_radial_6861_21051" cx="0" cy="0" r="1" gradientUnits="userSpaceOnUse" gradientTransform="translate(-5.36017 2.30523) rotate(78.6806) scale(14.1765 58.4359)">
<stop stop-color="#3771C8"/>
<stop offset="0.128" stop-color="#3771C8"/>
<stop offset="1" stop-color="#6600FF" stop-opacity="0"/>
</radialGradient>
<radialGradient id="paint4_radial_6861_21051" cx="0" cy="0" r="1" gradientUnits="userSpaceOnUse" gradientTransform="translate(-5.36017 2.30523) rotate(78.6806) scale(14.1765 58.4359)">
<stop stop-color="#3771C8"/>
<stop offset="0.128" stop-color="#3771C8"/>
<stop offset="1" stop-color="#6600FF" stop-opacity="0"/>
</radialGradient>
<radialGradient id="paint5_radial_6861_21051" cx="0" cy="0" r="1" gradientUnits="userSpaceOnUse" gradientTransform="translate(-5.36017 2.30523) rotate(78.6806) scale(14.1765 58.4359)">
<stop stop-color="#3771C8"/>
<stop offset="0.128" stop-color="#3771C8"/>
<stop offset="1" stop-color="#6600FF" stop-opacity="0"/>
</radialGradient>
</defs>
</svg>
